<?xml version="1.0" encoding="UTF-8" standalone="no"?>
<!DOCTYPE svg PUBLIC "-//W3C//DTD SVG 1.1//EN"
 "http://www.w3.org/Graphics/SVG/1.1/DTD/svg11.dtd">
<!-- Generated by graphviz version 2.43.0 (0)
 -->
<!-- Title: gauri::SceneHierarchyPanel Pages: 1 -->
<svg width="258pt" height="215pt"
 viewBox="0.00 0.00 258.00 215.00" xmlns="http://www.w3.org/2000/svg" xmlns:xlink="http://www.w3.org/1999/xlink">
<g id="graph0" class="graph" transform="scale(1 1) rotate(0) translate(4 211)">
<title>gauri::SceneHierarchyPanel</title>
<polygon fill="white" stroke="transparent" points="-4,4 -4,-211 254,-211 254,4 -4,4"/>
<!-- Node1 -->
<g id="node1" class="node">
<title>Node1</title>
<g id="a_node1"><a xlink:title=" ">
<polygon fill="#bfbfbf" stroke="black" points="0,-0.5 0,-101.5 250,-101.5 250,-0.5 0,-0.5"/>
<text text-anchor="middle" x="125" y="-89.5" font-family="Helvetica,sans-Serif" font-size="10.00">gauri::SceneHierarchyPanel</text>
<polyline fill="none" stroke="black" points="0,-82.5 250,-82.5 "/>
<text text-anchor="middle" x="125" y="-70.5" font-family="Helvetica,sans-Serif" font-size="10.00"> </text>
<polyline fill="none" stroke="black" points="0,-63.5 250,-63.5 "/>
<text text-anchor="start" x="8" y="-51.5" font-family="Helvetica,sans-Serif" font-size="10.00">+ SceneHierarchyPanel()=default</text>
<text text-anchor="start" x="8" y="-40.5" font-family="Helvetica,sans-Serif" font-size="10.00">+ SceneHierarchyPanel(Ref&lt; Scene &gt; &amp;scene)</text>
<text text-anchor="start" x="8" y="-29.5" font-family="Helvetica,sans-Serif" font-size="10.00">+ void SetContext(const Ref&lt; Scene &gt; &amp;scene)</text>
<text text-anchor="start" x="8" y="-18.5" font-family="Helvetica,sans-Serif" font-size="10.00">+ void OnImGuiRender()</text>
<text text-anchor="start" x="8" y="-7.5" font-family="Helvetica,sans-Serif" font-size="10.00">&#45; void DrawEntityNode(Entity entity)</text>
</a>
</g>
</g>
<!-- Node2 -->
<g id="node2" class="node">
<title>Node2</title>
<g id="a_node2"><a xlink:title=" ">
<polygon fill="white" stroke="#bfbfbf" points="38.5,-149.5 38.5,-206.5 83.5,-206.5 83.5,-149.5 38.5,-149.5"/>
<text text-anchor="middle" x="61" y="-194.5" font-family="Helvetica,sans-Serif" font-size="10.00">Entity</text>
<polyline fill="none" stroke="#bfbfbf" points="38.5,-187.5 83.5,-187.5 "/>
<text text-anchor="middle" x="61" y="-175.5" font-family="Helvetica,sans-Serif" font-size="10.00"> </text>
<polyline fill="none" stroke="#bfbfbf" points="38.5,-168.5 83.5,-168.5 "/>
<text text-anchor="middle" x="61" y="-156.5" font-family="Helvetica,sans-Serif" font-size="10.00"> </text>
</a>
</g>
</g>
<!-- Node2&#45;&gt;Node1 -->
<g id="edge1" class="edge">
<title>Node2&#45;&gt;Node1</title>
<path fill="none" stroke="#404040" d="M57.54,-149.24C57.37,-139.67 58.34,-129.09 62,-120 63.09,-117.29 64.34,-114.63 65.73,-112.01"/>
<polygon fill="none" stroke="#404040" points="65.85,-111.8 65.56,-104.6 72.1,-101.55 72.39,-108.76 65.85,-111.8"/>
<text text-anchor="middle" x="115" y="-123" font-family="Helvetica,sans-Serif" font-size="10.00"> &#45;m_SelectionContext</text>
</g>
<!-- Node3 -->
<g id="node3" class="node">
<title>Node3</title>
<g id="a_node3"><a xlink:title=" ">
<polygon fill="white" stroke="#bfbfbf" points="147.5,-149.5 147.5,-206.5 232.5,-206.5 232.5,-149.5 147.5,-149.5"/>
<text text-anchor="middle" x="190" y="-194.5" font-family="Helvetica,sans-Serif" font-size="10.00">Ref&lt; Scene &gt;</text>
<polyline fill="none" stroke="#bfbfbf" points="147.5,-187.5 232.5,-187.5 "/>
<text text-anchor="middle" x="190" y="-175.5" font-family="Helvetica,sans-Serif" font-size="10.00"> </text>
<polyline fill="none" stroke="#bfbfbf" points="147.5,-168.5 232.5,-168.5 "/>
<text text-anchor="middle" x="190" y="-156.5" font-family="Helvetica,sans-Serif" font-size="10.00"> </text>
</a>
</g>
</g>
<!-- Node3&#45;&gt;Node1 -->
<g id="edge2" class="edge">
<title>Node3&#45;&gt;Node1</title>
<path fill="none" stroke="#404040" d="M180.54,-149.28C176.99,-139.82 172.67,-129.29 168,-120 166.73,-117.47 165.39,-114.92 164,-112.36"/>
<polygon fill="none" stroke="#404040" points="163.97,-112.31 157.54,-109.05 158.06,-101.86 164.5,-105.12 163.97,-112.31"/>
<text text-anchor="middle" x="202.5" y="-123" font-family="Helvetica,sans-Serif" font-size="10.00"> &#45;m_Context</text>
</g>
</g>
</svg>
