<?xml version="1.0" encoding="UTF-8" standalone="no"?>
<!DOCTYPE svg PUBLIC "-//W3C//DTD SVG 1.1//EN"
 "http://www.w3.org/Graphics/SVG/1.1/DTD/svg11.dtd">
<!-- Generated by graphviz version 2.43.0 (0)
 -->
<!-- Title: gauri::EditorLayer Pages: 1 -->
<svg width="1623pt" height="408pt"
 viewBox="0.00 0.00 1623.00 408.00" xmlns="http://www.w3.org/2000/svg" xmlns:xlink="http://www.w3.org/1999/xlink">
<g id="graph0" class="graph" transform="scale(1 1) rotate(0) translate(4 404)">
<title>gauri::EditorLayer</title>
<polygon fill="white" stroke="transparent" points="-4,4 -4,-404 1619,-404 1619,4 -4,4"/>
<!-- Node1 -->
<g id="node1" class="node">
<title>Node1</title>
<g id="a_node1"><a xlink:title=" ">
<polygon fill="#bfbfbf" stroke="black" points="770,-0.5 770,-123.5 980,-123.5 980,-0.5 770,-0.5"/>
<text text-anchor="middle" x="875" y="-111.5" font-family="Helvetica,sans-Serif" font-size="10.00">gauri::EditorLayer</text>
<polyline fill="none" stroke="black" points="770,-104.5 980,-104.5 "/>
<text text-anchor="middle" x="875" y="-92.5" font-family="Helvetica,sans-Serif" font-size="10.00"> </text>
<polyline fill="none" stroke="black" points="770,-85.5 980,-85.5 "/>
<text text-anchor="start" x="778" y="-73.5" font-family="Helvetica,sans-Serif" font-size="10.00">+ EditorLayer()</text>
<text text-anchor="start" x="778" y="-62.5" font-family="Helvetica,sans-Serif" font-size="10.00">+ ~EditorLayer() override=default</text>
<text text-anchor="start" x="778" y="-51.5" font-family="Helvetica,sans-Serif" font-size="10.00">+ void OnAttach() override</text>
<text text-anchor="start" x="778" y="-40.5" font-family="Helvetica,sans-Serif" font-size="10.00">+ void OnDetach() override</text>
<text text-anchor="start" x="778" y="-29.5" font-family="Helvetica,sans-Serif" font-size="10.00">+ void OnUpdate(Timestep ts) override</text>
<text text-anchor="start" x="778" y="-18.5" font-family="Helvetica,sans-Serif" font-size="10.00">+ void OnImGuiRender() override</text>
<text text-anchor="start" x="778" y="-7.5" font-family="Helvetica,sans-Serif" font-size="10.00">+ void OnEvent(Event &amp;event) override</text>
</a>
</g>
</g>
<!-- Node2 -->
<g id="node2" class="node">
<title>Node2</title>
<g id="a_node2"><a xlink:title=" ">
<polygon fill="white" stroke="#bfbfbf" points="0,-215.5 0,-272.5 74,-272.5 74,-215.5 0,-215.5"/>
<text text-anchor="middle" x="37" y="-260.5" font-family="Helvetica,sans-Serif" font-size="10.00">gauri::Layer</text>
<polyline fill="none" stroke="#bfbfbf" points="0,-253.5 74,-253.5 "/>
<text text-anchor="middle" x="37" y="-241.5" font-family="Helvetica,sans-Serif" font-size="10.00"> </text>
<polyline fill="none" stroke="#bfbfbf" points="0,-234.5 74,-234.5 "/>
<text text-anchor="middle" x="37" y="-222.5" font-family="Helvetica,sans-Serif" font-size="10.00"> </text>
</a>
</g>
</g>
<!-- Node2&#45;&gt;Node1 -->
<g id="edge1" class="edge">
<title>Node2&#45;&gt;Node1</title>
<path fill="none" stroke="midnightblue" d="M66.19,-207.94C71.48,-202.6 77.18,-197.4 83,-193 123.11,-162.67 135.82,-156.41 184,-142 385.43,-81.73 632.53,-66.9 769.98,-63.58"/>
<polygon fill="none" stroke="midnightblue" points="63.59,-205.6 59.26,-215.27 68.68,-210.41 63.59,-205.6"/>
</g>
<!-- Node3 -->
<g id="node3" class="node">
<title>Node3</title>
<g id="a_node3"><a xlink:title=" ">
<polygon fill="white" stroke="#bfbfbf" points="92.5,-215.5 92.5,-272.5 205.5,-272.5 205.5,-215.5 92.5,-215.5"/>
<text text-anchor="middle" x="149" y="-260.5" font-family="Helvetica,sans-Serif" font-size="10.00">Ref&lt; VertexArray &gt;</text>
<polyline fill="none" stroke="#bfbfbf" points="92.5,-253.5 205.5,-253.5 "/>
<text text-anchor="middle" x="149" y="-241.5" font-family="Helvetica,sans-Serif" font-size="10.00"> </text>
<polyline fill="none" stroke="#bfbfbf" points="92.5,-234.5 205.5,-234.5 "/>
<text text-anchor="middle" x="149" y="-222.5" font-family="Helvetica,sans-Serif" font-size="10.00"> </text>
</a>
</g>
</g>
<!-- Node3&#45;&gt;Node1 -->
<g id="edge2" class="edge">
<title>Node3&#45;&gt;Node1</title>
<path fill="none" stroke="#404040" d="M161.09,-215.27C172.98,-191.6 193.48,-158.81 222,-142 310.17,-90.02 595.06,-72.1 757.92,-66.03"/>
<polygon fill="none" stroke="#404040" points="757.93,-66.03 763.78,-61.81 769.92,-65.59 764.07,-69.81 757.93,-66.03"/>
<text text-anchor="middle" x="256.5" y="-156" font-family="Helvetica,sans-Serif" font-size="10.00"> &#45;m_SquareVA</text>
</g>
<!-- Node4 -->
<g id="node4" class="node">
<title>Node4</title>
<g id="a_node4"><a xlink:title=" ">
<polygon fill="white" stroke="#bfbfbf" points="224,-215.5 224,-272.5 390,-272.5 390,-215.5 224,-215.5"/>
<text text-anchor="middle" x="307" y="-260.5" font-family="Helvetica,sans-Serif" font-size="10.00">OrthographicCameraController</text>
<polyline fill="none" stroke="#bfbfbf" points="224,-253.5 390,-253.5 "/>
<text text-anchor="middle" x="307" y="-241.5" font-family="Helvetica,sans-Serif" font-size="10.00"> </text>
<polyline fill="none" stroke="#bfbfbf" points="224,-234.5 390,-234.5 "/>
<text text-anchor="middle" x="307" y="-222.5" font-family="Helvetica,sans-Serif" font-size="10.00"> </text>
</a>
</g>
</g>
<!-- Node4&#45;&gt;Node1 -->
<g id="edge3" class="edge">
<title>Node4&#45;&gt;Node1</title>
<path fill="none" stroke="#404040" d="M298.01,-215.14C292.66,-192.69 289.85,-161.71 307,-142 336.13,-108.54 600.02,-83.38 757.66,-71.18"/>
<polygon fill="none" stroke="#404040" points="757.79,-71.17 763.47,-66.72 769.76,-70.25 764.08,-74.7 757.79,-71.17"/>
<text text-anchor="middle" x="361.5" y="-156" font-family="Helvetica,sans-Serif" font-size="10.00"> &#45;m_CameraController</text>
</g>
<!-- Node5 -->
<g id="node5" class="node">
<title>Node5</title>
<g id="a_node5"><a xlink:title=" ">
<polygon fill="white" stroke="#bfbfbf" points="474.5,-342.5 474.5,-399.5 519.5,-399.5 519.5,-342.5 474.5,-342.5"/>
<text text-anchor="middle" x="497" y="-387.5" font-family="Helvetica,sans-Serif" font-size="10.00">Entity</text>
<polyline fill="none" stroke="#bfbfbf" points="474.5,-380.5 519.5,-380.5 "/>
<text text-anchor="middle" x="497" y="-368.5" font-family="Helvetica,sans-Serif" font-size="10.00"> </text>
<polyline fill="none" stroke="#bfbfbf" points="474.5,-361.5 519.5,-361.5 "/>
<text text-anchor="middle" x="497" y="-349.5" font-family="Helvetica,sans-Serif" font-size="10.00"> </text>
</a>
</g>
</g>
<!-- Node5&#45;&gt;Node1 -->
<g id="edge4" class="edge">
<title>Node5&#45;&gt;Node1</title>
<path fill="none" stroke="#404040" d="M474.45,-349.81C460.73,-335.94 444.45,-316.24 437,-295 421.99,-252.22 409.89,-229.33 437,-193 475.55,-141.35 641.64,-102.89 757.82,-81.69"/>
<polygon fill="none" stroke="#404040" points="758.15,-81.63 763.35,-76.63 769.96,-79.5 764.76,-84.5 758.15,-81.63"/>
<text text-anchor="middle" x="483.5" y="-252.5" font-family="Helvetica,sans-Serif" font-size="10.00"> &#45;m_CameraEntity</text>
<text text-anchor="middle" x="483.5" y="-241.5" font-family="Helvetica,sans-Serif" font-size="10.00">&#45;m_SecondCamera</text>
<text text-anchor="middle" x="483.5" y="-230.5" font-family="Helvetica,sans-Serif" font-size="10.00">&#45;m_SquareEntity</text>
</g>
<!-- Node7 -->
<g id="node7" class="node">
<title>Node7</title>
<g id="a_node7"><a xlink:href="classgauri_1_1SceneHierarchyPanel.html" target="_top" xlink:title=" ">
<polygon fill="white" stroke="black" points="539,-193.5 539,-294.5 789,-294.5 789,-193.5 539,-193.5"/>
<text text-anchor="middle" x="664" y="-282.5" font-family="Helvetica,sans-Serif" font-size="10.00">gauri::SceneHierarchyPanel</text>
<polyline fill="none" stroke="black" points="539,-275.5 789,-275.5 "/>
<text text-anchor="middle" x="664" y="-263.5" font-family="Helvetica,sans-Serif" font-size="10.00"> </text>
<polyline fill="none" stroke="black" points="539,-256.5 789,-256.5 "/>
<text text-anchor="start" x="547" y="-244.5" font-family="Helvetica,sans-Serif" font-size="10.00">+ SceneHierarchyPanel()=default</text>
<text text-anchor="start" x="547" y="-233.5" font-family="Helvetica,sans-Serif" font-size="10.00">+ SceneHierarchyPanel(Ref&lt; Scene &gt; &amp;scene)</text>
<text text-anchor="start" x="547" y="-222.5" font-family="Helvetica,sans-Serif" font-size="10.00">+ void SetContext(const Ref&lt; Scene &gt; &amp;scene)</text>
<text text-anchor="start" x="547" y="-211.5" font-family="Helvetica,sans-Serif" font-size="10.00">+ void OnImGuiRender()</text>
<text text-anchor="start" x="547" y="-200.5" font-family="Helvetica,sans-Serif" font-size="10.00">&#45; void DrawEntityNode(Entity entity)</text>
</a>
</g>
</g>
<!-- Node5&#45;&gt;Node7 -->
<g id="edge7" class="edge">
<title>Node5&#45;&gt;Node7</title>
<path fill="none" stroke="#404040" d="M519.52,-353.14C537.21,-339.91 562.91,-320.66 587.76,-302.07"/>
<polygon fill="none" stroke="#404040" points="587.98,-301.9 590.39,-295.1 597.59,-294.71 595.18,-301.51 587.98,-301.9"/>
<text text-anchor="middle" x="623" y="-316" font-family="Helvetica,sans-Serif" font-size="10.00"> &#45;m_SelectionContext</text>
</g>
<!-- Node6 -->
<g id="node6" class="node">
<title>Node6</title>
<g id="a_node6"><a xlink:title=" ">
<polygon fill="white" stroke="#bfbfbf" points="925,-215.5 925,-272.5 1041,-272.5 1041,-215.5 925,-215.5"/>
<text text-anchor="middle" x="983" y="-260.5" font-family="Helvetica,sans-Serif" font-size="10.00">Ref&lt; FrameBuffer &gt;</text>
<polyline fill="none" stroke="#bfbfbf" points="925,-253.5 1041,-253.5 "/>
<text text-anchor="middle" x="983" y="-241.5" font-family="Helvetica,sans-Serif" font-size="10.00"> </text>
<polyline fill="none" stroke="#bfbfbf" points="925,-234.5 1041,-234.5 "/>
<text text-anchor="middle" x="983" y="-222.5" font-family="Helvetica,sans-Serif" font-size="10.00"> </text>
</a>
</g>
</g>
<!-- Node6&#45;&gt;Node1 -->
<g id="edge5" class="edge">
<title>Node6&#45;&gt;Node1</title>
<path fill="none" stroke="#404040" d="M957.6,-215.44C947.35,-203.53 935.88,-189.11 927,-175 919.07,-162.4 911.62,-148.4 904.96,-134.68"/>
<polygon fill="none" stroke="#404040" points="904.93,-134.62 898.75,-130.9 899.81,-123.77 905.99,-127.48 904.93,-134.62"/>
<text text-anchor="middle" x="968" y="-156" font-family="Helvetica,sans-Serif" font-size="10.00"> &#45;m_FrameBuffer</text>
</g>
<!-- Node7&#45;&gt;Node1 -->
<g id="edge6" class="edge">
<title>Node7&#45;&gt;Node1</title>
<path fill="none" stroke="#404040" d="M665.46,-193.37C668.24,-175.51 674.11,-156.27 686,-142 704.91,-119.31 731.44,-103.02 758.66,-91.38"/>
<polygon fill="none" stroke="#404040" points="758.81,-91.32 762.87,-85.36 769.93,-86.83 765.87,-92.78 758.81,-91.32"/>
<text text-anchor="middle" x="748.5" y="-156" font-family="Helvetica,sans-Serif" font-size="10.00"> &#45;m_SceneHierarchyPanel</text>
</g>
<!-- Node8 -->
<g id="node8" class="node">
<title>Node8</title>
<g id="a_node8"><a xlink:title=" ">
<polygon fill="white" stroke="#bfbfbf" points="722.5,-342.5 722.5,-399.5 807.5,-399.5 807.5,-342.5 722.5,-342.5"/>
<text text-anchor="middle" x="765" y="-387.5" font-family="Helvetica,sans-Serif" font-size="10.00">Ref&lt; Scene &gt;</text>
<polyline fill="none" stroke="#bfbfbf" points="722.5,-380.5 807.5,-380.5 "/>
<text text-anchor="middle" x="765" y="-368.5" font-family="Helvetica,sans-Serif" font-size="10.00"> </text>
<polyline fill="none" stroke="#bfbfbf" points="722.5,-361.5 807.5,-361.5 "/>
<text text-anchor="middle" x="765" y="-349.5" font-family="Helvetica,sans-Serif" font-size="10.00"> </text>
</a>
</g>
</g>
<!-- Node8&#45;&gt;Node1 -->
<g id="edge14" class="edge">
<title>Node8&#45;&gt;Node1</title>
<path fill="none" stroke="#404040" d="M781.88,-342.25C785.13,-336.34 788.35,-330.05 791,-324 794.94,-315.01 828.67,-209.28 852.17,-135.18"/>
<polygon fill="none" stroke="#404040" points="852.22,-135.02 850.22,-128.09 855.84,-123.58 857.84,-130.51 852.22,-135.02"/>
<text text-anchor="middle" x="873" y="-241.5" font-family="Helvetica,sans-Serif" font-size="10.00"> &#45;m_ActiveScene</text>
</g>
<!-- Node8&#45;&gt;Node7 -->
<g id="edge8" class="edge">
<title>Node8&#45;&gt;Node7</title>
<path fill="none" stroke="#404040" d="M742.58,-342.26C733.51,-331.03 722.67,-317.61 711.97,-304.37"/>
<polygon fill="none" stroke="#404040" points="711.78,-304.14 704.9,-301.98 704.24,-294.8 711.12,-296.95 711.78,-304.14"/>
<text text-anchor="middle" x="756.5" y="-316" font-family="Helvetica,sans-Serif" font-size="10.00"> &#45;m_Context</text>
</g>
<!-- Node9 -->
<g id="node9" class="node">
<title>Node9</title>
<g id="a_node9"><a xlink:title=" ">
<polygon fill="white" stroke="#bfbfbf" points="1059.5,-215.5 1059.5,-272.5 1164.5,-272.5 1164.5,-215.5 1059.5,-215.5"/>
<text text-anchor="middle" x="1112" y="-260.5" font-family="Helvetica,sans-Serif" font-size="10.00">Ref&lt; Texture2D &gt;</text>
<polyline fill="none" stroke="#bfbfbf" points="1059.5,-253.5 1164.5,-253.5 "/>
<text text-anchor="middle" x="1112" y="-241.5" font-family="Helvetica,sans-Serif" font-size="10.00"> </text>
<polyline fill="none" stroke="#bfbfbf" points="1059.5,-234.5 1164.5,-234.5 "/>
<text text-anchor="middle" x="1112" y="-222.5" font-family="Helvetica,sans-Serif" font-size="10.00"> </text>
</a>
</g>
</g>
<!-- Node9&#45;&gt;Node1 -->
<g id="edge9" class="edge">
<title>Node9&#45;&gt;Node1</title>
<path fill="none" stroke="#404040" d="M1077.88,-215.48C1059.84,-200.63 1039.84,-183.63 1032,-175 1019.98,-161.77 1022.11,-154.15 1009,-142 1003.08,-136.51 996.71,-131.23 990.08,-126.18"/>
<polygon fill="none" stroke="#404040" points="989.89,-126.03 982.69,-125.71 980.21,-118.94 987.42,-119.26 989.89,-126.03"/>
<text text-anchor="middle" x="1094.5" y="-156" font-family="Helvetica,sans-Serif" font-size="10.00"> &#45;m_CheckerboardTexture</text>
</g>
<!-- Node10 -->
<g id="node10" class="node">
<title>Node10</title>
<g id="a_node10"><a xlink:title=" ">
<polygon fill="white" stroke="#bfbfbf" points="1183,-215.5 1183,-272.5 1221,-272.5 1221,-215.5 1183,-215.5"/>
<text text-anchor="middle" x="1202" y="-260.5" font-family="Helvetica,sans-Serif" font-size="10.00">bool</text>
<polyline fill="none" stroke="#bfbfbf" points="1183,-253.5 1221,-253.5 "/>
<text text-anchor="middle" x="1202" y="-241.5" font-family="Helvetica,sans-Serif" font-size="10.00"> </text>
<polyline fill="none" stroke="#bfbfbf" points="1183,-234.5 1221,-234.5 "/>
<text text-anchor="middle" x="1202" y="-222.5" font-family="Helvetica,sans-Serif" font-size="10.00"> </text>
</a>
</g>
</g>
<!-- Node10&#45;&gt;Node1 -->
<g id="edge10" class="edge">
<title>Node10&#45;&gt;Node1</title>
<path fill="none" stroke="#404040" d="M1192.66,-215.28C1183.29,-188.98 1168.62,-152.04 1157,-142 1111.38,-102.6 1047.54,-82.75 992.13,-72.79"/>
<polygon fill="none" stroke="#404040" points="991.92,-72.76 985.33,-75.7 980.09,-70.76 986.67,-67.81 991.92,-72.76"/>
<text text-anchor="middle" x="1228" y="-167" font-family="Helvetica,sans-Serif" font-size="10.00"> &#45;m_PrimaryCamera</text>
<text text-anchor="middle" x="1228" y="-156" font-family="Helvetica,sans-Serif" font-size="10.00">&#45;m_ViewportFocused</text>
<text text-anchor="middle" x="1228" y="-145" font-family="Helvetica,sans-Serif" font-size="10.00">&#45;m_ViewportHovered</text>
</g>
<!-- Node11 -->
<g id="node11" class="node">
<title>Node11</title>
<g id="a_node11"><a xlink:title=" ">
<polygon fill="white" stroke="#bfbfbf" points="1261.5,-215.5 1261.5,-272.5 1350.5,-272.5 1350.5,-215.5 1261.5,-215.5"/>
<text text-anchor="middle" x="1306" y="-260.5" font-family="Helvetica,sans-Serif" font-size="10.00">Ref&lt; Shader &gt;</text>
<polyline fill="none" stroke="#bfbfbf" points="1261.5,-253.5 1350.5,-253.5 "/>
<text text-anchor="middle" x="1306" y="-241.5" font-family="Helvetica,sans-Serif" font-size="10.00"> </text>
<polyline fill="none" stroke="#bfbfbf" points="1261.5,-234.5 1350.5,-234.5 "/>
<text text-anchor="middle" x="1306" y="-222.5" font-family="Helvetica,sans-Serif" font-size="10.00"> </text>
</a>
</g>
</g>
<!-- Node11&#45;&gt;Node1 -->
<g id="edge11" class="edge">
<title>Node11&#45;&gt;Node1</title>
<path fill="none" stroke="#404040" d="M1307.71,-215.07C1307.5,-192.25 1303.26,-160.81 1284,-142 1243.27,-102.23 1097.96,-81.49 992.1,-71.43"/>
<polygon fill="none" stroke="#404040" points="991.99,-71.42 985.64,-74.85 980.04,-70.31 986.38,-66.88 991.99,-71.42"/>
<text text-anchor="middle" x="1351" y="-156" font-family="Helvetica,sans-Serif" font-size="10.00"> &#45;m_FlatColorShader</text>
</g>
<!-- Node12 -->
<g id="node12" class="node">
<title>Node12</title>
<g id="a_node12"><a xlink:title=" ">
<polygon fill="white" stroke="#bfbfbf" points="1409,-215.5 1409,-272.5 1449,-272.5 1449,-215.5 1409,-215.5"/>
<text text-anchor="middle" x="1429" y="-260.5" font-family="Helvetica,sans-Serif" font-size="10.00">vec2</text>
<polyline fill="none" stroke="#bfbfbf" points="1409,-253.5 1449,-253.5 "/>
<text text-anchor="middle" x="1429" y="-241.5" font-family="Helvetica,sans-Serif" font-size="10.00"> </text>
<polyline fill="none" stroke="#bfbfbf" points="1409,-234.5 1449,-234.5 "/>
<text text-anchor="middle" x="1429" y="-222.5" font-family="Helvetica,sans-Serif" font-size="10.00"> </text>
</a>
</g>
</g>
<!-- Node12&#45;&gt;Node1 -->
<g id="edge12" class="edge">
<title>Node12&#45;&gt;Node1</title>
<path fill="none" stroke="#404040" d="M1430.32,-215.25C1429.79,-192.24 1425.05,-160.41 1405,-142 1346.46,-88.26 1130.01,-71.06 992.49,-65.57"/>
<polygon fill="none" stroke="#404040" points="992.25,-65.56 986.1,-69.33 980.26,-65.1 986.41,-61.33 992.25,-65.56"/>
<text text-anchor="middle" x="1467" y="-156" font-family="Helvetica,sans-Serif" font-size="10.00"> &#45;m_ViewportSize</text>
</g>
<!-- Node13 -->
<g id="node13" class="node">
<title>Node13</title>
<g id="a_node13"><a xlink:title=" ">
<polygon fill="white" stroke="#bfbfbf" points="1518,-215.5 1518,-272.5 1558,-272.5 1558,-215.5 1518,-215.5"/>
<text text-anchor="middle" x="1538" y="-260.5" font-family="Helvetica,sans-Serif" font-size="10.00">vec4</text>
<polyline fill="none" stroke="#bfbfbf" points="1518,-253.5 1558,-253.5 "/>
<text text-anchor="middle" x="1538" y="-241.5" font-family="Helvetica,sans-Serif" font-size="10.00"> </text>
<polyline fill="none" stroke="#bfbfbf" points="1518,-234.5 1558,-234.5 "/>
<text text-anchor="middle" x="1538" y="-222.5" font-family="Helvetica,sans-Serif" font-size="10.00"> </text>
</a>
</g>
</g>
<!-- Node13&#45;&gt;Node1 -->
<g id="edge13" class="edge">
<title>Node13&#45;&gt;Node1</title>
<path fill="none" stroke="#404040" d="M1539.43,-215.13C1538.98,-192.03 1534.28,-160.15 1514,-142 1475.91,-107.9 1165.9,-82.19 992.09,-70.3"/>
<polygon fill="none" stroke="#404040" points="992.04,-70.29 985.78,-73.88 980.07,-69.48 986.33,-65.9 992.04,-70.29"/>
<text text-anchor="middle" x="1574" y="-156" font-family="Helvetica,sans-Serif" font-size="10.00"> &#45;m_SquareColor</text>
</g>
</g>
</svg>
