<?xml version="1.0" encoding="UTF-8" standalone="no"?>
<!DOCTYPE svg PUBLIC "-//W3C//DTD SVG 1.1//EN"
 "http://www.w3.org/Graphics/SVG/1.1/DTD/svg11.dtd">
<!-- Generated by graphviz version 2.43.0 (0)
 -->
<!-- Title: gauri::EditorLayer Pages: 1 -->
<!--zoomable 419 -->
<svg id="main" version="1.1" xmlns="http://www.w3.org/2000/svg" xmlns:xlink="http://www.w3.org/1999/xlink" xml:space="preserve" onload="init(evt)">
<style type="text/css"><![CDATA[
.edge:hover path { stroke: red; }
.edge:hover polygon { stroke: red; fill: red; }
]]></style>
<script type="text/javascript"><![CDATA[
var edges = document.getElementsByTagName('g');
if (edges && edges.length) {
  for (var i=0;i<edges.length;i++) {
    if (edges[i].id.substr(0,4)=='edge') {
      edges[i].setAttribute('class','edge');
    }
  }
}
]]></script>
        <defs>
                <circle id="rim" cx="0" cy="0" r="7"/>
                <circle id="rim2" cx="0" cy="0" r="3.5"/>
                <g id="zoomPlus">
                        <use xlink:href="#rim" fill="#404040">
                                <set attributeName="fill" to="#808080" begin="zoomplus.mouseover" end="zoomplus.mouseout"/>
                        </use>
                        <path d="M-4,0h8M0,-4v8" fill="none" stroke="white" stroke-width="1.5" pointer-events="none"/>
                </g>
                <g id="zoomMin">
                        <use xlink:href="#rim" fill="#404040">
                                <set attributeName="fill" to="#808080" begin="zoomminus.mouseover" end="zoomminus.mouseout"/>
                        </use>
                        <path d="M-4,0h8" fill="none" stroke="white" stroke-width="1.5" pointer-events="none"/>
                </g>
                <g id="dirArrow">
                        <path fill="none" stroke="white" stroke-width="1.5" d="M0,-3.0v7 M-2.5,-0.5L0,-3.0L2.5,-0.5"/>
                </g>
               <g id="resetDef">
                       <use xlink:href="#rim2" fill="#404040">
                               <set attributeName="fill" to="#808080" begin="reset.mouseover" end="reset.mouseout"/>
                       </use>
               </g>
        </defs>

<script type="text/javascript">
var viewWidth = 1623;
var viewHeight = 419;
var sectionId = 'dynsection-1';
</script>
<script xlink:href="svgpan.js"/>
<svg id="graph" class="graph">
<g id="viewport">
<title>gauri::EditorLayer</title>
<polygon fill="white" stroke="transparent" points="-4,4 -4,-415 1619,-415 1619,4 -4,4"/>
<!-- Node1 -->
<g id="node1" class="node">
<title>Node1</title>
<g id="a_node1"><a xlink:title=" ">
<polygon fill="#bfbfbf" stroke="black" points="770,-0.5 770,-123.5 980,-123.5 980,-0.5 770,-0.5"/>
<text text-anchor="middle" x="875" y="-111.5" font-family="Helvetica,sans-Serif" font-size="10.00">gauri::EditorLayer</text>
<polyline fill="none" stroke="black" points="770,-104.5 980,-104.5 "/>
<text text-anchor="middle" x="875" y="-92.5" font-family="Helvetica,sans-Serif" font-size="10.00"> </text>
<polyline fill="none" stroke="black" points="770,-85.5 980,-85.5 "/>
<text text-anchor="start" x="778" y="-73.5" font-family="Helvetica,sans-Serif" font-size="10.00">+ EditorLayer()</text>
<text text-anchor="start" x="778" y="-62.5" font-family="Helvetica,sans-Serif" font-size="10.00">+ ~EditorLayer() override=default</text>
<text text-anchor="start" x="778" y="-51.5" font-family="Helvetica,sans-Serif" font-size="10.00">+ void OnAttach() override</text>
<text text-anchor="start" x="778" y="-40.5" font-family="Helvetica,sans-Serif" font-size="10.00">+ void OnDetach() override</text>
<text text-anchor="start" x="778" y="-29.5" font-family="Helvetica,sans-Serif" font-size="10.00">+ void OnUpdate(Timestep ts) override</text>
<text text-anchor="start" x="778" y="-18.5" font-family="Helvetica,sans-Serif" font-size="10.00">+ void OnImGuiRender() override</text>
<text text-anchor="start" x="778" y="-7.5" font-family="Helvetica,sans-Serif" font-size="10.00">+ void OnEvent(Event &amp;event) override</text>
</a>
</g>
</g>
<!-- Node2 -->
<g id="node2" class="node">
<title>Node2</title>
<g id="a_node2"><a xlink:title=" ">
<polygon fill="white" stroke="#bfbfbf" points="0,-221 0,-278 74,-278 74,-221 0,-221"/>
<text text-anchor="middle" x="37" y="-266" font-family="Helvetica,sans-Serif" font-size="10.00">gauri::Layer</text>
<polyline fill="none" stroke="#bfbfbf" points="0,-259 74,-259 "/>
<text text-anchor="middle" x="37" y="-247" font-family="Helvetica,sans-Serif" font-size="10.00"> </text>
<polyline fill="none" stroke="#bfbfbf" points="0,-240 74,-240 "/>
<text text-anchor="middle" x="37" y="-228" font-family="Helvetica,sans-Serif" font-size="10.00"> </text>
</a>
</g>
</g>
<!-- Node2&#45;&gt;Node1 -->
<g id="edge1" class="edge">
<title>Node2&#45;&gt;Node1</title>
<path fill="none" stroke="midnightblue" d="M62.65,-213.01C68.81,-205.86 75.73,-198.77 83,-193 122.69,-161.48 136.42,-156.44 185,-142 386.11,-82.24 632.6,-67.22 769.87,-63.73"/>
<polygon fill="none" stroke="midnightblue" points="59.94,-210.8 56.28,-220.75 65.34,-215.25 59.94,-210.8"/>
</g>
<!-- Node3 -->
<g id="node3" class="node">
<title>Node3</title>
<g id="a_node3"><a xlink:title=" ">
<polygon fill="white" stroke="#bfbfbf" points="92.5,-221 92.5,-278 205.5,-278 205.5,-221 92.5,-221"/>
<text text-anchor="middle" x="149" y="-266" font-family="Helvetica,sans-Serif" font-size="10.00">Ref&lt; VertexArray &gt;</text>
<polyline fill="none" stroke="#bfbfbf" points="92.5,-259 205.5,-259 "/>
<text text-anchor="middle" x="149" y="-247" font-family="Helvetica,sans-Serif" font-size="10.00"> </text>
<polyline fill="none" stroke="#bfbfbf" points="92.5,-240 205.5,-240 "/>
<text text-anchor="middle" x="149" y="-228" font-family="Helvetica,sans-Serif" font-size="10.00"> </text>
</a>
</g>
</g>
<!-- Node3&#45;&gt;Node1 -->
<g id="edge2" class="edge">
<title>Node3&#45;&gt;Node1</title>
<path fill="none" stroke="#404040" d="M160.03,-220.74C171.53,-195.71 192.1,-160.13 222,-142 309.52,-88.92 594.67,-71.44 757.75,-65.73"/>
<polygon fill="none" stroke="#404040" points="757.76,-65.73 763.63,-61.53 769.76,-65.33 763.9,-69.53 757.76,-65.73"/>
<text text-anchor="middle" x="256.5" y="-156" font-family="Helvetica,sans-Serif" font-size="10.00"> &#45;m_SquareVA</text>
</g>
<!-- Node4 -->
<g id="node4" class="node">
<title>Node4</title>
<g id="a_node4"><a xlink:title=" ">
<polygon fill="white" stroke="#bfbfbf" points="224,-221 224,-278 390,-278 390,-221 224,-221"/>
<text text-anchor="middle" x="307" y="-266" font-family="Helvetica,sans-Serif" font-size="10.00">OrthographicCameraController</text>
<polyline fill="none" stroke="#bfbfbf" points="224,-259 390,-259 "/>
<text text-anchor="middle" x="307" y="-247" font-family="Helvetica,sans-Serif" font-size="10.00"> </text>
<polyline fill="none" stroke="#bfbfbf" points="224,-240 390,-240 "/>
<text text-anchor="middle" x="307" y="-228" font-family="Helvetica,sans-Serif" font-size="10.00"> </text>
</a>
</g>
</g>
<!-- Node4&#45;&gt;Node1 -->
<g id="edge3" class="edge">
<title>Node4&#45;&gt;Node1</title>
<path fill="none" stroke="#404040" d="M297.86,-220.55C292.01,-196.77 288.55,-163.2 307,-142 336.13,-108.54 600.02,-83.38 757.66,-71.18"/>
<polygon fill="none" stroke="#404040" points="757.79,-71.17 763.47,-66.72 769.76,-70.25 764.08,-74.7 757.79,-71.17"/>
<text text-anchor="middle" x="361.5" y="-156" font-family="Helvetica,sans-Serif" font-size="10.00"> &#45;m_CameraController</text>
</g>
<!-- Node5 -->
<g id="node5" class="node">
<title>Node5</title>
<g id="a_node5"><a xlink:title=" ">
<polygon fill="white" stroke="#bfbfbf" points="474.5,-353.5 474.5,-410.5 519.5,-410.5 519.5,-353.5 474.5,-353.5"/>
<text text-anchor="middle" x="497" y="-398.5" font-family="Helvetica,sans-Serif" font-size="10.00">Entity</text>
<polyline fill="none" stroke="#bfbfbf" points="474.5,-391.5 519.5,-391.5 "/>
<text text-anchor="middle" x="497" y="-379.5" font-family="Helvetica,sans-Serif" font-size="10.00"> </text>
<polyline fill="none" stroke="#bfbfbf" points="474.5,-372.5 519.5,-372.5 "/>
<text text-anchor="middle" x="497" y="-360.5" font-family="Helvetica,sans-Serif" font-size="10.00"> </text>
</a>
</g>
</g>
<!-- Node5&#45;&gt;Node1 -->
<g id="edge4" class="edge">
<title>Node5&#45;&gt;Node1</title>
<path fill="none" stroke="#404040" d="M474.45,-360.81C460.73,-346.94 444.45,-327.24 437,-306 420.38,-258.61 406.96,-233.25 437,-193 475.55,-141.35 641.64,-102.89 757.82,-81.69"/>
<polygon fill="none" stroke="#404040" points="758.15,-81.63 763.35,-76.63 769.96,-79.5 764.76,-84.5 758.15,-81.63"/>
<text text-anchor="middle" x="483.5" y="-258" font-family="Helvetica,sans-Serif" font-size="10.00"> &#45;m_CameraEntity</text>
<text text-anchor="middle" x="483.5" y="-247" font-family="Helvetica,sans-Serif" font-size="10.00">&#45;m_SecondCamera</text>
<text text-anchor="middle" x="483.5" y="-236" font-family="Helvetica,sans-Serif" font-size="10.00">&#45;m_SquareEntity</text>
</g>
<!-- Node7 -->
<g id="node7" class="node">
<title>Node7</title>
<g id="a_node7"><a xlink:href="classgauri_1_1SceneHierarchyPanel.html" target="_top" xlink:title=" ">
<polygon fill="white" stroke="black" points="539,-193.5 539,-305.5 789,-305.5 789,-193.5 539,-193.5"/>
<text text-anchor="middle" x="664" y="-293.5" font-family="Helvetica,sans-Serif" font-size="10.00">gauri::SceneHierarchyPanel</text>
<polyline fill="none" stroke="black" points="539,-286.5 789,-286.5 "/>
<text text-anchor="middle" x="664" y="-274.5" font-family="Helvetica,sans-Serif" font-size="10.00"> </text>
<polyline fill="none" stroke="black" points="539,-267.5 789,-267.5 "/>
<text text-anchor="start" x="547" y="-255.5" font-family="Helvetica,sans-Serif" font-size="10.00">+ SceneHierarchyPanel()=default</text>
<text text-anchor="start" x="547" y="-244.5" font-family="Helvetica,sans-Serif" font-size="10.00">+ SceneHierarchyPanel(Ref&lt; Scene &gt; &amp;scene)</text>
<text text-anchor="start" x="547" y="-233.5" font-family="Helvetica,sans-Serif" font-size="10.00">+ void SetContext(const Ref&lt; Scene &gt; &amp;scene)</text>
<text text-anchor="start" x="547" y="-222.5" font-family="Helvetica,sans-Serif" font-size="10.00">+ void OnImGuiRender()</text>
<text text-anchor="start" x="547" y="-211.5" font-family="Helvetica,sans-Serif" font-size="10.00">&#45; void DrawEntityNode(Entity entity)</text>
<text text-anchor="start" x="547" y="-200.5" font-family="Helvetica,sans-Serif" font-size="10.00">&#45; void DrawComponents(Entity entity)</text>
</a>
</g>
</g>
<!-- Node5&#45;&gt;Node7 -->
<g id="edge7" class="edge">
<title>Node5&#45;&gt;Node7</title>
<path fill="none" stroke="#404040" d="M519.52,-363.4C536.27,-350.31 560.21,-331.61 583.8,-313.17"/>
<polygon fill="none" stroke="#404040" points="584.05,-312.98 586.32,-306.13 593.51,-305.59 591.24,-312.43 584.05,-312.98"/>
<text text-anchor="middle" x="618" y="-327" font-family="Helvetica,sans-Serif" font-size="10.00"> &#45;m_SelectionContext</text>
</g>
<!-- Node6 -->
<g id="node6" class="node">
<title>Node6</title>
<g id="a_node6"><a xlink:title=" ">
<polygon fill="white" stroke="#bfbfbf" points="925,-221 925,-278 1041,-278 1041,-221 925,-221"/>
<text text-anchor="middle" x="983" y="-266" font-family="Helvetica,sans-Serif" font-size="10.00">Ref&lt; FrameBuffer &gt;</text>
<polyline fill="none" stroke="#bfbfbf" points="925,-259 1041,-259 "/>
<text text-anchor="middle" x="983" y="-247" font-family="Helvetica,sans-Serif" font-size="10.00"> </text>
<polyline fill="none" stroke="#bfbfbf" points="925,-240 1041,-240 "/>
<text text-anchor="middle" x="983" y="-228" font-family="Helvetica,sans-Serif" font-size="10.00"> </text>
</a>
</g>
</g>
<!-- Node6&#45;&gt;Node1 -->
<g id="edge5" class="edge">
<title>Node6&#45;&gt;Node1</title>
<path fill="none" stroke="#404040" d="M959.7,-220.89C949.01,-207.52 936.61,-190.93 927,-175 919.31,-162.25 911.97,-148.18 905.35,-134.44"/>
<polygon fill="none" stroke="#404040" points="905.32,-134.38 899.14,-130.66 900.2,-123.53 906.38,-127.25 905.32,-134.38"/>
<text text-anchor="middle" x="968" y="-156" font-family="Helvetica,sans-Serif" font-size="10.00"> &#45;m_FrameBuffer</text>
</g>
<!-- Node7&#45;&gt;Node1 -->
<g id="edge6" class="edge">
<title>Node7&#45;&gt;Node1</title>
<path fill="none" stroke="#404040" d="M665.3,-193.46C668.19,-175.43 674.17,-156.35 686,-142 704.79,-119.21 731.28,-102.89 758.49,-91.24"/>
<polygon fill="none" stroke="#404040" points="758.64,-91.18 762.71,-85.23 769.77,-86.69 765.7,-92.64 758.64,-91.18"/>
<text text-anchor="middle" x="748.5" y="-156" font-family="Helvetica,sans-Serif" font-size="10.00"> &#45;m_SceneHierarchyPanel</text>
</g>
<!-- Node8 -->
<g id="node8" class="node">
<title>Node8</title>
<g id="a_node8"><a xlink:title=" ">
<polygon fill="white" stroke="#bfbfbf" points="722.5,-353.5 722.5,-410.5 807.5,-410.5 807.5,-353.5 722.5,-353.5"/>
<text text-anchor="middle" x="765" y="-398.5" font-family="Helvetica,sans-Serif" font-size="10.00">Ref&lt; Scene &gt;</text>
<polyline fill="none" stroke="#bfbfbf" points="722.5,-391.5 807.5,-391.5 "/>
<text text-anchor="middle" x="765" y="-379.5" font-family="Helvetica,sans-Serif" font-size="10.00"> </text>
<polyline fill="none" stroke="#bfbfbf" points="722.5,-372.5 807.5,-372.5 "/>
<text text-anchor="middle" x="765" y="-360.5" font-family="Helvetica,sans-Serif" font-size="10.00"> </text>
</a>
</g>
</g>
<!-- Node8&#45;&gt;Node1 -->
<g id="edge14" class="edge">
<title>Node8&#45;&gt;Node1</title>
<path fill="none" stroke="#404040" d="M781.96,-353.28C785.21,-347.37 788.4,-341.07 791,-335 816.94,-274.37 814.53,-256 834,-193 839.79,-174.28 846.12,-154.06 852.04,-135.28"/>
<polygon fill="none" stroke="#404040" points="852.05,-135.24 850.05,-128.32 855.67,-123.8 857.67,-130.73 852.05,-135.24"/>
<text text-anchor="middle" x="875" y="-247" font-family="Helvetica,sans-Serif" font-size="10.00"> &#45;m_ActiveScene</text>
</g>
<!-- Node8&#45;&gt;Node7 -->
<g id="edge8" class="edge">
<title>Node8&#45;&gt;Node7</title>
<path fill="none" stroke="#404040" d="M743.58,-353.32C734.91,-342.13 724.51,-328.69 714.13,-315.28"/>
<polygon fill="none" stroke="#404040" points="713.95,-315.04 707.11,-312.74 706.6,-305.55 713.44,-307.84 713.95,-315.04"/>
<text text-anchor="middle" x="756.5" y="-327" font-family="Helvetica,sans-Serif" font-size="10.00"> &#45;m_Context</text>
</g>
<!-- Node9 -->
<g id="node9" class="node">
<title>Node9</title>
<g id="a_node9"><a xlink:title=" ">
<polygon fill="white" stroke="#bfbfbf" points="1059.5,-221 1059.5,-278 1164.5,-278 1164.5,-221 1059.5,-221"/>
<text text-anchor="middle" x="1112" y="-266" font-family="Helvetica,sans-Serif" font-size="10.00">Ref&lt; Texture2D &gt;</text>
<polyline fill="none" stroke="#bfbfbf" points="1059.5,-259 1164.5,-259 "/>
<text text-anchor="middle" x="1112" y="-247" font-family="Helvetica,sans-Serif" font-size="10.00"> </text>
<polyline fill="none" stroke="#bfbfbf" points="1059.5,-240 1164.5,-240 "/>
<text text-anchor="middle" x="1112" y="-228" font-family="Helvetica,sans-Serif" font-size="10.00"> </text>
</a>
</g>
</g>
<!-- Node9&#45;&gt;Node1 -->
<g id="edge9" class="edge">
<title>Node9&#45;&gt;Node1</title>
<path fill="none" stroke="#404040" d="M1080.48,-220.82C1061.84,-204.21 1040.32,-184.52 1032,-175 1020.24,-161.54 1022.11,-154.15 1009,-142 1003.08,-136.51 996.71,-131.23 990.08,-126.18"/>
<polygon fill="none" stroke="#404040" points="989.89,-126.03 982.69,-125.71 980.21,-118.94 987.42,-119.26 989.89,-126.03"/>
<text text-anchor="middle" x="1094.5" y="-156" font-family="Helvetica,sans-Serif" font-size="10.00"> &#45;m_CheckerboardTexture</text>
</g>
<!-- Node10 -->
<g id="node10" class="node">
<title>Node10</title>
<g id="a_node10"><a xlink:title=" ">
<polygon fill="white" stroke="#bfbfbf" points="1183,-221 1183,-278 1221,-278 1221,-221 1183,-221"/>
<text text-anchor="middle" x="1202" y="-266" font-family="Helvetica,sans-Serif" font-size="10.00">bool</text>
<polyline fill="none" stroke="#bfbfbf" points="1183,-259 1221,-259 "/>
<text text-anchor="middle" x="1202" y="-247" font-family="Helvetica,sans-Serif" font-size="10.00"> </text>
<polyline fill="none" stroke="#bfbfbf" points="1183,-240 1221,-240 "/>
<text text-anchor="middle" x="1202" y="-228" font-family="Helvetica,sans-Serif" font-size="10.00"> </text>
</a>
</g>
</g>
<!-- Node10&#45;&gt;Node1 -->
<g id="edge10" class="edge">
<title>Node10&#45;&gt;Node1</title>
<path fill="none" stroke="#404040" d="M1193.36,-220.83C1184.16,-193.03 1169.28,-152.81 1157,-142 1111.68,-102.08 1047.7,-82.2 992.14,-72.35"/>
<polygon fill="none" stroke="#404040" points="991.89,-72.31 985.32,-75.28 980.06,-70.35 986.63,-67.38 991.89,-72.31"/>
<text text-anchor="middle" x="1227" y="-167" font-family="Helvetica,sans-Serif" font-size="10.00"> &#45;m_PrimaryCamera</text>
<text text-anchor="middle" x="1227" y="-156" font-family="Helvetica,sans-Serif" font-size="10.00">&#45;m_ViewportFocused</text>
<text text-anchor="middle" x="1227" y="-145" font-family="Helvetica,sans-Serif" font-size="10.00">&#45;m_ViewportHovered</text>
</g>
<!-- Node11 -->
<g id="node11" class="node">
<title>Node11</title>
<g id="a_node11"><a xlink:title=" ">
<polygon fill="white" stroke="#bfbfbf" points="1261.5,-221 1261.5,-278 1350.5,-278 1350.5,-221 1261.5,-221"/>
<text text-anchor="middle" x="1306" y="-266" font-family="Helvetica,sans-Serif" font-size="10.00">Ref&lt; Shader &gt;</text>
<polyline fill="none" stroke="#bfbfbf" points="1261.5,-259 1350.5,-259 "/>
<text text-anchor="middle" x="1306" y="-247" font-family="Helvetica,sans-Serif" font-size="10.00"> </text>
<polyline fill="none" stroke="#bfbfbf" points="1261.5,-240 1350.5,-240 "/>
<text text-anchor="middle" x="1306" y="-228" font-family="Helvetica,sans-Serif" font-size="10.00"> </text>
</a>
</g>
</g>
<!-- Node11&#45;&gt;Node1 -->
<g id="edge11" class="edge">
<title>Node11&#45;&gt;Node1</title>
<path fill="none" stroke="#404040" d="M1307.87,-220.96C1307.91,-196.78 1303.82,-162.38 1283,-142 1242.48,-102.33 1097.89,-81.6 992.31,-71.49"/>
<polygon fill="none" stroke="#404040" points="992.24,-71.49 985.89,-74.91 980.29,-70.37 986.63,-66.95 992.24,-71.49"/>
<text text-anchor="middle" x="1351" y="-156" font-family="Helvetica,sans-Serif" font-size="10.00"> &#45;m_FlatColorShader</text>
</g>
<!-- Node12 -->
<g id="node12" class="node">
<title>Node12</title>
<g id="a_node12"><a xlink:title=" ">
<polygon fill="white" stroke="#bfbfbf" points="1409,-221 1409,-278 1449,-278 1449,-221 1409,-221"/>
<text text-anchor="middle" x="1429" y="-266" font-family="Helvetica,sans-Serif" font-size="10.00">vec2</text>
<polyline fill="none" stroke="#bfbfbf" points="1409,-259 1449,-259 "/>
<text text-anchor="middle" x="1429" y="-247" font-family="Helvetica,sans-Serif" font-size="10.00"> </text>
<polyline fill="none" stroke="#bfbfbf" points="1409,-240 1449,-240 "/>
<text text-anchor="middle" x="1429" y="-228" font-family="Helvetica,sans-Serif" font-size="10.00"> </text>
</a>
</g>
</g>
<!-- Node12&#45;&gt;Node1 -->
<g id="edge12" class="edge">
<title>Node12&#45;&gt;Node1</title>
<path fill="none" stroke="#404040" d="M1430.79,-220.71C1430.73,-196.37 1426.39,-161.86 1405,-142 1346.73,-87.88 1129.91,-70.81 992.3,-65.44"/>
<polygon fill="none" stroke="#404040" points="992.05,-65.43 985.91,-69.21 980.06,-64.99 986.21,-61.21 992.05,-65.43"/>
<text text-anchor="middle" x="1467" y="-156" font-family="Helvetica,sans-Serif" font-size="10.00"> &#45;m_ViewportSize</text>
</g>
<!-- Node13 -->
<g id="node13" class="node">
<title>Node13</title>
<g id="a_node13"><a xlink:title=" ">
<polygon fill="white" stroke="#bfbfbf" points="1518,-221 1518,-278 1558,-278 1558,-221 1518,-221"/>
<text text-anchor="middle" x="1538" y="-266" font-family="Helvetica,sans-Serif" font-size="10.00">vec4</text>
<polyline fill="none" stroke="#bfbfbf" points="1518,-259 1558,-259 "/>
<text text-anchor="middle" x="1538" y="-247" font-family="Helvetica,sans-Serif" font-size="10.00"> </text>
<polyline fill="none" stroke="#bfbfbf" points="1518,-240 1558,-240 "/>
<text text-anchor="middle" x="1538" y="-228" font-family="Helvetica,sans-Serif" font-size="10.00"> </text>
</a>
</g>
</g>
<!-- Node13&#45;&gt;Node1 -->
<g id="edge13" class="edge">
<title>Node13&#45;&gt;Node1</title>
<path fill="none" stroke="#404040" d="M1539.91,-220.58C1539.92,-196.16 1535.63,-161.6 1514,-142 1476.11,-107.67 1166.02,-82.06 992.13,-70.24"/>
<polygon fill="none" stroke="#404040" points="992.09,-70.24 985.83,-73.83 980.11,-69.43 986.37,-65.84 992.09,-70.24"/>
<text text-anchor="middle" x="1574" y="-156" font-family="Helvetica,sans-Serif" font-size="10.00"> &#45;m_SquareColor</text>
</g>
</g>
</svg>
        <g id="navigator" transform="translate(0 0)" fill="#404254">
                <rect fill="#f2f5e9" fill-opacity="0.5" stroke="#606060" stroke-width=".5" x="0" y="0" width="60" height="60"/>
                <use id="zoomplus" xlink:href="#zoomPlus" x="17" y="9" onmousedown="handleZoom(evt,'in')"/>
                <use id="zoomminus" xlink:href="#zoomMin" x="42" y="9" onmousedown="handleZoom(evt,'out')"/>
                <use id="reset" xlink:href="#resetDef" x="30" y="36" onmousedown="handleReset()"/>
                <g id="arrowUp" xlink:href="#dirArrow" transform="translate(30 24)" onmousedown="handlePan(0,-1)">
                  <use xlink:href="#rim" fill="#404040">
                        <set attributeName="fill" to="#808080" begin="arrowUp.mouseover" end="arrowUp.mouseout"/>
                  </use>
                  <path fill="none" stroke="white" stroke-width="1.5" d="M0,-3.0v7 M-2.5,-0.5L0,-3.0L2.5,-0.5"/>
                </g>
                <g id="arrowRight" xlink:href="#dirArrow" transform="rotate(90) translate(36 -43)" onmousedown="handlePan(1,0)">
                  <use xlink:href="#rim" fill="#404040">
                        <set attributeName="fill" to="#808080" begin="arrowRight.mouseover" end="arrowRight.mouseout"/>
                  </use>
                  <path fill="none" stroke="white" stroke-width="1.5" d="M0,-3.0v7 M-2.5,-0.5L0,-3.0L2.5,-0.5"/>
                </g>
                <g id="arrowDown" xlink:href="#dirArrow" transform="rotate(180) translate(-30 -48)" onmousedown="handlePan(0,1)">
                  <use xlink:href="#rim" fill="#404040">
                        <set attributeName="fill" to="#808080" begin="arrowDown.mouseover" end="arrowDown.mouseout"/>
                  </use>
                  <path fill="none" stroke="white" stroke-width="1.5" d="M0,-3.0v7 M-2.5,-0.5L0,-3.0L2.5,-0.5"/>
                </g>
                <g id="arrowLeft" xlink:href="#dirArrow" transform="rotate(270) translate(-36 17)" onmousedown="handlePan(-1,0)">
                  <use xlink:href="#rim" fill="#404040">
                        <set attributeName="fill" to="#808080" begin="arrowLeft.mouseover" end="arrowLeft.mouseout"/>
                  </use>
                  <path fill="none" stroke="white" stroke-width="1.5" d="M0,-3.0v7 M-2.5,-0.5L0,-3.0L2.5,-0.5"/>
                </g>
        </g>
        <svg viewBox="0 0 15 15" width="100%" height="30px" preserveAspectRatio="xMaxYMin meet">
         <g id="arrow_out" transform="scale(0.3 0.3)">
          <a xlink:href="classgauri_1_1EditorLayer__coll__graph_org.svg" target="_base">
           <rect id="button" ry="5" rx="5" y="6" x="6" height="38" width="38"
                fill="#f2f5e9" fill-opacity="0.5" stroke="#606060" stroke-width="1.0"/>
           <path id="arrow"
             d="M 11.500037,31.436501 C 11.940474,20.09759 22.043105,11.32322 32.158766,21.979434 L 37.068811,17.246167 C 37.068811,17.246167 37.088388,32 37.088388,32 L 22.160133,31.978069 C 22.160133,31.978069 26.997745,27.140456 26.997745,27.140456 C 18.528582,18.264221 13.291696,25.230495 11.500037,31.436501 z"
             style="fill:#404040;"/>
          </a>
         </g>
        </svg>
</svg>
