<?xml version="1.0" encoding="UTF-8" standalone="no"?>
<!DOCTYPE svg PUBLIC "-//W3C//DTD SVG 1.1//EN"
 "http://www.w3.org/Graphics/SVG/1.1/DTD/svg11.dtd">
<!-- Generated by graphviz version 2.43.0 (0)
 -->
<!-- Title: gauri::EditorLayer Pages: 1 -->
<svg width="1720pt" height="474pt"
 viewBox="0.00 0.00 1720.00 474.00" xmlns="http://www.w3.org/2000/svg" xmlns:xlink="http://www.w3.org/1999/xlink">
<g id="graph0" class="graph" transform="scale(1 1) rotate(0) translate(4 470)">
<title>gauri::EditorLayer</title>
<polygon fill="white" stroke="transparent" points="-4,4 -4,-470 1716,-470 1716,4 -4,4"/>
<!-- Node1 -->
<g id="node1" class="node">
<title>Node1</title>
<g id="a_node1"><a xlink:title=" ">
<polygon fill="#bfbfbf" stroke="black" points="807.5,-0.5 807.5,-167.5 1032.5,-167.5 1032.5,-0.5 807.5,-0.5"/>
<text text-anchor="middle" x="920" y="-155.5" font-family="Helvetica,sans-Serif" font-size="10.00">gauri::EditorLayer</text>
<polyline fill="none" stroke="black" points="807.5,-148.5 1032.5,-148.5 "/>
<text text-anchor="middle" x="920" y="-136.5" font-family="Helvetica,sans-Serif" font-size="10.00"> </text>
<polyline fill="none" stroke="black" points="807.5,-129.5 1032.5,-129.5 "/>
<text text-anchor="start" x="815.5" y="-117.5" font-family="Helvetica,sans-Serif" font-size="10.00">+ EditorLayer()</text>
<text text-anchor="start" x="815.5" y="-106.5" font-family="Helvetica,sans-Serif" font-size="10.00">+ ~EditorLayer() override=default</text>
<text text-anchor="start" x="815.5" y="-95.5" font-family="Helvetica,sans-Serif" font-size="10.00">+ void OnAttach() override</text>
<text text-anchor="start" x="815.5" y="-84.5" font-family="Helvetica,sans-Serif" font-size="10.00">+ void OnDetach() override</text>
<text text-anchor="start" x="815.5" y="-73.5" font-family="Helvetica,sans-Serif" font-size="10.00">+ void OnUpdate(Timestep ts) override</text>
<text text-anchor="start" x="815.5" y="-62.5" font-family="Helvetica,sans-Serif" font-size="10.00">+ void OnImGuiRender() override</text>
<text text-anchor="start" x="815.5" y="-51.5" font-family="Helvetica,sans-Serif" font-size="10.00">+ void OnEvent(Event &amp;event) override</text>
<text text-anchor="start" x="815.5" y="-40.5" font-family="Helvetica,sans-Serif" font-size="10.00">&#45; bool OnKeyPressed(KeyPressedEvent &amp;e)</text>
<text text-anchor="start" x="815.5" y="-29.5" font-family="Helvetica,sans-Serif" font-size="10.00">&#45; void NewScene()</text>
<text text-anchor="start" x="815.5" y="-18.5" font-family="Helvetica,sans-Serif" font-size="10.00">&#45; void OpenScene()</text>
<text text-anchor="start" x="815.5" y="-7.5" font-family="Helvetica,sans-Serif" font-size="10.00">&#45; void SaveSceneAs()</text>
</a>
</g>
</g>
<!-- Node2 -->
<g id="node2" class="node">
<title>Node2</title>
<g id="a_node2"><a xlink:title=" ">
<polygon fill="white" stroke="#bfbfbf" points="0,-270.5 0,-327.5 74,-327.5 74,-270.5 0,-270.5"/>
<text text-anchor="middle" x="37" y="-315.5" font-family="Helvetica,sans-Serif" font-size="10.00">gauri::Layer</text>
<polyline fill="none" stroke="#bfbfbf" points="0,-308.5 74,-308.5 "/>
<text text-anchor="middle" x="37" y="-296.5" font-family="Helvetica,sans-Serif" font-size="10.00"> </text>
<polyline fill="none" stroke="#bfbfbf" points="0,-289.5 74,-289.5 "/>
<text text-anchor="middle" x="37" y="-277.5" font-family="Helvetica,sans-Serif" font-size="10.00"> </text>
</a>
</g>
</g>
<!-- Node2&#45;&gt;Node1 -->
<g id="edge1" class="edge">
<title>Node2&#45;&gt;Node1</title>
<path fill="none" stroke="midnightblue" d="M59.76,-262.14C66.52,-253.22 74.43,-244.16 83,-237 121.59,-204.75 135.99,-200.96 184,-186 398.11,-119.3 660.9,-96.61 807.47,-88.92"/>
<polygon fill="none" stroke="midnightblue" points="56.93,-260.09 53.9,-270.24 62.6,-264.19 56.93,-260.09"/>
</g>
<!-- Node3 -->
<g id="node3" class="node">
<title>Node3</title>
<g id="a_node3"><a xlink:title=" ">
<polygon fill="white" stroke="#bfbfbf" points="92.5,-270.5 92.5,-327.5 205.5,-327.5 205.5,-270.5 92.5,-270.5"/>
<text text-anchor="middle" x="149" y="-315.5" font-family="Helvetica,sans-Serif" font-size="10.00">Ref&lt; VertexArray &gt;</text>
<polyline fill="none" stroke="#bfbfbf" points="92.5,-308.5 205.5,-308.5 "/>
<text text-anchor="middle" x="149" y="-296.5" font-family="Helvetica,sans-Serif" font-size="10.00"> </text>
<polyline fill="none" stroke="#bfbfbf" points="92.5,-289.5 205.5,-289.5 "/>
<text text-anchor="middle" x="149" y="-277.5" font-family="Helvetica,sans-Serif" font-size="10.00"> </text>
</a>
</g>
</g>
<!-- Node3&#45;&gt;Node1 -->
<g id="edge2" class="edge">
<title>Node3&#45;&gt;Node1</title>
<path fill="none" stroke="#404040" d="M159.07,-270.01C170.05,-243.79 190.28,-205.75 221,-186 313.64,-126.43 620.51,-100.73 795.3,-90.7"/>
<polygon fill="none" stroke="#404040" points="795.41,-90.69 801.17,-86.36 807.39,-90.01 801.62,-94.35 795.41,-90.69"/>
<text text-anchor="middle" x="255.5" y="-200" font-family="Helvetica,sans-Serif" font-size="10.00"> &#45;m_SquareVA</text>
</g>
<!-- Node4 -->
<g id="node4" class="node">
<title>Node4</title>
<g id="a_node4"><a xlink:title=" ">
<polygon fill="white" stroke="#bfbfbf" points="224,-270.5 224,-327.5 390,-327.5 390,-270.5 224,-270.5"/>
<text text-anchor="middle" x="307" y="-315.5" font-family="Helvetica,sans-Serif" font-size="10.00">OrthographicCameraController</text>
<polyline fill="none" stroke="#bfbfbf" points="224,-308.5 390,-308.5 "/>
<text text-anchor="middle" x="307" y="-296.5" font-family="Helvetica,sans-Serif" font-size="10.00"> </text>
<polyline fill="none" stroke="#bfbfbf" points="224,-289.5 390,-289.5 "/>
<text text-anchor="middle" x="307" y="-277.5" font-family="Helvetica,sans-Serif" font-size="10.00"> </text>
</a>
</g>
</g>
<!-- Node4&#45;&gt;Node1 -->
<g id="edge3" class="edge">
<title>Node4&#45;&gt;Node1</title>
<path fill="none" stroke="#404040" d="M297.89,-270.19C291.61,-245.19 287.5,-208.98 307,-186 368.3,-113.77 634.14,-93.11 794.92,-87.26"/>
<polygon fill="none" stroke="#404040" points="795.28,-87.24 801.13,-83.04 807.27,-86.83 801.41,-91.03 795.28,-87.24"/>
<text text-anchor="middle" x="361.5" y="-200" font-family="Helvetica,sans-Serif" font-size="10.00"> &#45;m_CameraController</text>
</g>
<!-- Node5 -->
<g id="node5" class="node">
<title>Node5</title>
<g id="a_node5"><a xlink:title=" ">
<polygon fill="white" stroke="#bfbfbf" points="474.5,-408.5 474.5,-465.5 519.5,-465.5 519.5,-408.5 474.5,-408.5"/>
<text text-anchor="middle" x="497" y="-453.5" font-family="Helvetica,sans-Serif" font-size="10.00">Entity</text>
<polyline fill="none" stroke="#bfbfbf" points="474.5,-446.5 519.5,-446.5 "/>
<text text-anchor="middle" x="497" y="-434.5" font-family="Helvetica,sans-Serif" font-size="10.00"> </text>
<polyline fill="none" stroke="#bfbfbf" points="474.5,-427.5 519.5,-427.5 "/>
<text text-anchor="middle" x="497" y="-415.5" font-family="Helvetica,sans-Serif" font-size="10.00"> </text>
</a>
</g>
</g>
<!-- Node5&#45;&gt;Node1 -->
<g id="edge4" class="edge">
<title>Node5&#45;&gt;Node1</title>
<path fill="none" stroke="#404040" d="M474.45,-415.81C460.73,-401.94 444.45,-382.24 437,-361 418.76,-309 404.4,-281.44 437,-237 479.8,-178.66 667.26,-132.5 795.65,-106.98"/>
<polygon fill="none" stroke="#404040" points="795.72,-106.96 800.84,-101.88 807.5,-104.65 802.38,-109.73 795.72,-106.96"/>
<text text-anchor="middle" x="483.5" y="-307.5" font-family="Helvetica,sans-Serif" font-size="10.00"> &#45;m_CameraEntity</text>
<text text-anchor="middle" x="483.5" y="-296.5" font-family="Helvetica,sans-Serif" font-size="10.00">&#45;m_SecondCamera</text>
<text text-anchor="middle" x="483.5" y="-285.5" font-family="Helvetica,sans-Serif" font-size="10.00">&#45;m_SquareEntity</text>
</g>
<!-- Node7 -->
<g id="node7" class="node">
<title>Node7</title>
<g id="a_node7"><a xlink:href="classgauri_1_1SceneHierarchyPanel.html" target="_top" xlink:title=" ">
<polygon fill="white" stroke="black" points="539,-237.5 539,-360.5 789,-360.5 789,-237.5 539,-237.5"/>
<text text-anchor="middle" x="664" y="-348.5" font-family="Helvetica,sans-Serif" font-size="10.00">gauri::SceneHierarchyPanel</text>
<polyline fill="none" stroke="black" points="539,-341.5 789,-341.5 "/>
<text text-anchor="middle" x="664" y="-329.5" font-family="Helvetica,sans-Serif" font-size="10.00"> </text>
<polyline fill="none" stroke="black" points="539,-322.5 789,-322.5 "/>
<text text-anchor="start" x="547" y="-310.5" font-family="Helvetica,sans-Serif" font-size="10.00">+ SceneHierarchyPanel()=default</text>
<text text-anchor="start" x="547" y="-299.5" font-family="Helvetica,sans-Serif" font-size="10.00">+ SceneHierarchyPanel(Ref&lt; Scene &gt; &amp;scene)</text>
<text text-anchor="start" x="547" y="-288.5" font-family="Helvetica,sans-Serif" font-size="10.00">+ void SetContext(const Ref&lt; Scene &gt; &amp;scene)</text>
<text text-anchor="start" x="547" y="-277.5" font-family="Helvetica,sans-Serif" font-size="10.00">+ void OnImGuiRender()</text>
<text text-anchor="start" x="547" y="-266.5" font-family="Helvetica,sans-Serif" font-size="10.00">+ Entity GetSelectedEntity() const</text>
<text text-anchor="start" x="547" y="-255.5" font-family="Helvetica,sans-Serif" font-size="10.00">&#45; void DrawEntityNode(Entity entity)</text>
<text text-anchor="start" x="547" y="-244.5" font-family="Helvetica,sans-Serif" font-size="10.00">&#45; void DrawComponents(Entity entity)</text>
</a>
</g>
</g>
<!-- Node5&#45;&gt;Node7 -->
<g id="edge7" class="edge">
<title>Node5&#45;&gt;Node7</title>
<path fill="none" stroke="#404040" d="M519.52,-417.66C535.34,-404.78 557.57,-386.68 579.86,-368.52"/>
<polygon fill="none" stroke="#404040" points="580.09,-368.33 582.22,-361.44 589.4,-360.75 587.27,-367.65 580.09,-368.33"/>
<text text-anchor="middle" x="618" y="-382" font-family="Helvetica,sans-Serif" font-size="10.00"> &#45;m_SelectionContext</text>
</g>
<!-- Node6 -->
<g id="node6" class="node">
<title>Node6</title>
<g id="a_node6"><a xlink:title=" ">
<polygon fill="white" stroke="#bfbfbf" points="925,-270.5 925,-327.5 1041,-327.5 1041,-270.5 925,-270.5"/>
<text text-anchor="middle" x="983" y="-315.5" font-family="Helvetica,sans-Serif" font-size="10.00">Ref&lt; FrameBuffer &gt;</text>
<polyline fill="none" stroke="#bfbfbf" points="925,-308.5 1041,-308.5 "/>
<text text-anchor="middle" x="983" y="-296.5" font-family="Helvetica,sans-Serif" font-size="10.00"> </text>
<polyline fill="none" stroke="#bfbfbf" points="925,-289.5 1041,-289.5 "/>
<text text-anchor="middle" x="983" y="-277.5" font-family="Helvetica,sans-Serif" font-size="10.00"> </text>
</a>
</g>
</g>
<!-- Node6&#45;&gt;Node1 -->
<g id="edge5" class="edge">
<title>Node6&#45;&gt;Node1</title>
<path fill="none" stroke="#404040" d="M953.97,-270.45C941.26,-256.41 927.73,-238.26 921,-219 916.68,-206.64 914.21,-193.24 912.98,-179.86"/>
<polygon fill="none" stroke="#404040" points="912.97,-179.57 908.59,-173.84 912.19,-167.6 916.57,-173.33 912.97,-179.57"/>
<text text-anchor="middle" x="962" y="-200" font-family="Helvetica,sans-Serif" font-size="10.00"> &#45;m_FrameBuffer</text>
</g>
<!-- Node7&#45;&gt;Node1 -->
<g id="edge6" class="edge">
<title>Node7&#45;&gt;Node1</title>
<path fill="none" stroke="#404040" d="M665.28,-237.34C668.3,-219.25 674.37,-200.42 686,-186 713.74,-151.6 755.44,-128.67 796,-113.5"/>
<polygon fill="none" stroke="#404040" points="796.09,-113.46 800.39,-107.68 807.39,-109.42 803.09,-115.21 796.09,-113.46"/>
<text text-anchor="middle" x="748.5" y="-200" font-family="Helvetica,sans-Serif" font-size="10.00"> &#45;m_SceneHierarchyPanel</text>
</g>
<!-- Node8 -->
<g id="node8" class="node">
<title>Node8</title>
<g id="a_node8"><a xlink:title=" ">
<polygon fill="white" stroke="#bfbfbf" points="722.5,-408.5 722.5,-465.5 807.5,-465.5 807.5,-408.5 722.5,-408.5"/>
<text text-anchor="middle" x="765" y="-453.5" font-family="Helvetica,sans-Serif" font-size="10.00">Ref&lt; Scene &gt;</text>
<polyline fill="none" stroke="#bfbfbf" points="722.5,-446.5 807.5,-446.5 "/>
<text text-anchor="middle" x="765" y="-434.5" font-family="Helvetica,sans-Serif" font-size="10.00"> </text>
<polyline fill="none" stroke="#bfbfbf" points="722.5,-427.5 807.5,-427.5 "/>
<text text-anchor="middle" x="765" y="-415.5" font-family="Helvetica,sans-Serif" font-size="10.00"> </text>
</a>
</g>
</g>
<!-- Node8&#45;&gt;Node1 -->
<g id="edge15" class="edge">
<title>Node8&#45;&gt;Node1</title>
<path fill="none" stroke="#404040" d="M784.52,-408.04C788.01,-402.25 791.37,-396.06 794,-390 821.96,-325.51 807.58,-302.13 834,-237 841.9,-217.53 851.82,-197.47 862.09,-178.56"/>
<polygon fill="none" stroke="#404040" points="862.19,-178.38 861.59,-171.19 867.99,-167.88 868.59,-175.06 862.19,-178.38"/>
<text text-anchor="middle" x="875" y="-296.5" font-family="Helvetica,sans-Serif" font-size="10.00"> &#45;m_ActiveScene</text>
</g>
<!-- Node8&#45;&gt;Node7 -->
<g id="edge8" class="edge">
<title>Node8&#45;&gt;Node7</title>
<path fill="none" stroke="#404040" d="M744.56,-408.48C736.3,-397.36 726.36,-383.97 716.33,-370.46"/>
<polygon fill="none" stroke="#404040" points="716.18,-370.26 709.39,-367.82 709.02,-360.62 715.81,-363.06 716.18,-370.26"/>
<text text-anchor="middle" x="759.5" y="-382" font-family="Helvetica,sans-Serif" font-size="10.00"> &#45;m_Context</text>
</g>
<!-- Node9 -->
<g id="node9" class="node">
<title>Node9</title>
<g id="a_node9"><a xlink:title=" ">
<polygon fill="white" stroke="#bfbfbf" points="1059.5,-270.5 1059.5,-327.5 1088.5,-327.5 1088.5,-270.5 1059.5,-270.5"/>
<text text-anchor="middle" x="1074" y="-315.5" font-family="Helvetica,sans-Serif" font-size="10.00">int</text>
<polyline fill="none" stroke="#bfbfbf" points="1059.5,-308.5 1088.5,-308.5 "/>
<text text-anchor="middle" x="1074" y="-296.5" font-family="Helvetica,sans-Serif" font-size="10.00"> </text>
<polyline fill="none" stroke="#bfbfbf" points="1059.5,-289.5 1088.5,-289.5 "/>
<text text-anchor="middle" x="1074" y="-277.5" font-family="Helvetica,sans-Serif" font-size="10.00"> </text>
</a>
</g>
</g>
<!-- Node9&#45;&gt;Node1 -->
<g id="edge9" class="edge">
<title>Node9&#45;&gt;Node1</title>
<path fill="none" stroke="#404040" d="M1066.68,-270.21C1062.88,-259.16 1057.45,-246.78 1050,-237 1041.92,-226.39 1035.26,-228.59 1026,-219 1013.58,-206.14 1013.79,-200.25 1003,-186 1000.78,-183.06 998.5,-180.1 996.19,-177.11"/>
<polygon fill="none" stroke="#404040" points="996.09,-176.98 989.25,-174.72 988.7,-167.53 995.55,-169.79 996.09,-176.98"/>
<text text-anchor="middle" x="1067" y="-200" font-family="Helvetica,sans-Serif" font-size="10.00"> &#45;m_GuizmoType</text>
</g>
<!-- Node10 -->
<g id="node10" class="node">
<title>Node10</title>
<g id="a_node10"><a xlink:title=" ">
<polygon fill="white" stroke="#bfbfbf" points="1106.5,-270.5 1106.5,-327.5 1211.5,-327.5 1211.5,-270.5 1106.5,-270.5"/>
<text text-anchor="middle" x="1159" y="-315.5" font-family="Helvetica,sans-Serif" font-size="10.00">Ref&lt; Texture2D &gt;</text>
<polyline fill="none" stroke="#bfbfbf" points="1106.5,-308.5 1211.5,-308.5 "/>
<text text-anchor="middle" x="1159" y="-296.5" font-family="Helvetica,sans-Serif" font-size="10.00"> </text>
<polyline fill="none" stroke="#bfbfbf" points="1106.5,-289.5 1211.5,-289.5 "/>
<text text-anchor="middle" x="1159" y="-277.5" font-family="Helvetica,sans-Serif" font-size="10.00"> </text>
</a>
</g>
</g>
<!-- Node10&#45;&gt;Node1 -->
<g id="edge10" class="edge">
<title>Node10&#45;&gt;Node1</title>
<path fill="none" stroke="#404040" d="M1148.82,-270.48C1137.75,-241.67 1120.05,-198.87 1108,-186 1089.69,-166.45 1066.73,-149.88 1043.2,-136.18"/>
<polygon fill="none" stroke="#404040" points="1043.19,-136.17 1036,-136.71 1032.73,-130.28 1039.92,-129.74 1043.19,-136.17"/>
<text text-anchor="middle" x="1189.5" y="-200" font-family="Helvetica,sans-Serif" font-size="10.00"> &#45;m_CheckerboardTexture</text>
</g>
<!-- Node11 -->
<g id="node11" class="node">
<title>Node11</title>
<g id="a_node11"><a xlink:title=" ">
<polygon fill="white" stroke="#bfbfbf" points="1259,-270.5 1259,-327.5 1297,-327.5 1297,-270.5 1259,-270.5"/>
<text text-anchor="middle" x="1278" y="-315.5" font-family="Helvetica,sans-Serif" font-size="10.00">bool</text>
<polyline fill="none" stroke="#bfbfbf" points="1259,-308.5 1297,-308.5 "/>
<text text-anchor="middle" x="1278" y="-296.5" font-family="Helvetica,sans-Serif" font-size="10.00"> </text>
<polyline fill="none" stroke="#bfbfbf" points="1259,-289.5 1297,-289.5 "/>
<text text-anchor="middle" x="1278" y="-277.5" font-family="Helvetica,sans-Serif" font-size="10.00"> </text>
</a>
</g>
</g>
<!-- Node11&#45;&gt;Node1 -->
<g id="edge11" class="edge">
<title>Node11&#45;&gt;Node1</title>
<path fill="none" stroke="#404040" d="M1280.06,-270.08C1280.34,-245.01 1276.63,-208.76 1256,-186 1202.73,-127.23 1116.72,-102.12 1045.06,-91.63"/>
<polygon fill="none" stroke="#404040" points="1044.66,-91.57 1038.17,-94.72 1032.77,-89.95 1039.26,-86.8 1044.66,-91.57"/>
<text text-anchor="middle" x="1325" y="-211" font-family="Helvetica,sans-Serif" font-size="10.00"> &#45;m_PrimaryCamera</text>
<text text-anchor="middle" x="1325" y="-200" font-family="Helvetica,sans-Serif" font-size="10.00">&#45;m_ViewportFocused</text>
<text text-anchor="middle" x="1325" y="-189" font-family="Helvetica,sans-Serif" font-size="10.00">&#45;m_ViewportHovered</text>
</g>
<!-- Node12 -->
<g id="node12" class="node">
<title>Node12</title>
<g id="a_node12"><a xlink:title=" ">
<polygon fill="white" stroke="#bfbfbf" points="1360.5,-270.5 1360.5,-327.5 1449.5,-327.5 1449.5,-270.5 1360.5,-270.5"/>
<text text-anchor="middle" x="1405" y="-315.5" font-family="Helvetica,sans-Serif" font-size="10.00">Ref&lt; Shader &gt;</text>
<polyline fill="none" stroke="#bfbfbf" points="1360.5,-308.5 1449.5,-308.5 "/>
<text text-anchor="middle" x="1405" y="-296.5" font-family="Helvetica,sans-Serif" font-size="10.00"> </text>
<polyline fill="none" stroke="#bfbfbf" points="1360.5,-289.5 1449.5,-289.5 "/>
<text text-anchor="middle" x="1405" y="-277.5" font-family="Helvetica,sans-Serif" font-size="10.00"> </text>
</a>
</g>
</g>
<!-- Node12&#45;&gt;Node1 -->
<g id="edge12" class="edge">
<title>Node12&#45;&gt;Node1</title>
<path fill="none" stroke="#404040" d="M1406.89,-270.15C1407.01,-244.77 1402.89,-207.99 1381,-186 1334.55,-139.33 1164.7,-111.45 1044.72,-97.16"/>
<polygon fill="none" stroke="#404040" points="1044.46,-97.13 1038.03,-100.41 1032.54,-95.74 1038.96,-92.46 1044.46,-97.13"/>
<text text-anchor="middle" x="1449" y="-200" font-family="Helvetica,sans-Serif" font-size="10.00"> &#45;m_FlatColorShader</text>
</g>
<!-- Node13 -->
<g id="node13" class="node">
<title>Node13</title>
<g id="a_node13"><a xlink:title=" ">
<polygon fill="white" stroke="#bfbfbf" points="1508,-270.5 1508,-327.5 1548,-327.5 1548,-270.5 1508,-270.5"/>
<text text-anchor="middle" x="1528" y="-315.5" font-family="Helvetica,sans-Serif" font-size="10.00">vec2</text>
<polyline fill="none" stroke="#bfbfbf" points="1508,-308.5 1548,-308.5 "/>
<text text-anchor="middle" x="1528" y="-296.5" font-family="Helvetica,sans-Serif" font-size="10.00"> </text>
<polyline fill="none" stroke="#bfbfbf" points="1508,-289.5 1548,-289.5 "/>
<text text-anchor="middle" x="1528" y="-277.5" font-family="Helvetica,sans-Serif" font-size="10.00"> </text>
</a>
</g>
</g>
<!-- Node13&#45;&gt;Node1 -->
<g id="edge13" class="edge">
<title>Node13&#45;&gt;Node1</title>
<path fill="none" stroke="#404040" d="M1529.83,-270.39C1529.92,-244.82 1525.64,-207.58 1503,-186 1438.79,-124.81 1195.9,-100.21 1044.62,-90.68"/>
<polygon fill="none" stroke="#404040" points="1044.51,-90.68 1038.28,-94.3 1032.54,-89.94 1038.77,-86.32 1044.51,-90.68"/>
<text text-anchor="middle" x="1564" y="-200" font-family="Helvetica,sans-Serif" font-size="10.00"> &#45;m_ViewportSize</text>
</g>
<!-- Node14 -->
<g id="node14" class="node">
<title>Node14</title>
<g id="a_node14"><a xlink:title=" ">
<polygon fill="white" stroke="#bfbfbf" points="1617,-270.5 1617,-327.5 1657,-327.5 1657,-270.5 1617,-270.5"/>
<text text-anchor="middle" x="1637" y="-315.5" font-family="Helvetica,sans-Serif" font-size="10.00">vec4</text>
<polyline fill="none" stroke="#bfbfbf" points="1617,-308.5 1657,-308.5 "/>
<text text-anchor="middle" x="1637" y="-296.5" font-family="Helvetica,sans-Serif" font-size="10.00"> </text>
<polyline fill="none" stroke="#bfbfbf" points="1617,-289.5 1657,-289.5 "/>
<text text-anchor="middle" x="1637" y="-277.5" font-family="Helvetica,sans-Serif" font-size="10.00"> </text>
</a>
</g>
</g>
<!-- Node14&#45;&gt;Node1 -->
<g id="edge14" class="edge">
<title>Node14&#45;&gt;Node1</title>
<path fill="none" stroke="#404040" d="M1638.69,-270.23C1638.61,-244.54 1634.06,-207.22 1611,-186 1530.65,-112.05 1221.21,-92.16 1044.89,-86.87"/>
<polygon fill="none" stroke="#404040" points="1044.69,-86.86 1038.58,-90.69 1032.69,-86.52 1038.8,-82.69 1044.69,-86.86"/>
<text text-anchor="middle" x="1671" y="-200" font-family="Helvetica,sans-Serif" font-size="10.00"> &#45;m_SquareColor</text>
</g>
</g>
</svg>
