<?xml version="1.0" encoding="UTF-8" standalone="no"?>
<!DOCTYPE svg PUBLIC "-//W3C//DTD SVG 1.1//EN"
 "http://www.w3.org/Graphics/SVG/1.1/DTD/svg11.dtd">
<!-- Generated by graphviz version 2.43.0 (0)
 -->
<!-- Title: ExampleLayer Pages: 1 -->
<!--zoomable 215 -->
<svg id="main" version="1.1" xmlns="http://www.w3.org/2000/svg" xmlns:xlink="http://www.w3.org/1999/xlink" xml:space="preserve" onload="init(evt)">
<style type="text/css"><![CDATA[
.edge:hover path { stroke: red; }
.edge:hover polygon { stroke: red; fill: red; }
]]></style>
<script type="text/javascript"><![CDATA[
var edges = document.getElementsByTagName('g');
if (edges && edges.length) {
  for (var i=0;i<edges.length;i++) {
    if (edges[i].id.substr(0,4)=='edge') {
      edges[i].setAttribute('class','edge');
    }
  }
}
]]></script>
        <defs>
                <circle id="rim" cx="0" cy="0" r="7"/>
                <circle id="rim2" cx="0" cy="0" r="3.5"/>
                <g id="zoomPlus">
                        <use xlink:href="#rim" fill="#404040">
                                <set attributeName="fill" to="#808080" begin="zoomplus.mouseover" end="zoomplus.mouseout"/>
                        </use>
                        <path d="M-4,0h8M0,-4v8" fill="none" stroke="white" stroke-width="1.5" pointer-events="none"/>
                </g>
                <g id="zoomMin">
                        <use xlink:href="#rim" fill="#404040">
                                <set attributeName="fill" to="#808080" begin="zoomminus.mouseover" end="zoomminus.mouseout"/>
                        </use>
                        <path d="M-4,0h8" fill="none" stroke="white" stroke-width="1.5" pointer-events="none"/>
                </g>
                <g id="dirArrow">
                        <path fill="none" stroke="white" stroke-width="1.5" d="M0,-3.0v7 M-2.5,-0.5L0,-3.0L2.5,-0.5"/>
                </g>
               <g id="resetDef">
                       <use xlink:href="#rim2" fill="#404040">
                               <set attributeName="fill" to="#808080" begin="reset.mouseover" end="reset.mouseout"/>
                       </use>
               </g>
        </defs>

<script type="text/javascript">
var viewWidth = 1027;
var viewHeight = 215;
var sectionId = 'dynsection-1';
</script>
<script xlink:href="svgpan.js"/>
<svg id="graph" class="graph">
<g id="viewport">
<title>ExampleLayer</title>
<polygon fill="white" stroke="transparent" points="-4,4 -4,-211 1023,-211 1023,4 -4,4"/>
<!-- Node1 -->
<g id="node1" class="node">
<title>Node1</title>
<g id="a_node1"><a xlink:title=" ">
<polygon fill="#bfbfbf" stroke="black" points="420.5,-0.5 420.5,-90.5 661.5,-90.5 661.5,-0.5 420.5,-0.5"/>
<text text-anchor="middle" x="541" y="-78.5" font-family="Helvetica,sans-Serif" font-size="10.00">ExampleLayer</text>
<polyline fill="none" stroke="black" points="420.5,-71.5 661.5,-71.5 "/>
<text text-anchor="middle" x="541" y="-59.5" font-family="Helvetica,sans-Serif" font-size="10.00"> </text>
<polyline fill="none" stroke="black" points="420.5,-52.5 661.5,-52.5 "/>
<text text-anchor="start" x="428.5" y="-40.5" font-family="Helvetica,sans-Serif" font-size="10.00">+ ExampleLayer()</text>
<text text-anchor="start" x="428.5" y="-29.5" font-family="Helvetica,sans-Serif" font-size="10.00">+ void OnUpdate(gauri::Timestep ts) override</text>
<text text-anchor="start" x="428.5" y="-18.5" font-family="Helvetica,sans-Serif" font-size="10.00">+ void OnEvent(gauri::Event &amp;event) override</text>
<text text-anchor="start" x="428.5" y="-7.5" font-family="Helvetica,sans-Serif" font-size="10.00">+ void OnImGuiRender() override</text>
</a>
</g>
</g>
<!-- Node2 -->
<g id="node2" class="node">
<title>Node2</title>
<g id="a_node2"><a xlink:title=" ">
<polygon fill="white" stroke="#bfbfbf" points="0,-149.5 0,-206.5 74,-206.5 74,-149.5 0,-149.5"/>
<text text-anchor="middle" x="37" y="-194.5" font-family="Helvetica,sans-Serif" font-size="10.00">gauri::Layer</text>
<polyline fill="none" stroke="#bfbfbf" points="0,-187.5 74,-187.5 "/>
<text text-anchor="middle" x="37" y="-175.5" font-family="Helvetica,sans-Serif" font-size="10.00"> </text>
<polyline fill="none" stroke="#bfbfbf" points="0,-168.5 74,-168.5 "/>
<text text-anchor="middle" x="37" y="-156.5" font-family="Helvetica,sans-Serif" font-size="10.00"> </text>
</a>
</g>
</g>
<!-- Node2&#45;&gt;Node1 -->
<g id="edge1" class="edge">
<title>Node2&#45;&gt;Node1</title>
<path fill="none" stroke="midnightblue" d="M83.56,-149.17C198.91,-99.7 328.04,-74.12 420.3,-60.48"/>
<polygon fill="none" stroke="midnightblue" points="81.99,-146.03 74.22,-153.24 84.78,-152.45 81.99,-146.03"/>
</g>
<!-- Node3 -->
<g id="node3" class="node">
<title>Node3</title>
<g id="a_node3"><a xlink:title=" ">
<polygon fill="white" stroke="#bfbfbf" points="92,-149.5 92,-206.5 258,-206.5 258,-149.5 92,-149.5"/>
<text text-anchor="middle" x="175" y="-194.5" font-family="Helvetica,sans-Serif" font-size="10.00">OrthographicCameraController</text>
<polyline fill="none" stroke="#bfbfbf" points="92,-187.5 258,-187.5 "/>
<text text-anchor="middle" x="175" y="-175.5" font-family="Helvetica,sans-Serif" font-size="10.00"> </text>
<polyline fill="none" stroke="#bfbfbf" points="92,-168.5 258,-168.5 "/>
<text text-anchor="middle" x="175" y="-156.5" font-family="Helvetica,sans-Serif" font-size="10.00"> </text>
</a>
</g>
</g>
<!-- Node3&#45;&gt;Node1 -->
<g id="edge2" class="edge">
<title>Node3&#45;&gt;Node1</title>
<path fill="none" stroke="#404040" d="M201.49,-149.44C216.51,-135.34 236.39,-119.07 257,-109 303.83,-86.12 359.08,-71.53 408.33,-62.26"/>
<polygon fill="none" stroke="#404040" points="408.58,-62.22 413.77,-57.21 420.39,-60.08 415.2,-65.08 408.58,-62.22"/>
<text text-anchor="middle" x="311.5" y="-117.5" font-family="Helvetica,sans-Serif" font-size="10.00"> &#45;m_CameraController</text>
</g>
<!-- Node4 -->
<g id="node4" class="node">
<title>Node4</title>
<g id="a_node4"><a xlink:title=" ">
<polygon fill="white" stroke="#bfbfbf" points="276,-149.5 276,-206.5 420,-206.5 420,-149.5 276,-149.5"/>
<text text-anchor="middle" x="348" y="-194.5" font-family="Helvetica,sans-Serif" font-size="10.00">Ref&lt; gauri::VertexArray &gt;</text>
<polyline fill="none" stroke="#bfbfbf" points="276,-187.5 420,-187.5 "/>
<text text-anchor="middle" x="348" y="-175.5" font-family="Helvetica,sans-Serif" font-size="10.00"> </text>
<polyline fill="none" stroke="#bfbfbf" points="276,-168.5 420,-168.5 "/>
<text text-anchor="middle" x="348" y="-156.5" font-family="Helvetica,sans-Serif" font-size="10.00"> </text>
</a>
</g>
</g>
<!-- Node4&#45;&gt;Node1 -->
<g id="edge3" class="edge">
<title>Node4&#45;&gt;Node1</title>
<path fill="none" stroke="#404040" d="M359.62,-149.28C366.49,-135.65 376.34,-119.86 389,-109 395.4,-103.51 402.35,-98.45 409.64,-93.8"/>
<polygon fill="none" stroke="#404040" points="409.86,-93.67 412.94,-87.15 420.15,-87.49 417.06,-94.01 409.86,-93.67"/>
<text text-anchor="middle" x="427.5" y="-123" font-family="Helvetica,sans-Serif" font-size="10.00"> &#45;m_SquareVA</text>
<text text-anchor="middle" x="427.5" y="-112" font-family="Helvetica,sans-Serif" font-size="10.00">&#45;m_VertexArray</text>
</g>
<!-- Node5 -->
<g id="node5" class="node">
<title>Node5</title>
<g id="a_node5"><a xlink:title=" ">
<polygon fill="white" stroke="#bfbfbf" points="438,-149.5 438,-206.5 574,-206.5 574,-149.5 438,-149.5"/>
<text text-anchor="middle" x="506" y="-194.5" font-family="Helvetica,sans-Serif" font-size="10.00">Ref&lt; gauri::Texture2D &gt;</text>
<polyline fill="none" stroke="#bfbfbf" points="438,-187.5 574,-187.5 "/>
<text text-anchor="middle" x="506" y="-175.5" font-family="Helvetica,sans-Serif" font-size="10.00"> </text>
<polyline fill="none" stroke="#bfbfbf" points="438,-168.5 574,-168.5 "/>
<text text-anchor="middle" x="506" y="-156.5" font-family="Helvetica,sans-Serif" font-size="10.00"> </text>
</a>
</g>
</g>
<!-- Node5&#45;&gt;Node1 -->
<g id="edge4" class="edge">
<title>Node5&#45;&gt;Node1</title>
<path fill="none" stroke="#404040" d="M480.81,-149.43C472.67,-137.15 467.09,-122.46 473,-109 474.24,-106.17 475.68,-103.42 477.28,-100.74"/>
<polygon fill="none" stroke="#404040" points="477.33,-100.67 477.47,-93.46 484.17,-90.81 484.04,-98.02 477.33,-100.67"/>
<text text-anchor="middle" x="531" y="-123" font-family="Helvetica,sans-Serif" font-size="10.00"> &#45;m_ChernoLogoTexture</text>
<text text-anchor="middle" x="531" y="-112" font-family="Helvetica,sans-Serif" font-size="10.00">&#45;m_Texture</text>
</g>
<!-- Node6 -->
<g id="node6" class="node">
<title>Node6</title>
<g id="a_node6"><a xlink:title=" ">
<polygon fill="white" stroke="#bfbfbf" points="592,-149.5 592,-206.5 630,-206.5 630,-149.5 592,-149.5"/>
<text text-anchor="middle" x="611" y="-194.5" font-family="Helvetica,sans-Serif" font-size="10.00">float</text>
<polyline fill="none" stroke="#bfbfbf" points="592,-187.5 630,-187.5 "/>
<text text-anchor="middle" x="611" y="-175.5" font-family="Helvetica,sans-Serif" font-size="10.00"> </text>
<polyline fill="none" stroke="#bfbfbf" points="592,-168.5 630,-168.5 "/>
<text text-anchor="middle" x="611" y="-156.5" font-family="Helvetica,sans-Serif" font-size="10.00"> </text>
</a>
</g>
</g>
<!-- Node6&#45;&gt;Node1 -->
<g id="edge5" class="edge">
<title>Node6&#45;&gt;Node1</title>
<path fill="none" stroke="#404040" d="M604.37,-149.33C600.75,-136.64 595.64,-121.63 589,-109 587.58,-106.3 586.04,-103.59 584.42,-100.9"/>
<polygon fill="none" stroke="#404040" points="584.31,-100.74 577.7,-97.88 577.8,-90.66 584.42,-93.53 584.31,-100.74"/>
<text text-anchor="middle" x="641" y="-117.5" font-family="Helvetica,sans-Serif" font-size="10.00"> &#45;m_SquareSpeed</text>
</g>
<!-- Node7 -->
<g id="node7" class="node">
<title>Node7</title>
<g id="a_node7"><a xlink:title=" ">
<polygon fill="white" stroke="#bfbfbf" points="678,-149.5 678,-206.5 762,-206.5 762,-149.5 678,-149.5"/>
<text text-anchor="middle" x="720" y="-194.5" font-family="Helvetica,sans-Serif" font-size="10.00">ShaderLibrary</text>
<polyline fill="none" stroke="#bfbfbf" points="678,-187.5 762,-187.5 "/>
<text text-anchor="middle" x="720" y="-175.5" font-family="Helvetica,sans-Serif" font-size="10.00"> </text>
<polyline fill="none" stroke="#bfbfbf" points="678,-168.5 762,-168.5 "/>
<text text-anchor="middle" x="720" y="-156.5" font-family="Helvetica,sans-Serif" font-size="10.00"> </text>
</a>
</g>
</g>
<!-- Node7&#45;&gt;Node1 -->
<g id="edge6" class="edge">
<title>Node7&#45;&gt;Node1</title>
<path fill="none" stroke="#404040" d="M712.18,-149.35C707.14,-135.74 699.37,-119.95 688,-109 682.94,-104.13 677.45,-99.62 671.66,-95.43"/>
<polygon fill="none" stroke="#404040" points="671.61,-95.39 664.39,-95.36 661.65,-88.69 668.86,-88.73 671.61,-95.39"/>
<text text-anchor="middle" x="748" y="-117.5" font-family="Helvetica,sans-Serif" font-size="10.00"> &#45;m_ShaderLibrary</text>
</g>
<!-- Node8 -->
<g id="node8" class="node">
<title>Node8</title>
<g id="a_node8"><a xlink:title=" ">
<polygon fill="white" stroke="#bfbfbf" points="813,-149.5 813,-206.5 853,-206.5 853,-149.5 813,-149.5"/>
<text text-anchor="middle" x="833" y="-194.5" font-family="Helvetica,sans-Serif" font-size="10.00">vec3</text>
<polyline fill="none" stroke="#bfbfbf" points="813,-187.5 853,-187.5 "/>
<text text-anchor="middle" x="833" y="-175.5" font-family="Helvetica,sans-Serif" font-size="10.00"> </text>
<polyline fill="none" stroke="#bfbfbf" points="813,-168.5 853,-168.5 "/>
<text text-anchor="middle" x="833" y="-156.5" font-family="Helvetica,sans-Serif" font-size="10.00"> </text>
</a>
</g>
</g>
<!-- Node8&#45;&gt;Node1 -->
<g id="edge7" class="edge">
<title>Node8&#45;&gt;Node1</title>
<path fill="none" stroke="#404040" d="M824.44,-149.18C818.78,-135.19 809.96,-119.1 797,-109 761.86,-81.64 716.43,-66.04 673.61,-57.23"/>
<polygon fill="none" stroke="#404040" points="673.4,-57.19 666.75,-59.98 661.62,-54.92 668.27,-52.13 673.4,-57.19"/>
<text text-anchor="middle" x="855" y="-117.5" font-family="Helvetica,sans-Serif" font-size="10.00"> &#45;m_SquareColor</text>
</g>
<!-- Node9 -->
<g id="node9" class="node">
<title>Node9</title>
<g id="a_node9"><a xlink:title=" ">
<polygon fill="white" stroke="#bfbfbf" points="878,-149.5 878,-206.5 998,-206.5 998,-149.5 878,-149.5"/>
<text text-anchor="middle" x="938" y="-194.5" font-family="Helvetica,sans-Serif" font-size="10.00">Ref&lt; gauri::Shader &gt;</text>
<polyline fill="none" stroke="#bfbfbf" points="878,-187.5 998,-187.5 "/>
<text text-anchor="middle" x="938" y="-175.5" font-family="Helvetica,sans-Serif" font-size="10.00"> </text>
<polyline fill="none" stroke="#bfbfbf" points="878,-168.5 998,-168.5 "/>
<text text-anchor="middle" x="938" y="-156.5" font-family="Helvetica,sans-Serif" font-size="10.00"> </text>
</a>
</g>
</g>
<!-- Node9&#45;&gt;Node1 -->
<g id="edge8" class="edge">
<title>Node9&#45;&gt;Node1</title>
<path fill="none" stroke="#404040" d="M929.17,-149.49C923.17,-135.22 913.79,-118.78 900,-109 863.96,-83.44 760.37,-67.17 673.68,-57.66"/>
<polygon fill="none" stroke="#404040" points="673.49,-57.64 667.1,-60.97 661.56,-56.36 667.96,-53.02 673.49,-57.64"/>
<text text-anchor="middle" x="969" y="-123" font-family="Helvetica,sans-Serif" font-size="10.00"> &#45;m_FlatColorShader</text>
<text text-anchor="middle" x="969" y="-112" font-family="Helvetica,sans-Serif" font-size="10.00">&#45;m_Shader</text>
</g>
</g>
</svg>
        <g id="navigator" transform="translate(0 0)" fill="#404254">
                <rect fill="#f2f5e9" fill-opacity="0.5" stroke="#606060" stroke-width=".5" x="0" y="0" width="60" height="60"/>
                <use id="zoomplus" xlink:href="#zoomPlus" x="17" y="9" onmousedown="handleZoom(evt,'in')"/>
                <use id="zoomminus" xlink:href="#zoomMin" x="42" y="9" onmousedown="handleZoom(evt,'out')"/>
                <use id="reset" xlink:href="#resetDef" x="30" y="36" onmousedown="handleReset()"/>
                <g id="arrowUp" xlink:href="#dirArrow" transform="translate(30 24)" onmousedown="handlePan(0,-1)">
                  <use xlink:href="#rim" fill="#404040">
                        <set attributeName="fill" to="#808080" begin="arrowUp.mouseover" end="arrowUp.mouseout"/>
                  </use>
                  <path fill="none" stroke="white" stroke-width="1.5" d="M0,-3.0v7 M-2.5,-0.5L0,-3.0L2.5,-0.5"/>
                </g>
                <g id="arrowRight" xlink:href="#dirArrow" transform="rotate(90) translate(36 -43)" onmousedown="handlePan(1,0)">
                  <use xlink:href="#rim" fill="#404040">
                        <set attributeName="fill" to="#808080" begin="arrowRight.mouseover" end="arrowRight.mouseout"/>
                  </use>
                  <path fill="none" stroke="white" stroke-width="1.5" d="M0,-3.0v7 M-2.5,-0.5L0,-3.0L2.5,-0.5"/>
                </g>
                <g id="arrowDown" xlink:href="#dirArrow" transform="rotate(180) translate(-30 -48)" onmousedown="handlePan(0,1)">
                  <use xlink:href="#rim" fill="#404040">
                        <set attributeName="fill" to="#808080" begin="arrowDown.mouseover" end="arrowDown.mouseout"/>
                  </use>
                  <path fill="none" stroke="white" stroke-width="1.5" d="M0,-3.0v7 M-2.5,-0.5L0,-3.0L2.5,-0.5"/>
                </g>
                <g id="arrowLeft" xlink:href="#dirArrow" transform="rotate(270) translate(-36 17)" onmousedown="handlePan(-1,0)">
                  <use xlink:href="#rim" fill="#404040">
                        <set attributeName="fill" to="#808080" begin="arrowLeft.mouseover" end="arrowLeft.mouseout"/>
                  </use>
                  <path fill="none" stroke="white" stroke-width="1.5" d="M0,-3.0v7 M-2.5,-0.5L0,-3.0L2.5,-0.5"/>
                </g>
        </g>
        <svg viewBox="0 0 15 15" width="100%" height="30px" preserveAspectRatio="xMaxYMin meet">
         <g id="arrow_out" transform="scale(0.3 0.3)">
          <a xlink:href="classExampleLayer__coll__graph_org.svg" target="_base">
           <rect id="button" ry="5" rx="5" y="6" x="6" height="38" width="38"
                fill="#f2f5e9" fill-opacity="0.5" stroke="#606060" stroke-width="1.0"/>
           <path id="arrow"
             d="M 11.500037,31.436501 C 11.940474,20.09759 22.043105,11.32322 32.158766,21.979434 L 37.068811,17.246167 C 37.068811,17.246167 37.088388,32 37.088388,32 L 22.160133,31.978069 C 22.160133,31.978069 26.997745,27.140456 26.997745,27.140456 C 18.528582,18.264221 13.291696,25.230495 11.500037,31.436501 z"
             style="fill:#404040;"/>
          </a>
         </g>
        </svg>
</svg>
