<?xml version="1.0" encoding="UTF-8" standalone="no"?>
<!DOCTYPE svg PUBLIC "-//W3C//DTD SVG 1.1//EN"
 "http://www.w3.org/Graphics/SVG/1.1/DTD/svg11.dtd">
<!-- Generated by graphviz version 2.43.0 (0)
 -->
<!-- Title: gauri::EditorLayer::OnAttach Pages: 1 -->
<svg width="408pt" height="66pt"
 viewBox="0.00 0.00 408.00 66.00" xmlns="http://www.w3.org/2000/svg" xmlns:xlink="http://www.w3.org/1999/xlink">
<g id="graph0" class="graph" transform="scale(1 1) rotate(0) translate(4 62)">
<title>gauri::EditorLayer::OnAttach</title>
<polygon fill="white" stroke="transparent" points="-4,4 -4,-62 404,-62 404,4 -4,4"/>
<!-- Node1 -->
<g id="node1" class="node">
<title>Node1</title>
<g id="a_node1"><a xlink:title=" ">
<polygon fill="#bfbfbf" stroke="black" points="0,-19.5 0,-38.5 154,-38.5 154,-19.5 0,-19.5"/>
<text text-anchor="middle" x="77" y="-26.5" font-family="Helvetica,sans-Serif" font-size="10.00">gauri::EditorLayer::OnAttach</text>
</a>
</g>
</g>
<!-- Node2 -->
<g id="node2" class="node">
<title>Node2</title>
<g id="a_node2"><a xlink:href="classgauri_1_1EditorLayer.html#a13cdac218c24a54cafd8ae6af8ee45ef" target="_top" xlink:title=" ">
<polygon fill="white" stroke="black" points="216,-38.5 216,-57.5 374,-57.5 374,-38.5 216,-38.5"/>
<text text-anchor="middle" x="295" y="-45.5" font-family="Helvetica,sans-Serif" font-size="10.00">gauri::EditorLayer::OnUpdate</text>
</a>
</g>
</g>
<!-- Node1&#45;&gt;Node2 -->
<g id="edge1" class="edge">
<title>Node1&#45;&gt;Node2</title>
<path fill="none" stroke="midnightblue" d="M154.15,-35.7C170.91,-37.17 188.78,-38.74 205.96,-40.26"/>
<polygon fill="midnightblue" stroke="midnightblue" points="205.71,-43.75 215.98,-41.14 206.32,-36.77 205.71,-43.75"/>
</g>
<!-- Node3 -->
<g id="node3" class="node">
<title>Node3</title>
<g id="a_node3"><a xlink:href="classgauri_1_1SceneHierarchyPanel.html#a073f2d95cd8d8b04975b724388ce29b9" target="_top" xlink:title=" ">
<polygon fill="white" stroke="black" points="190,-0.5 190,-19.5 400,-19.5 400,-0.5 190,-0.5"/>
<text text-anchor="middle" x="295" y="-7.5" font-family="Helvetica,sans-Serif" font-size="10.00">gauri::SceneHierarchyPanel::SetContext</text>
</a>
</g>
</g>
<!-- Node1&#45;&gt;Node3 -->
<g id="edge2" class="edge">
<title>Node1&#45;&gt;Node3</title>
<path fill="none" stroke="midnightblue" d="M154.15,-22.3C162.45,-21.57 171.02,-20.82 179.64,-20.06"/>
<polygon fill="midnightblue" stroke="midnightblue" points="180.12,-23.53 189.77,-19.17 179.5,-16.56 180.12,-23.53"/>
</g>
</g>
</svg>
