<?xml version="1.0" encoding="UTF-8" standalone="no"?>
<!DOCTYPE svg PUBLIC "-//W3C//DTD SVG 1.1//EN"
 "http://www.w3.org/Graphics/SVG/1.1/DTD/svg11.dtd">
<!-- Generated by graphviz version 2.43.0 (0)
 -->
<!-- Title: gauri::EditorLayer Pages: 1 -->
<svg width="1622pt" height="463pt"
 viewBox="0.00 0.00 1622.00 463.00" xmlns="http://www.w3.org/2000/svg" xmlns:xlink="http://www.w3.org/1999/xlink">
<g id="graph0" class="graph" transform="scale(1 1) rotate(0) translate(4 459)">
<title>gauri::EditorLayer</title>
<polygon fill="white" stroke="transparent" points="-4,4 -4,-459 1618,-459 1618,4 -4,4"/>
<!-- Node1 -->
<g id="node1" class="node">
<title>Node1</title>
<g id="a_node1"><a xlink:title=" ">
<polygon fill="#bfbfbf" stroke="black" points="762.5,-0.5 762.5,-167.5 987.5,-167.5 987.5,-0.5 762.5,-0.5"/>
<text text-anchor="middle" x="875" y="-155.5" font-family="Helvetica,sans-Serif" font-size="10.00">gauri::EditorLayer</text>
<polyline fill="none" stroke="black" points="762.5,-148.5 987.5,-148.5 "/>
<text text-anchor="middle" x="875" y="-136.5" font-family="Helvetica,sans-Serif" font-size="10.00"> </text>
<polyline fill="none" stroke="black" points="762.5,-129.5 987.5,-129.5 "/>
<text text-anchor="start" x="770.5" y="-117.5" font-family="Helvetica,sans-Serif" font-size="10.00">+ EditorLayer()</text>
<text text-anchor="start" x="770.5" y="-106.5" font-family="Helvetica,sans-Serif" font-size="10.00">+ ~EditorLayer() override=default</text>
<text text-anchor="start" x="770.5" y="-95.5" font-family="Helvetica,sans-Serif" font-size="10.00">+ void OnAttach() override</text>
<text text-anchor="start" x="770.5" y="-84.5" font-family="Helvetica,sans-Serif" font-size="10.00">+ void OnDetach() override</text>
<text text-anchor="start" x="770.5" y="-73.5" font-family="Helvetica,sans-Serif" font-size="10.00">+ void OnUpdate(Timestep ts) override</text>
<text text-anchor="start" x="770.5" y="-62.5" font-family="Helvetica,sans-Serif" font-size="10.00">+ void OnImGuiRender() override</text>
<text text-anchor="start" x="770.5" y="-51.5" font-family="Helvetica,sans-Serif" font-size="10.00">+ void OnEvent(Event &amp;event) override</text>
<text text-anchor="start" x="770.5" y="-40.5" font-family="Helvetica,sans-Serif" font-size="10.00">&#45; bool OnKeyPressed(KeyPressedEvent &amp;e)</text>
<text text-anchor="start" x="770.5" y="-29.5" font-family="Helvetica,sans-Serif" font-size="10.00">&#45; void NewScene()</text>
<text text-anchor="start" x="770.5" y="-18.5" font-family="Helvetica,sans-Serif" font-size="10.00">&#45; void OpenScene()</text>
<text text-anchor="start" x="770.5" y="-7.5" font-family="Helvetica,sans-Serif" font-size="10.00">&#45; void SaveSceneAs()</text>
</a>
</g>
</g>
<!-- Node2 -->
<g id="node2" class="node">
<title>Node2</title>
<g id="a_node2"><a xlink:title=" ">
<polygon fill="white" stroke="#bfbfbf" points="0,-265 0,-322 74,-322 74,-265 0,-265"/>
<text text-anchor="middle" x="37" y="-310" font-family="Helvetica,sans-Serif" font-size="10.00">gauri::Layer</text>
<polyline fill="none" stroke="#bfbfbf" points="0,-303 74,-303 "/>
<text text-anchor="middle" x="37" y="-291" font-family="Helvetica,sans-Serif" font-size="10.00"> </text>
<polyline fill="none" stroke="#bfbfbf" points="0,-284 74,-284 "/>
<text text-anchor="middle" x="37" y="-272" font-family="Helvetica,sans-Serif" font-size="10.00"> </text>
</a>
</g>
</g>
<!-- Node2&#45;&gt;Node1 -->
<g id="edge1" class="edge">
<title>Node2&#45;&gt;Node1</title>
<path fill="none" stroke="midnightblue" d="M62.64,-256.99C68.8,-249.84 75.72,-242.76 83,-237 123.06,-205.31 137.24,-201.23 186,-186 383.05,-124.47 623.76,-100.09 762.22,-90.67"/>
<polygon fill="none" stroke="midnightblue" points="59.92,-254.78 56.27,-264.72 65.33,-259.23 59.92,-254.78"/>
</g>
<!-- Node3 -->
<g id="node3" class="node">
<title>Node3</title>
<g id="a_node3"><a xlink:title=" ">
<polygon fill="white" stroke="#bfbfbf" points="92.5,-265 92.5,-322 205.5,-322 205.5,-265 92.5,-265"/>
<text text-anchor="middle" x="149" y="-310" font-family="Helvetica,sans-Serif" font-size="10.00">Ref&lt; VertexArray &gt;</text>
<polyline fill="none" stroke="#bfbfbf" points="92.5,-303 205.5,-303 "/>
<text text-anchor="middle" x="149" y="-291" font-family="Helvetica,sans-Serif" font-size="10.00"> </text>
<polyline fill="none" stroke="#bfbfbf" points="92.5,-284 205.5,-284 "/>
<text text-anchor="middle" x="149" y="-272" font-family="Helvetica,sans-Serif" font-size="10.00"> </text>
</a>
</g>
</g>
<!-- Node3&#45;&gt;Node1 -->
<g id="edge2" class="edge">
<title>Node3&#45;&gt;Node1</title>
<path fill="none" stroke="#404040" d="M160.17,-264.97C171.77,-240.1 192.4,-204.62 222,-186 307.72,-132.06 585.87,-104.48 750.2,-92.56"/>
<polygon fill="none" stroke="#404040" points="750.35,-92.54 756.05,-88.13 762.32,-91.69 756.62,-96.11 750.35,-92.54"/>
<text text-anchor="middle" x="256.5" y="-200" font-family="Helvetica,sans-Serif" font-size="10.00"> &#45;m_SquareVA</text>
</g>
<!-- Node4 -->
<g id="node4" class="node">
<title>Node4</title>
<g id="a_node4"><a xlink:title=" ">
<polygon fill="white" stroke="#bfbfbf" points="224,-265 224,-322 390,-322 390,-265 224,-265"/>
<text text-anchor="middle" x="307" y="-310" font-family="Helvetica,sans-Serif" font-size="10.00">OrthographicCameraController</text>
<polyline fill="none" stroke="#bfbfbf" points="224,-303 390,-303 "/>
<text text-anchor="middle" x="307" y="-291" font-family="Helvetica,sans-Serif" font-size="10.00"> </text>
<polyline fill="none" stroke="#bfbfbf" points="224,-284 390,-284 "/>
<text text-anchor="middle" x="307" y="-272" font-family="Helvetica,sans-Serif" font-size="10.00"> </text>
</a>
</g>
</g>
<!-- Node4&#45;&gt;Node1 -->
<g id="edge3" class="edge">
<title>Node4&#45;&gt;Node1</title>
<path fill="none" stroke="#404040" d="M298.06,-264.72C292.33,-241.05 288.95,-207.54 307,-186 362.37,-119.91 600.15,-97.04 749.96,-89.14"/>
<polygon fill="none" stroke="#404040" points="750.39,-89.12 756.18,-84.82 762.38,-88.51 756.59,-92.81 750.39,-89.12"/>
<text text-anchor="middle" x="361.5" y="-200" font-family="Helvetica,sans-Serif" font-size="10.00"> &#45;m_CameraController</text>
</g>
<!-- Node5 -->
<g id="node5" class="node">
<title>Node5</title>
<g id="a_node5"><a xlink:title=" ">
<polygon fill="white" stroke="#bfbfbf" points="474.5,-397.5 474.5,-454.5 519.5,-454.5 519.5,-397.5 474.5,-397.5"/>
<text text-anchor="middle" x="497" y="-442.5" font-family="Helvetica,sans-Serif" font-size="10.00">Entity</text>
<polyline fill="none" stroke="#bfbfbf" points="474.5,-435.5 519.5,-435.5 "/>
<text text-anchor="middle" x="497" y="-423.5" font-family="Helvetica,sans-Serif" font-size="10.00"> </text>
<polyline fill="none" stroke="#bfbfbf" points="474.5,-416.5 519.5,-416.5 "/>
<text text-anchor="middle" x="497" y="-404.5" font-family="Helvetica,sans-Serif" font-size="10.00"> </text>
</a>
</g>
</g>
<!-- Node5&#45;&gt;Node1 -->
<g id="edge4" class="edge">
<title>Node5&#45;&gt;Node1</title>
<path fill="none" stroke="#404040" d="M474.45,-404.81C460.73,-390.94 444.45,-371.24 437,-350 420.38,-302.61 407.89,-277.92 437,-237 507.47,-137.95 647.22,-102.87 749.99,-90.75"/>
<polygon fill="none" stroke="#404040" points="750.09,-90.74 755.62,-86.1 762.02,-89.42 756.5,-94.05 750.09,-90.74"/>
<text text-anchor="middle" x="483.5" y="-302" font-family="Helvetica,sans-Serif" font-size="10.00"> &#45;m_CameraEntity</text>
<text text-anchor="middle" x="483.5" y="-291" font-family="Helvetica,sans-Serif" font-size="10.00">&#45;m_SecondCamera</text>
<text text-anchor="middle" x="483.5" y="-280" font-family="Helvetica,sans-Serif" font-size="10.00">&#45;m_SquareEntity</text>
</g>
<!-- Node7 -->
<g id="node7" class="node">
<title>Node7</title>
<g id="a_node7"><a xlink:href="classgauri_1_1SceneHierarchyPanel.html" target="_top" xlink:title=" ">
<polygon fill="white" stroke="black" points="539,-237.5 539,-349.5 789,-349.5 789,-237.5 539,-237.5"/>
<text text-anchor="middle" x="664" y="-337.5" font-family="Helvetica,sans-Serif" font-size="10.00">gauri::SceneHierarchyPanel</text>
<polyline fill="none" stroke="black" points="539,-330.5 789,-330.5 "/>
<text text-anchor="middle" x="664" y="-318.5" font-family="Helvetica,sans-Serif" font-size="10.00"> </text>
<polyline fill="none" stroke="black" points="539,-311.5 789,-311.5 "/>
<text text-anchor="start" x="547" y="-299.5" font-family="Helvetica,sans-Serif" font-size="10.00">+ SceneHierarchyPanel()=default</text>
<text text-anchor="start" x="547" y="-288.5" font-family="Helvetica,sans-Serif" font-size="10.00">+ SceneHierarchyPanel(Ref&lt; Scene &gt; &amp;scene)</text>
<text text-anchor="start" x="547" y="-277.5" font-family="Helvetica,sans-Serif" font-size="10.00">+ void SetContext(const Ref&lt; Scene &gt; &amp;scene)</text>
<text text-anchor="start" x="547" y="-266.5" font-family="Helvetica,sans-Serif" font-size="10.00">+ void OnImGuiRender()</text>
<text text-anchor="start" x="547" y="-255.5" font-family="Helvetica,sans-Serif" font-size="10.00">&#45; void DrawEntityNode(Entity entity)</text>
<text text-anchor="start" x="547" y="-244.5" font-family="Helvetica,sans-Serif" font-size="10.00">&#45; void DrawComponents(Entity entity)</text>
</a>
</g>
</g>
<!-- Node5&#45;&gt;Node7 -->
<g id="edge7" class="edge">
<title>Node5&#45;&gt;Node7</title>
<path fill="none" stroke="#404040" d="M519.52,-407.4C536.27,-394.31 560.21,-375.61 583.8,-357.17"/>
<polygon fill="none" stroke="#404040" points="584.05,-356.98 586.32,-350.13 593.51,-349.59 591.24,-356.43 584.05,-356.98"/>
<text text-anchor="middle" x="618" y="-371" font-family="Helvetica,sans-Serif" font-size="10.00"> &#45;m_SelectionContext</text>
</g>
<!-- Node6 -->
<g id="node6" class="node">
<title>Node6</title>
<g id="a_node6"><a xlink:title=" ">
<polygon fill="white" stroke="#bfbfbf" points="925,-265 925,-322 1041,-322 1041,-265 925,-265"/>
<text text-anchor="middle" x="983" y="-310" font-family="Helvetica,sans-Serif" font-size="10.00">Ref&lt; FrameBuffer &gt;</text>
<polyline fill="none" stroke="#bfbfbf" points="925,-303 1041,-303 "/>
<text text-anchor="middle" x="983" y="-291" font-family="Helvetica,sans-Serif" font-size="10.00"> </text>
<polyline fill="none" stroke="#bfbfbf" points="925,-284 1041,-284 "/>
<text text-anchor="middle" x="983" y="-272" font-family="Helvetica,sans-Serif" font-size="10.00"> </text>
</a>
</g>
</g>
<!-- Node6&#45;&gt;Node1 -->
<g id="edge5" class="edge">
<title>Node6&#45;&gt;Node1</title>
<path fill="none" stroke="#404040" d="M958.95,-264.82C948.23,-251.56 936.02,-235.1 927,-219 920,-206.5 913.52,-192.86 907.68,-179.23"/>
<polygon fill="none" stroke="#404040" points="907.54,-178.89 901.54,-174.88 902.94,-167.81 908.93,-171.81 907.54,-178.89"/>
<text text-anchor="middle" x="968" y="-200" font-family="Helvetica,sans-Serif" font-size="10.00"> &#45;m_FrameBuffer</text>
</g>
<!-- Node7&#45;&gt;Node1 -->
<g id="edge6" class="edge">
<title>Node7&#45;&gt;Node1</title>
<path fill="none" stroke="#404040" d="M666.23,-237.26C669.22,-219.51 675.04,-200.67 686,-186 703.05,-163.18 726.81,-144.98 751.74,-130.67"/>
<polygon fill="none" stroke="#404040" points="751.96,-130.55 755.29,-124.16 762.48,-124.78 759.14,-131.17 751.96,-130.55"/>
<text text-anchor="middle" x="748.5" y="-200" font-family="Helvetica,sans-Serif" font-size="10.00"> &#45;m_SceneHierarchyPanel</text>
</g>
<!-- Node8 -->
<g id="node8" class="node">
<title>Node8</title>
<g id="a_node8"><a xlink:title=" ">
<polygon fill="white" stroke="#bfbfbf" points="722.5,-397.5 722.5,-454.5 807.5,-454.5 807.5,-397.5 722.5,-397.5"/>
<text text-anchor="middle" x="765" y="-442.5" font-family="Helvetica,sans-Serif" font-size="10.00">Ref&lt; Scene &gt;</text>
<polyline fill="none" stroke="#bfbfbf" points="722.5,-435.5 807.5,-435.5 "/>
<text text-anchor="middle" x="765" y="-423.5" font-family="Helvetica,sans-Serif" font-size="10.00"> </text>
<polyline fill="none" stroke="#bfbfbf" points="722.5,-416.5 807.5,-416.5 "/>
<text text-anchor="middle" x="765" y="-404.5" font-family="Helvetica,sans-Serif" font-size="10.00"> </text>
</a>
</g>
</g>
<!-- Node8&#45;&gt;Node1 -->
<g id="edge14" class="edge">
<title>Node8&#45;&gt;Node1</title>
<path fill="none" stroke="#404040" d="M782.03,-397.31C785.28,-391.4 788.45,-385.09 791,-379 798.87,-360.19 827.54,-258.1 849.22,-179.44"/>
<polygon fill="none" stroke="#404040" points="849.31,-179.1 847.05,-172.25 852.49,-167.53 854.76,-174.37 849.31,-179.1"/>
<text text-anchor="middle" x="873" y="-291" font-family="Helvetica,sans-Serif" font-size="10.00"> &#45;m_ActiveScene</text>
</g>
<!-- Node8&#45;&gt;Node7 -->
<g id="edge8" class="edge">
<title>Node8&#45;&gt;Node7</title>
<path fill="none" stroke="#404040" d="M743.58,-397.32C734.91,-386.13 724.51,-372.69 714.13,-359.28"/>
<polygon fill="none" stroke="#404040" points="713.95,-359.04 707.11,-356.74 706.6,-349.55 713.44,-351.84 713.95,-359.04"/>
<text text-anchor="middle" x="756.5" y="-371" font-family="Helvetica,sans-Serif" font-size="10.00"> &#45;m_Context</text>
</g>
<!-- Node9 -->
<g id="node9" class="node">
<title>Node9</title>
<g id="a_node9"><a xlink:title=" ">
<polygon fill="white" stroke="#bfbfbf" points="1059.5,-265 1059.5,-322 1164.5,-322 1164.5,-265 1059.5,-265"/>
<text text-anchor="middle" x="1112" y="-310" font-family="Helvetica,sans-Serif" font-size="10.00">Ref&lt; Texture2D &gt;</text>
<polyline fill="none" stroke="#bfbfbf" points="1059.5,-303 1164.5,-303 "/>
<text text-anchor="middle" x="1112" y="-291" font-family="Helvetica,sans-Serif" font-size="10.00"> </text>
<polyline fill="none" stroke="#bfbfbf" points="1059.5,-284 1164.5,-284 "/>
<text text-anchor="middle" x="1112" y="-272" font-family="Helvetica,sans-Serif" font-size="10.00"> </text>
</a>
</g>
</g>
<!-- Node9&#45;&gt;Node1 -->
<g id="edge9" class="edge">
<title>Node9&#45;&gt;Node1</title>
<path fill="none" stroke="#404040" d="M1080.48,-264.82C1061.84,-248.21 1040.32,-228.52 1032,-219 1020.24,-205.54 1021.4,-198.87 1009,-186 1005.04,-181.89 1000.9,-177.82 996.63,-173.8"/>
<polygon fill="none" stroke="#404040" points="996.56,-173.74 989.44,-172.64 987.71,-165.64 994.84,-166.74 996.56,-173.74"/>
<text text-anchor="middle" x="1094.5" y="-200" font-family="Helvetica,sans-Serif" font-size="10.00"> &#45;m_CheckerboardTexture</text>
</g>
<!-- Node10 -->
<g id="node10" class="node">
<title>Node10</title>
<g id="a_node10"><a xlink:title=" ">
<polygon fill="white" stroke="#bfbfbf" points="1183,-265 1183,-322 1221,-322 1221,-265 1183,-265"/>
<text text-anchor="middle" x="1202" y="-310" font-family="Helvetica,sans-Serif" font-size="10.00">bool</text>
<polyline fill="none" stroke="#bfbfbf" points="1183,-303 1221,-303 "/>
<text text-anchor="middle" x="1202" y="-291" font-family="Helvetica,sans-Serif" font-size="10.00"> </text>
<polyline fill="none" stroke="#bfbfbf" points="1183,-284 1221,-284 "/>
<text text-anchor="middle" x="1202" y="-272" font-family="Helvetica,sans-Serif" font-size="10.00"> </text>
</a>
</g>
</g>
<!-- Node10&#45;&gt;Node1 -->
<g id="edge10" class="edge">
<title>Node10&#45;&gt;Node1</title>
<path fill="none" stroke="#404040" d="M1193.2,-265C1183.88,-237.34 1168.89,-197.24 1157,-186 1113.97,-145.3 1053.41,-120.83 999.43,-106.2"/>
<polygon fill="none" stroke="#404040" points="999.28,-106.16 992.47,-108.51 987.67,-103.13 994.48,-100.77 999.28,-106.16"/>
<text text-anchor="middle" x="1226" y="-211" font-family="Helvetica,sans-Serif" font-size="10.00"> &#45;m_PrimaryCamera</text>
<text text-anchor="middle" x="1226" y="-200" font-family="Helvetica,sans-Serif" font-size="10.00">&#45;m_ViewportFocused</text>
<text text-anchor="middle" x="1226" y="-189" font-family="Helvetica,sans-Serif" font-size="10.00">&#45;m_ViewportHovered</text>
</g>
<!-- Node11 -->
<g id="node11" class="node">
<title>Node11</title>
<g id="a_node11"><a xlink:title=" ">
<polygon fill="white" stroke="#bfbfbf" points="1261.5,-265 1261.5,-322 1350.5,-322 1350.5,-265 1261.5,-265"/>
<text text-anchor="middle" x="1306" y="-310" font-family="Helvetica,sans-Serif" font-size="10.00">Ref&lt; Shader &gt;</text>
<polyline fill="none" stroke="#bfbfbf" points="1261.5,-303 1350.5,-303 "/>
<text text-anchor="middle" x="1306" y="-291" font-family="Helvetica,sans-Serif" font-size="10.00"> </text>
<polyline fill="none" stroke="#bfbfbf" points="1261.5,-284 1350.5,-284 "/>
<text text-anchor="middle" x="1306" y="-272" font-family="Helvetica,sans-Serif" font-size="10.00"> </text>
</a>
</g>
</g>
<!-- Node11&#45;&gt;Node1 -->
<g id="edge11" class="edge">
<title>Node11&#45;&gt;Node1</title>
<path fill="none" stroke="#404040" d="M1307.32,-264.72C1306.89,-240.72 1302.28,-206.73 1282,-186 1242.9,-146.04 1104.23,-117.68 999.53,-101.38"/>
<polygon fill="none" stroke="#404040" points="999.45,-101.36 992.91,-104.41 987.59,-99.55 994.12,-96.5 999.45,-101.36"/>
<text text-anchor="middle" x="1350" y="-200" font-family="Helvetica,sans-Serif" font-size="10.00"> &#45;m_FlatColorShader</text>
</g>
<!-- Node12 -->
<g id="node12" class="node">
<title>Node12</title>
<g id="a_node12"><a xlink:title=" ">
<polygon fill="white" stroke="#bfbfbf" points="1409,-265 1409,-322 1449,-322 1449,-265 1409,-265"/>
<text text-anchor="middle" x="1429" y="-310" font-family="Helvetica,sans-Serif" font-size="10.00">vec2</text>
<polyline fill="none" stroke="#bfbfbf" points="1409,-303 1449,-303 "/>
<text text-anchor="middle" x="1429" y="-291" font-family="Helvetica,sans-Serif" font-size="10.00"> </text>
<polyline fill="none" stroke="#bfbfbf" points="1409,-284 1449,-284 "/>
<text text-anchor="middle" x="1429" y="-272" font-family="Helvetica,sans-Serif" font-size="10.00"> </text>
</a>
</g>
</g>
<!-- Node12&#45;&gt;Node1 -->
<g id="edge12" class="edge">
<title>Node12&#45;&gt;Node1</title>
<path fill="none" stroke="#404040" d="M1430.31,-264.89C1429.87,-240.67 1425.11,-206.24 1404,-186 1347.38,-131.7 1137.68,-105.19 999.92,-93.37"/>
<polygon fill="none" stroke="#404040" points="999.61,-93.34 993.3,-96.83 987.65,-92.34 993.97,-88.85 999.61,-93.34"/>
<text text-anchor="middle" x="1466" y="-200" font-family="Helvetica,sans-Serif" font-size="10.00"> &#45;m_ViewportSize</text>
</g>
<!-- Node13 -->
<g id="node13" class="node">
<title>Node13</title>
<g id="a_node13"><a xlink:title=" ">
<polygon fill="white" stroke="#bfbfbf" points="1518,-265 1518,-322 1558,-322 1558,-265 1518,-265"/>
<text text-anchor="middle" x="1538" y="-310" font-family="Helvetica,sans-Serif" font-size="10.00">vec4</text>
<polyline fill="none" stroke="#bfbfbf" points="1518,-303 1558,-303 "/>
<text text-anchor="middle" x="1538" y="-291" font-family="Helvetica,sans-Serif" font-size="10.00"> </text>
<polyline fill="none" stroke="#bfbfbf" points="1518,-284 1558,-284 "/>
<text text-anchor="middle" x="1538" y="-272" font-family="Helvetica,sans-Serif" font-size="10.00"> </text>
</a>
</g>
</g>
<!-- Node13&#45;&gt;Node1 -->
<g id="edge13" class="edge">
<title>Node13&#45;&gt;Node1</title>
<path fill="none" stroke="#404040" d="M1539.46,-264.73C1539.12,-240.4 1534.43,-205.91 1513,-186 1440.41,-118.56 1164.06,-96.1 999.83,-88.66"/>
<polygon fill="none" stroke="#404040" points="999.7,-88.65 993.53,-92.39 987.71,-88.13 993.88,-84.39 999.7,-88.65"/>
<text text-anchor="middle" x="1573" y="-200" font-family="Helvetica,sans-Serif" font-size="10.00"> &#45;m_SquareColor</text>
</g>
</g>
</svg>
