<?xml version="1.0" encoding="UTF-8" standalone="no"?>
<!DOCTYPE svg PUBLIC "-//W3C//DTD SVG 1.1//EN"
 "http://www.w3.org/Graphics/SVG/1.1/DTD/svg11.dtd">
<!-- Generated by graphviz version 2.43.0 (0)
 -->
<!-- Title: gauri::EditorLayer::OnImGuiRender Pages: 1 -->
<svg width="920pt" height="180pt"
 viewBox="0.00 0.00 920.00 180.00" xmlns="http://www.w3.org/2000/svg" xmlns:xlink="http://www.w3.org/1999/xlink">
<g id="graph0" class="graph" transform="scale(1 1) rotate(0) translate(4 176)">
<title>gauri::EditorLayer::OnImGuiRender</title>
<polygon fill="white" stroke="transparent" points="-4,4 -4,-176 916,-176 916,4 -4,4"/>
<!-- Node1 -->
<g id="node1" class="node">
<title>Node1</title>
<g id="a_node1"><a xlink:title=" ">
<polygon fill="#bfbfbf" stroke="black" points="0,-76.5 0,-95.5 186,-95.5 186,-76.5 0,-76.5"/>
<text text-anchor="middle" x="93" y="-83.5" font-family="Helvetica,sans-Serif" font-size="10.00">gauri::EditorLayer::OnImGuiRender</text>
</a>
</g>
</g>
<!-- Node2 -->
<g id="node2" class="node">
<title>Node2</title>
<g id="a_node2"><a xlink:href="classgauri_1_1SceneHierarchyPanel.html#a387d4118ebfb95fe5c079cb2c8f9b82f" target="_top" xlink:title=" ">
<polygon fill="white" stroke="black" points="222,-152.5 222,-171.5 466,-171.5 466,-152.5 222,-152.5"/>
<text text-anchor="middle" x="344" y="-159.5" font-family="Helvetica,sans-Serif" font-size="10.00">gauri::SceneHierarchyPanel::GetSelectedEntity</text>
</a>
</g>
</g>
<!-- Node1&#45;&gt;Node2 -->
<g id="edge1" class="edge">
<title>Node1&#45;&gt;Node2</title>
<path fill="none" stroke="midnightblue" d="M111.66,-95.67C135.84,-108.47 180.94,-130.87 222,-143 231.89,-145.92 242.38,-148.42 252.88,-150.55"/>
<polygon fill="midnightblue" stroke="midnightblue" points="252.45,-154.03 262.93,-152.48 253.77,-147.16 252.45,-154.03"/>
</g>
<!-- Node3 -->
<g id="node3" class="node">
<title>Node3</title>
<g id="a_node3"><a xlink:href="classgauri_1_1EditorLayer.html#ab384f23d003691c354eaffade96057ee" target="_top" xlink:title=" ">
<polygon fill="white" stroke="black" points="264,-114.5 264,-133.5 424,-133.5 424,-114.5 264,-114.5"/>
<text text-anchor="middle" x="344" y="-121.5" font-family="Helvetica,sans-Serif" font-size="10.00">gauri::EditorLayer::NewScene</text>
</a>
</g>
</g>
<!-- Node1&#45;&gt;Node3 -->
<g id="edge2" class="edge">
<title>Node1&#45;&gt;Node3</title>
<path fill="none" stroke="midnightblue" d="M156.51,-95.54C191.14,-100.83 234.37,-107.42 270.48,-112.93"/>
<polygon fill="midnightblue" stroke="midnightblue" points="270.05,-116.41 280.46,-114.46 271.1,-109.49 270.05,-116.41"/>
</g>
<!-- Node5 -->
<g id="node5" class="node">
<title>Node5</title>
<g id="a_node5"><a xlink:href="classgauri_1_1SceneHierarchyPanel.html#ab3606cea4c4f011374fc31c352afdb8e" target="_top" xlink:title=" ">
<polygon fill="white" stroke="black" points="227.5,-38.5 227.5,-57.5 460.5,-57.5 460.5,-38.5 227.5,-38.5"/>
<text text-anchor="middle" x="344" y="-45.5" font-family="Helvetica,sans-Serif" font-size="10.00">gauri::SceneHierarchyPanel::OnImGuiRender</text>
</a>
</g>
</g>
<!-- Node1&#45;&gt;Node5 -->
<g id="edge4" class="edge">
<title>Node1&#45;&gt;Node5</title>
<path fill="none" stroke="midnightblue" d="M156.51,-76.46C191.14,-71.17 234.37,-64.58 270.48,-59.07"/>
<polygon fill="midnightblue" stroke="midnightblue" points="271.1,-62.51 280.46,-57.54 270.05,-55.59 271.1,-62.51"/>
</g>
<!-- Node9 -->
<g id="node9" class="node">
<title>Node9</title>
<g id="a_node9"><a xlink:href="classgauri_1_1EditorLayer.html#a8c57055c9d8687ed121c07190ab77c88" target="_top" xlink:title=" ">
<polygon fill="white" stroke="black" points="262,-76.5 262,-95.5 426,-95.5 426,-76.5 262,-76.5"/>
<text text-anchor="middle" x="344" y="-83.5" font-family="Helvetica,sans-Serif" font-size="10.00">gauri::EditorLayer::OpenScene</text>
</a>
</g>
</g>
<!-- Node1&#45;&gt;Node9 -->
<g id="edge8" class="edge">
<title>Node1&#45;&gt;Node9</title>
<path fill="none" stroke="midnightblue" d="M186.01,-86C207.42,-86 230.2,-86 251.59,-86"/>
<polygon fill="midnightblue" stroke="midnightblue" points="251.63,-89.5 261.63,-86 251.63,-82.5 251.63,-89.5"/>
</g>
<!-- Node10 -->
<g id="node10" class="node">
<title>Node10</title>
<g id="a_node10"><a xlink:href="classgauri_1_1EditorLayer.html#a44fd9d6fab3d845c7127b38bd981bfa9" target="_top" xlink:title=" ">
<polygon fill="white" stroke="black" points="257,-0.5 257,-19.5 431,-19.5 431,-0.5 257,-0.5"/>
<text text-anchor="middle" x="344" y="-7.5" font-family="Helvetica,sans-Serif" font-size="10.00">gauri::EditorLayer::SaveSceneAs</text>
</a>
</g>
</g>
<!-- Node1&#45;&gt;Node10 -->
<g id="edge10" class="edge">
<title>Node1&#45;&gt;Node10</title>
<path fill="none" stroke="midnightblue" d="M111.66,-76.33C135.84,-63.53 180.94,-41.13 222,-29 231.89,-26.08 242.38,-23.58 252.88,-21.45"/>
<polygon fill="midnightblue" stroke="midnightblue" points="253.77,-24.84 262.93,-19.52 252.45,-17.97 253.77,-24.84"/>
</g>
<!-- Node4 -->
<g id="node4" class="node">
<title>Node4</title>
<g id="a_node4"><a xlink:href="classgauri_1_1SceneHierarchyPanel.html#a073f2d95cd8d8b04975b724388ce29b9" target="_top" xlink:title=" ">
<polygon fill="white" stroke="black" points="518.5,-95.5 518.5,-114.5 728.5,-114.5 728.5,-95.5 518.5,-95.5"/>
<text text-anchor="middle" x="623.5" y="-102.5" font-family="Helvetica,sans-Serif" font-size="10.00">gauri::SceneHierarchyPanel::SetContext</text>
</a>
</g>
</g>
<!-- Node3&#45;&gt;Node4 -->
<g id="edge3" class="edge">
<title>Node3&#45;&gt;Node4</title>
<path fill="none" stroke="midnightblue" d="M424.15,-118.58C450.26,-116.79 479.85,-114.77 508.05,-112.84"/>
<polygon fill="midnightblue" stroke="midnightblue" points="508.63,-116.3 518.37,-112.13 508.15,-109.32 508.63,-116.3"/>
</g>
<!-- Node6 -->
<g id="node6" class="node">
<title>Node6</title>
<g id="a_node6"><a xlink:href="classgauri_1_1SceneHierarchyPanel.html#a9144740cb48b4a524479ec129857d898" target="_top" xlink:title=" ">
<polygon fill="white" stroke="black" points="502,-38.5 502,-57.5 745,-57.5 745,-38.5 502,-38.5"/>
<text text-anchor="middle" x="623.5" y="-45.5" font-family="Helvetica,sans-Serif" font-size="10.00">gauri::SceneHierarchyPanel::DrawComponents</text>
</a>
</g>
</g>
<!-- Node5&#45;&gt;Node6 -->
<g id="edge5" class="edge">
<title>Node5&#45;&gt;Node6</title>
<path fill="none" stroke="midnightblue" d="M460.68,-48C470.83,-48 481.14,-48 491.41,-48"/>
<polygon fill="midnightblue" stroke="midnightblue" points="491.64,-51.5 501.64,-48 491.64,-44.5 491.64,-51.5"/>
</g>
<!-- Node8 -->
<g id="node8" class="node">
<title>Node8</title>
<g id="a_node8"><a xlink:href="classgauri_1_1SceneHierarchyPanel.html#ac786ab8a880c239274af1ce3a26351af" target="_top" xlink:title=" ">
<polygon fill="white" stroke="black" points="505.5,-0.5 505.5,-19.5 741.5,-19.5 741.5,-0.5 505.5,-0.5"/>
<text text-anchor="middle" x="623.5" y="-7.5" font-family="Helvetica,sans-Serif" font-size="10.00">gauri::SceneHierarchyPanel::DrawEntityNode</text>
</a>
</g>
</g>
<!-- Node5&#45;&gt;Node8 -->
<g id="edge7" class="edge">
<title>Node5&#45;&gt;Node8</title>
<path fill="none" stroke="midnightblue" d="M414.67,-38.46C453.59,-33.13 502.26,-26.47 542.71,-20.93"/>
<polygon fill="midnightblue" stroke="midnightblue" points="543.37,-24.37 552.8,-19.54 542.42,-17.43 543.37,-24.37"/>
</g>
<!-- Node7 -->
<g id="node7" class="node">
<title>Node7</title>
<g id="a_node7"><a xlink:href="namespacegauri.html#afd9399fc349c8e2f2c0377351d7460a5" target="_top" xlink:title=" ">
<polygon fill="white" stroke="black" points="781,-38.5 781,-57.5 912,-57.5 912,-38.5 781,-38.5"/>
<text text-anchor="middle" x="846.5" y="-45.5" font-family="Helvetica,sans-Serif" font-size="10.00">gauri::DrawVec3Control</text>
</a>
</g>
</g>
<!-- Node6&#45;&gt;Node7 -->
<g id="edge6" class="edge">
<title>Node6&#45;&gt;Node7</title>
<path fill="none" stroke="midnightblue" d="M745.02,-48C753.78,-48 762.46,-48 770.83,-48"/>
<polygon fill="midnightblue" stroke="midnightblue" points="770.87,-51.5 780.87,-48 770.87,-44.5 770.87,-51.5"/>
</g>
<!-- Node9&#45;&gt;Node4 -->
<g id="edge9" class="edge">
<title>Node9&#45;&gt;Node4</title>
<path fill="none" stroke="midnightblue" d="M426.01,-91.55C451.73,-93.31 480.67,-95.29 508.27,-97.18"/>
<polygon fill="midnightblue" stroke="midnightblue" points="508.15,-100.68 518.37,-97.87 508.63,-93.7 508.15,-100.68"/>
</g>
</g>
</svg>
