<?xml version="1.0" encoding="UTF-8" standalone="no"?>
<!DOCTYPE svg PUBLIC "-//W3C//DTD SVG 1.1//EN"
 "http://www.w3.org/Graphics/SVG/1.1/DTD/svg11.dtd">
<!-- Generated by graphviz version 2.43.0 (0)
 -->
<!-- Title: gauri::EditorLayer Pages: 1 -->
<!--zoomable 259 -->
<svg id="main" version="1.1" xmlns="http://www.w3.org/2000/svg" xmlns:xlink="http://www.w3.org/1999/xlink" xml:space="preserve" onload="init(evt)">
<style type="text/css"><![CDATA[
.edge:hover path { stroke: red; }
.edge:hover polygon { stroke: red; fill: red; }
]]></style>
<script type="text/javascript"><![CDATA[
var edges = document.getElementsByTagName('g');
if (edges && edges.length) {
  for (var i=0;i<edges.length;i++) {
    if (edges[i].id.substr(0,4)=='edge') {
      edges[i].setAttribute('class','edge');
    }
  }
}
]]></script>
        <defs>
                <circle id="rim" cx="0" cy="0" r="7"/>
                <circle id="rim2" cx="0" cy="0" r="3.5"/>
                <g id="zoomPlus">
                        <use xlink:href="#rim" fill="#404040">
                                <set attributeName="fill" to="#808080" begin="zoomplus.mouseover" end="zoomplus.mouseout"/>
                        </use>
                        <path d="M-4,0h8M0,-4v8" fill="none" stroke="white" stroke-width="1.5" pointer-events="none"/>
                </g>
                <g id="zoomMin">
                        <use xlink:href="#rim" fill="#404040">
                                <set attributeName="fill" to="#808080" begin="zoomminus.mouseover" end="zoomminus.mouseout"/>
                        </use>
                        <path d="M-4,0h8" fill="none" stroke="white" stroke-width="1.5" pointer-events="none"/>
                </g>
                <g id="dirArrow">
                        <path fill="none" stroke="white" stroke-width="1.5" d="M0,-3.0v7 M-2.5,-0.5L0,-3.0L2.5,-0.5"/>
                </g>
               <g id="resetDef">
                       <use xlink:href="#rim2" fill="#404040">
                               <set attributeName="fill" to="#808080" begin="reset.mouseover" end="reset.mouseout"/>
                       </use>
               </g>
        </defs>

<script type="text/javascript">
var viewWidth = 1350;
var viewHeight = 259;
var sectionId = 'dynsection-1';
</script>
<script xlink:href="svgpan.js"/>
<svg id="graph" class="graph">
<g id="viewport">
<title>gauri::EditorLayer</title>
<polygon fill="white" stroke="transparent" points="-4,4 -4,-255 1346,-255 1346,4 -4,4"/>
<!-- Node1 -->
<g id="node1" class="node">
<title>Node1</title>
<g id="a_node1"><a xlink:title=" ">
<polygon fill="#bfbfbf" stroke="black" points="551,-0.5 551,-123.5 761,-123.5 761,-0.5 551,-0.5"/>
<text text-anchor="middle" x="656" y="-111.5" font-family="Helvetica,sans-Serif" font-size="10.00">gauri::EditorLayer</text>
<polyline fill="none" stroke="black" points="551,-104.5 761,-104.5 "/>
<text text-anchor="middle" x="656" y="-92.5" font-family="Helvetica,sans-Serif" font-size="10.00"> </text>
<polyline fill="none" stroke="black" points="551,-85.5 761,-85.5 "/>
<text text-anchor="start" x="559" y="-73.5" font-family="Helvetica,sans-Serif" font-size="10.00">+ EditorLayer()</text>
<text text-anchor="start" x="559" y="-62.5" font-family="Helvetica,sans-Serif" font-size="10.00">+ ~EditorLayer() override=default</text>
<text text-anchor="start" x="559" y="-51.5" font-family="Helvetica,sans-Serif" font-size="10.00">+ void OnAttach() override</text>
<text text-anchor="start" x="559" y="-40.5" font-family="Helvetica,sans-Serif" font-size="10.00">+ void OnDetach() override</text>
<text text-anchor="start" x="559" y="-29.5" font-family="Helvetica,sans-Serif" font-size="10.00">+ void OnUpdate(Timestep ts) override</text>
<text text-anchor="start" x="559" y="-18.5" font-family="Helvetica,sans-Serif" font-size="10.00">+ void OnImGuiRender() override</text>
<text text-anchor="start" x="559" y="-7.5" font-family="Helvetica,sans-Serif" font-size="10.00">+ void OnEvent(Event &amp;event) override</text>
</a>
</g>
</g>
<!-- Node2 -->
<g id="node2" class="node">
<title>Node2</title>
<g id="a_node2"><a xlink:title=" ">
<polygon fill="white" stroke="#bfbfbf" points="0,-193.5 0,-250.5 74,-250.5 74,-193.5 0,-193.5"/>
<text text-anchor="middle" x="37" y="-238.5" font-family="Helvetica,sans-Serif" font-size="10.00">gauri::Layer</text>
<polyline fill="none" stroke="#bfbfbf" points="0,-231.5 74,-231.5 "/>
<text text-anchor="middle" x="37" y="-219.5" font-family="Helvetica,sans-Serif" font-size="10.00"> </text>
<polyline fill="none" stroke="#bfbfbf" points="0,-212.5 74,-212.5 "/>
<text text-anchor="middle" x="37" y="-200.5" font-family="Helvetica,sans-Serif" font-size="10.00"> </text>
</a>
</g>
</g>
<!-- Node2&#45;&gt;Node1 -->
<g id="edge1" class="edge">
<title>Node2&#45;&gt;Node1</title>
<path fill="none" stroke="midnightblue" d="M82.87,-191.67C111.9,-174.49 150.84,-153.89 188,-142 309.25,-103.2 454.61,-82.46 550.81,-72.11"/>
<polygon fill="none" stroke="midnightblue" points="80.97,-188.74 74.2,-196.88 84.57,-194.74 80.97,-188.74"/>
</g>
<!-- Node3 -->
<g id="node3" class="node">
<title>Node3</title>
<g id="a_node3"><a xlink:title=" ">
<polygon fill="white" stroke="#bfbfbf" points="92.5,-193.5 92.5,-250.5 205.5,-250.5 205.5,-193.5 92.5,-193.5"/>
<text text-anchor="middle" x="149" y="-238.5" font-family="Helvetica,sans-Serif" font-size="10.00">Ref&lt; VertexArray &gt;</text>
<polyline fill="none" stroke="#bfbfbf" points="92.5,-231.5 205.5,-231.5 "/>
<text text-anchor="middle" x="149" y="-219.5" font-family="Helvetica,sans-Serif" font-size="10.00"> </text>
<polyline fill="none" stroke="#bfbfbf" points="92.5,-212.5 205.5,-212.5 "/>
<text text-anchor="middle" x="149" y="-200.5" font-family="Helvetica,sans-Serif" font-size="10.00"> </text>
</a>
</g>
</g>
<!-- Node3&#45;&gt;Node1 -->
<g id="edge2" class="edge">
<title>Node3&#45;&gt;Node1</title>
<path fill="none" stroke="#404040" d="M172.05,-193.34C188.16,-175.88 211.16,-154.36 236,-142 331.17,-94.66 451.35,-75.56 538.75,-67.93"/>
<polygon fill="none" stroke="#404040" points="538.9,-67.91 544.55,-63.43 550.86,-66.92 545.21,-71.4 538.9,-67.91"/>
<text text-anchor="middle" x="270.5" y="-156" font-family="Helvetica,sans-Serif" font-size="10.00"> &#45;m_SquareVA</text>
</g>
<!-- Node4 -->
<g id="node4" class="node">
<title>Node4</title>
<g id="a_node4"><a xlink:title=" ">
<polygon fill="white" stroke="#bfbfbf" points="224,-193.5 224,-250.5 390,-250.5 390,-193.5 224,-193.5"/>
<text text-anchor="middle" x="307" y="-238.5" font-family="Helvetica,sans-Serif" font-size="10.00">OrthographicCameraController</text>
<polyline fill="none" stroke="#bfbfbf" points="224,-231.5 390,-231.5 "/>
<text text-anchor="middle" x="307" y="-219.5" font-family="Helvetica,sans-Serif" font-size="10.00"> </text>
<polyline fill="none" stroke="#bfbfbf" points="224,-212.5 390,-212.5 "/>
<text text-anchor="middle" x="307" y="-200.5" font-family="Helvetica,sans-Serif" font-size="10.00"> </text>
</a>
</g>
</g>
<!-- Node4&#45;&gt;Node1 -->
<g id="edge3" class="edge">
<title>Node4&#45;&gt;Node1</title>
<path fill="none" stroke="#404040" d="M306.72,-193.38C308.05,-176.38 312.63,-155.36 326,-142 355.99,-112.04 456.56,-90.8 538.87,-77.94"/>
<polygon fill="none" stroke="#404040" points="539.01,-77.92 544.34,-73.06 550.87,-76.1 545.55,-80.97 539.01,-77.92"/>
<text text-anchor="middle" x="380.5" y="-156" font-family="Helvetica,sans-Serif" font-size="10.00"> &#45;m_CameraController</text>
</g>
<!-- Node5 -->
<g id="node5" class="node">
<title>Node5</title>
<g id="a_node5"><a xlink:title=" ">
<polygon fill="white" stroke="#bfbfbf" points="412.5,-193.5 412.5,-250.5 457.5,-250.5 457.5,-193.5 412.5,-193.5"/>
<text text-anchor="middle" x="435" y="-238.5" font-family="Helvetica,sans-Serif" font-size="10.00">Entity</text>
<polyline fill="none" stroke="#bfbfbf" points="412.5,-231.5 457.5,-231.5 "/>
<text text-anchor="middle" x="435" y="-219.5" font-family="Helvetica,sans-Serif" font-size="10.00"> </text>
<polyline fill="none" stroke="#bfbfbf" points="412.5,-212.5 457.5,-212.5 "/>
<text text-anchor="middle" x="435" y="-200.5" font-family="Helvetica,sans-Serif" font-size="10.00"> </text>
</a>
</g>
</g>
<!-- Node5&#45;&gt;Node1 -->
<g id="edge4" class="edge">
<title>Node5&#45;&gt;Node1</title>
<path fill="none" stroke="#404040" d="M435.84,-193.21C437.72,-176.58 442.66,-156.01 455,-142 477.13,-116.88 508.27,-99.67 539.45,-87.91"/>
<polygon fill="none" stroke="#404040" points="539.62,-87.85 543.92,-82.07 550.92,-83.82 546.61,-89.61 539.62,-87.85"/>
<text text-anchor="middle" x="501.5" y="-167" font-family="Helvetica,sans-Serif" font-size="10.00"> &#45;m_CameraEntity</text>
<text text-anchor="middle" x="501.5" y="-156" font-family="Helvetica,sans-Serif" font-size="10.00">&#45;m_SecondCamera</text>
<text text-anchor="middle" x="501.5" y="-145" font-family="Helvetica,sans-Serif" font-size="10.00">&#45;m_SquareEntity</text>
</g>
<!-- Node6 -->
<g id="node6" class="node">
<title>Node6</title>
<g id="a_node6"><a xlink:title=" ">
<polygon fill="white" stroke="#bfbfbf" points="485,-193.5 485,-250.5 601,-250.5 601,-193.5 485,-193.5"/>
<text text-anchor="middle" x="543" y="-238.5" font-family="Helvetica,sans-Serif" font-size="10.00">Ref&lt; FrameBuffer &gt;</text>
<polyline fill="none" stroke="#bfbfbf" points="485,-231.5 601,-231.5 "/>
<text text-anchor="middle" x="543" y="-219.5" font-family="Helvetica,sans-Serif" font-size="10.00"> </text>
<polyline fill="none" stroke="#bfbfbf" points="485,-212.5 601,-212.5 "/>
<text text-anchor="middle" x="543" y="-200.5" font-family="Helvetica,sans-Serif" font-size="10.00"> </text>
</a>
</g>
</g>
<!-- Node6&#45;&gt;Node1 -->
<g id="edge5" class="edge">
<title>Node6&#45;&gt;Node1</title>
<path fill="none" stroke="#404040" d="M547.49,-193.46C551.01,-177.51 557.02,-157.57 567,-142 568.88,-139.06 570.9,-136.17 573.03,-133.33"/>
<polygon fill="none" stroke="#404040" points="573.13,-133.21 573.79,-126.03 580.68,-123.88 580.01,-131.06 573.13,-133.21"/>
<text text-anchor="middle" x="608" y="-156" font-family="Helvetica,sans-Serif" font-size="10.00"> &#45;m_FrameBuffer</text>
</g>
<!-- Node7 -->
<g id="node7" class="node">
<title>Node7</title>
<g id="a_node7"><a xlink:title=" ">
<polygon fill="white" stroke="#bfbfbf" points="619.5,-193.5 619.5,-250.5 724.5,-250.5 724.5,-193.5 619.5,-193.5"/>
<text text-anchor="middle" x="672" y="-238.5" font-family="Helvetica,sans-Serif" font-size="10.00">Ref&lt; Texture2D &gt;</text>
<polyline fill="none" stroke="#bfbfbf" points="619.5,-231.5 724.5,-231.5 "/>
<text text-anchor="middle" x="672" y="-219.5" font-family="Helvetica,sans-Serif" font-size="10.00"> </text>
<polyline fill="none" stroke="#bfbfbf" points="619.5,-212.5 724.5,-212.5 "/>
<text text-anchor="middle" x="672" y="-200.5" font-family="Helvetica,sans-Serif" font-size="10.00"> </text>
</a>
</g>
</g>
<!-- Node7&#45;&gt;Node1 -->
<g id="edge6" class="edge">
<title>Node7&#45;&gt;Node1</title>
<path fill="none" stroke="#404040" d="M661.4,-193.12C659.59,-187.22 657.98,-180.97 657,-175 654.96,-162.49 653.89,-149.1 653.43,-136.07"/>
<polygon fill="none" stroke="#404040" points="653.42,-135.74 649.3,-129.82 653.17,-123.74 657.29,-129.65 653.42,-135.74"/>
<text text-anchor="middle" x="719.5" y="-156" font-family="Helvetica,sans-Serif" font-size="10.00"> &#45;m_CheckerboardTexture</text>
</g>
<!-- Node8 -->
<g id="node8" class="node">
<title>Node8</title>
<g id="a_node8"><a xlink:title=" ">
<polygon fill="white" stroke="#bfbfbf" points="785,-193.5 785,-250.5 823,-250.5 823,-193.5 785,-193.5"/>
<text text-anchor="middle" x="804" y="-238.5" font-family="Helvetica,sans-Serif" font-size="10.00">bool</text>
<polyline fill="none" stroke="#bfbfbf" points="785,-231.5 823,-231.5 "/>
<text text-anchor="middle" x="804" y="-219.5" font-family="Helvetica,sans-Serif" font-size="10.00"> </text>
<polyline fill="none" stroke="#bfbfbf" points="785,-212.5 823,-212.5 "/>
<text text-anchor="middle" x="804" y="-200.5" font-family="Helvetica,sans-Serif" font-size="10.00"> </text>
</a>
</g>
</g>
<!-- Node8&#45;&gt;Node1 -->
<g id="edge7" class="edge">
<title>Node8&#45;&gt;Node1</title>
<path fill="none" stroke="#404040" d="M801.3,-193.21C798.57,-176.97 793.07,-156.83 782,-142 778.33,-137.08 774.26,-132.4 769.88,-127.94"/>
<polygon fill="none" stroke="#404040" points="769.85,-127.91 762.74,-126.69 761.14,-119.66 768.24,-120.88 769.85,-127.91"/>
<text text-anchor="middle" x="848" y="-167" font-family="Helvetica,sans-Serif" font-size="10.00"> &#45;m_PrimaryCamera</text>
<text text-anchor="middle" x="848" y="-156" font-family="Helvetica,sans-Serif" font-size="10.00">&#45;m_ViewportFocused</text>
<text text-anchor="middle" x="848" y="-145" font-family="Helvetica,sans-Serif" font-size="10.00">&#45;m_ViewportHovered</text>
</g>
<!-- Node9 -->
<g id="node9" class="node">
<title>Node9</title>
<g id="a_node9"><a xlink:title=" ">
<polygon fill="white" stroke="#bfbfbf" points="886.5,-193.5 886.5,-250.5 975.5,-250.5 975.5,-193.5 886.5,-193.5"/>
<text text-anchor="middle" x="931" y="-238.5" font-family="Helvetica,sans-Serif" font-size="10.00">Ref&lt; Shader &gt;</text>
<polyline fill="none" stroke="#bfbfbf" points="886.5,-231.5 975.5,-231.5 "/>
<text text-anchor="middle" x="931" y="-219.5" font-family="Helvetica,sans-Serif" font-size="10.00"> </text>
<polyline fill="none" stroke="#bfbfbf" points="886.5,-212.5 975.5,-212.5 "/>
<text text-anchor="middle" x="931" y="-200.5" font-family="Helvetica,sans-Serif" font-size="10.00"> </text>
</a>
</g>
</g>
<!-- Node9&#45;&gt;Node1 -->
<g id="edge8" class="edge">
<title>Node9&#45;&gt;Node1</title>
<path fill="none" stroke="#404040" d="M927.83,-193.15C924.52,-176.28 917.77,-155.49 904,-142 868.95,-107.68 819.04,-88.26 773.17,-77.28"/>
<polygon fill="none" stroke="#404040" points="773,-77.24 766.26,-79.82 761.29,-74.6 768.02,-72.02 773,-77.24"/>
<text text-anchor="middle" x="973" y="-156" font-family="Helvetica,sans-Serif" font-size="10.00"> &#45;m_FlatColorShader</text>
</g>
<!-- Node10 -->
<g id="node10" class="node">
<title>Node10</title>
<g id="a_node10"><a xlink:title=" ">
<polygon fill="white" stroke="#bfbfbf" points="1034,-193.5 1034,-250.5 1074,-250.5 1074,-193.5 1034,-193.5"/>
<text text-anchor="middle" x="1054" y="-238.5" font-family="Helvetica,sans-Serif" font-size="10.00">vec2</text>
<polyline fill="none" stroke="#bfbfbf" points="1034,-231.5 1074,-231.5 "/>
<text text-anchor="middle" x="1054" y="-219.5" font-family="Helvetica,sans-Serif" font-size="10.00"> </text>
<polyline fill="none" stroke="#bfbfbf" points="1034,-212.5 1074,-212.5 "/>
<text text-anchor="middle" x="1054" y="-200.5" font-family="Helvetica,sans-Serif" font-size="10.00"> </text>
</a>
</g>
</g>
<!-- Node10&#45;&gt;Node1 -->
<g id="edge9" class="edge">
<title>Node10&#45;&gt;Node1</title>
<path fill="none" stroke="#404040" d="M1051.42,-193.44C1048.35,-176.24 1041.64,-154.99 1027,-142 989.8,-109 867.35,-87.44 773.19,-75.31"/>
<polygon fill="none" stroke="#404040" points="773.18,-75.31 766.73,-78.52 761.28,-73.8 767.73,-70.59 773.18,-75.31"/>
<text text-anchor="middle" x="1089" y="-156" font-family="Helvetica,sans-Serif" font-size="10.00"> &#45;m_ViewportSize</text>
</g>
<!-- Node11 -->
<g id="node11" class="node">
<title>Node11</title>
<g id="a_node11"><a xlink:title=" ">
<polygon fill="white" stroke="#bfbfbf" points="1143,-193.5 1143,-250.5 1183,-250.5 1183,-193.5 1143,-193.5"/>
<text text-anchor="middle" x="1163" y="-238.5" font-family="Helvetica,sans-Serif" font-size="10.00">vec4</text>
<polyline fill="none" stroke="#bfbfbf" points="1143,-231.5 1183,-231.5 "/>
<text text-anchor="middle" x="1163" y="-219.5" font-family="Helvetica,sans-Serif" font-size="10.00"> </text>
<polyline fill="none" stroke="#bfbfbf" points="1143,-212.5 1183,-212.5 "/>
<text text-anchor="middle" x="1163" y="-200.5" font-family="Helvetica,sans-Serif" font-size="10.00"> </text>
</a>
</g>
</g>
<!-- Node11&#45;&gt;Node1 -->
<g id="edge10" class="edge">
<title>Node11&#45;&gt;Node1</title>
<path fill="none" stroke="#404040" d="M1160.62,-193.21C1157.63,-175.92 1150.94,-154.64 1136,-142 1082.62,-96.83 897.42,-77.04 773.3,-68.7"/>
<polygon fill="none" stroke="#404040" points="773.08,-68.68 766.84,-72.28 761.11,-67.9 767.36,-64.3 773.08,-68.68"/>
<text text-anchor="middle" x="1196" y="-156" font-family="Helvetica,sans-Serif" font-size="10.00"> &#45;m_SquareColor</text>
</g>
<!-- Node12 -->
<g id="node12" class="node">
<title>Node12</title>
<g id="a_node12"><a xlink:title=" ">
<polygon fill="white" stroke="#bfbfbf" points="1225.5,-193.5 1225.5,-250.5 1310.5,-250.5 1310.5,-193.5 1225.5,-193.5"/>
<text text-anchor="middle" x="1268" y="-238.5" font-family="Helvetica,sans-Serif" font-size="10.00">Ref&lt; Scene &gt;</text>
<polyline fill="none" stroke="#bfbfbf" points="1225.5,-231.5 1310.5,-231.5 "/>
<text text-anchor="middle" x="1268" y="-219.5" font-family="Helvetica,sans-Serif" font-size="10.00"> </text>
<polyline fill="none" stroke="#bfbfbf" points="1225.5,-212.5 1310.5,-212.5 "/>
<text text-anchor="middle" x="1268" y="-200.5" font-family="Helvetica,sans-Serif" font-size="10.00"> </text>
</a>
</g>
</g>
<!-- Node12&#45;&gt;Node1 -->
<g id="edge11" class="edge">
<title>Node12&#45;&gt;Node1</title>
<path fill="none" stroke="#404040" d="M1265.8,-193.45C1262.9,-176.03 1256.23,-154.51 1241,-142 1171.69,-85.04 923.56,-69.04 773.63,-64.62"/>
<polygon fill="none" stroke="#404040" points="773.22,-64.61 767.11,-68.44 761.22,-64.27 767.33,-60.44 773.22,-64.61"/>
<text text-anchor="middle" x="1301" y="-156" font-family="Helvetica,sans-Serif" font-size="10.00"> &#45;m_ActiveScene</text>
</g>
</g>
</svg>
        <g id="navigator" transform="translate(0 0)" fill="#404254">
                <rect fill="#f2f5e9" fill-opacity="0.5" stroke="#606060" stroke-width=".5" x="0" y="0" width="60" height="60"/>
                <use id="zoomplus" xlink:href="#zoomPlus" x="17" y="9" onmousedown="handleZoom(evt,'in')"/>
                <use id="zoomminus" xlink:href="#zoomMin" x="42" y="9" onmousedown="handleZoom(evt,'out')"/>
                <use id="reset" xlink:href="#resetDef" x="30" y="36" onmousedown="handleReset()"/>
                <g id="arrowUp" xlink:href="#dirArrow" transform="translate(30 24)" onmousedown="handlePan(0,-1)">
                  <use xlink:href="#rim" fill="#404040">
                        <set attributeName="fill" to="#808080" begin="arrowUp.mouseover" end="arrowUp.mouseout"/>
                  </use>
                  <path fill="none" stroke="white" stroke-width="1.5" d="M0,-3.0v7 M-2.5,-0.5L0,-3.0L2.5,-0.5"/>
                </g>
                <g id="arrowRight" xlink:href="#dirArrow" transform="rotate(90) translate(36 -43)" onmousedown="handlePan(1,0)">
                  <use xlink:href="#rim" fill="#404040">
                        <set attributeName="fill" to="#808080" begin="arrowRight.mouseover" end="arrowRight.mouseout"/>
                  </use>
                  <path fill="none" stroke="white" stroke-width="1.5" d="M0,-3.0v7 M-2.5,-0.5L0,-3.0L2.5,-0.5"/>
                </g>
                <g id="arrowDown" xlink:href="#dirArrow" transform="rotate(180) translate(-30 -48)" onmousedown="handlePan(0,1)">
                  <use xlink:href="#rim" fill="#404040">
                        <set attributeName="fill" to="#808080" begin="arrowDown.mouseover" end="arrowDown.mouseout"/>
                  </use>
                  <path fill="none" stroke="white" stroke-width="1.5" d="M0,-3.0v7 M-2.5,-0.5L0,-3.0L2.5,-0.5"/>
                </g>
                <g id="arrowLeft" xlink:href="#dirArrow" transform="rotate(270) translate(-36 17)" onmousedown="handlePan(-1,0)">
                  <use xlink:href="#rim" fill="#404040">
                        <set attributeName="fill" to="#808080" begin="arrowLeft.mouseover" end="arrowLeft.mouseout"/>
                  </use>
                  <path fill="none" stroke="white" stroke-width="1.5" d="M0,-3.0v7 M-2.5,-0.5L0,-3.0L2.5,-0.5"/>
                </g>
        </g>
        <svg viewBox="0 0 15 15" width="100%" height="30px" preserveAspectRatio="xMaxYMin meet">
         <g id="arrow_out" transform="scale(0.3 0.3)">
          <a xlink:href="classgauri_1_1EditorLayer__coll__graph_org.svg" target="_base">
           <rect id="button" ry="5" rx="5" y="6" x="6" height="38" width="38"
                fill="#f2f5e9" fill-opacity="0.5" stroke="#606060" stroke-width="1.0"/>
           <path id="arrow"
             d="M 11.500037,31.436501 C 11.940474,20.09759 22.043105,11.32322 32.158766,21.979434 L 37.068811,17.246167 C 37.068811,17.246167 37.088388,32 37.088388,32 L 22.160133,31.978069 C 22.160133,31.978069 26.997745,27.140456 26.997745,27.140456 C 18.528582,18.264221 13.291696,25.230495 11.500037,31.436501 z"
             style="fill:#404040;"/>
          </a>
         </g>
        </svg>
</svg>
