<?xml version="1.0" encoding="UTF-8" standalone="no"?>
<!DOCTYPE svg PUBLIC "-//W3C//DTD SVG 1.1//EN"
 "http://www.w3.org/Graphics/SVG/1.1/DTD/svg11.dtd">
<!-- Generated by graphviz version 2.43.0 (0)
 -->
<!-- Title: ExampleLayer Pages: 1 -->
<svg width="316pt" height="292pt"
 viewBox="0.00 0.00 316.00 292.00" xmlns="http://www.w3.org/2000/svg" xmlns:xlink="http://www.w3.org/1999/xlink">
<g id="graph0" class="graph" transform="scale(1 1) rotate(0) translate(4 288)">
<title>ExampleLayer</title>
<polygon fill="white" stroke="transparent" points="-4,4 -4,-288 312,-288 312,4 -4,4"/>
<!-- Node1 -->
<g id="node1" class="node">
<title>Node1</title>
<g id="a_node1"><a xlink:title=" ">
<polygon fill="#bfbfbf" stroke="black" points="0,-0.5 0,-189.5 308,-189.5 308,-0.5 0,-0.5"/>
<text text-anchor="middle" x="154" y="-177.5" font-family="Helvetica,sans-Serif" font-size="10.00">ExampleLayer</text>
<polyline fill="none" stroke="black" points="0,-170.5 308,-170.5 "/>
<text text-anchor="start" x="8" y="-158.5" font-family="Helvetica,sans-Serif" font-size="10.00">&#45; gauri::ShaderLibrary m_ShaderLibrary</text>
<text text-anchor="start" x="8" y="-147.5" font-family="Helvetica,sans-Serif" font-size="10.00">&#45; gauri::Ref&lt; gauri::Shader &gt; m_Shader</text>
<text text-anchor="start" x="8" y="-136.5" font-family="Helvetica,sans-Serif" font-size="10.00">&#45; gauri::Ref&lt; gauri::VertexArray &gt; m_VertexArray</text>
<text text-anchor="start" x="8" y="-125.5" font-family="Helvetica,sans-Serif" font-size="10.00">&#45; gauri::Ref&lt; gauri::Shader &gt; m_FlatColorShader</text>
<text text-anchor="start" x="8" y="-114.5" font-family="Helvetica,sans-Serif" font-size="10.00">&#45; gauri::Ref&lt; gauri::VertexArray &gt; m_SquareVA</text>
<text text-anchor="start" x="8" y="-103.5" font-family="Helvetica,sans-Serif" font-size="10.00">&#45; gauri::Ref&lt; gauri::Texture2D &gt; m_Texture</text>
<text text-anchor="start" x="8" y="-92.5" font-family="Helvetica,sans-Serif" font-size="10.00">&#45; gauri::Ref&lt; gauri::Texture2D &gt; m_ChernoLogoTexture</text>
<text text-anchor="start" x="8" y="-81.5" font-family="Helvetica,sans-Serif" font-size="10.00">&#45; gauri::OrthographicCameraController m_CameraController</text>
<text text-anchor="start" x="8" y="-70.5" font-family="Helvetica,sans-Serif" font-size="10.00">&#45; float m_SquareSpeed</text>
<text text-anchor="start" x="8" y="-59.5" font-family="Helvetica,sans-Serif" font-size="10.00">&#45; glm::vec3 m_SquareColor</text>
<polyline fill="none" stroke="black" points="0,-52.5 308,-52.5 "/>
<text text-anchor="start" x="8" y="-40.5" font-family="Helvetica,sans-Serif" font-size="10.00">+ ExampleLayer()</text>
<text text-anchor="start" x="8" y="-29.5" font-family="Helvetica,sans-Serif" font-size="10.00">+ void OnUpdate(gauri::Timestep ts) override</text>
<text text-anchor="start" x="8" y="-18.5" font-family="Helvetica,sans-Serif" font-size="10.00">+ void OnEvent(gauri::Event &amp;event) override</text>
<text text-anchor="start" x="8" y="-7.5" font-family="Helvetica,sans-Serif" font-size="10.00">+ void OnImGuiRender() override</text>
</a>
</g>
</g>
<!-- Node2 -->
<g id="node2" class="node">
<title>Node2</title>
<g id="a_node2"><a xlink:title=" ">
<polygon fill="white" stroke="#bfbfbf" points="117,-226.5 117,-283.5 191,-283.5 191,-226.5 117,-226.5"/>
<text text-anchor="middle" x="154" y="-271.5" font-family="Helvetica,sans-Serif" font-size="10.00">gauri::Layer</text>
<polyline fill="none" stroke="#bfbfbf" points="117,-264.5 191,-264.5 "/>
<text text-anchor="middle" x="154" y="-252.5" font-family="Helvetica,sans-Serif" font-size="10.00"> </text>
<polyline fill="none" stroke="#bfbfbf" points="117,-245.5 191,-245.5 "/>
<text text-anchor="middle" x="154" y="-233.5" font-family="Helvetica,sans-Serif" font-size="10.00"> </text>
</a>
</g>
</g>
<!-- Node2&#45;&gt;Node1 -->
<g id="edge1" class="edge">
<title>Node2&#45;&gt;Node1</title>
<path fill="none" stroke="midnightblue" d="M154,-216.22C154,-208.01 154,-198.99 154,-189.68"/>
<polygon fill="none" stroke="midnightblue" points="150.5,-216.48 154,-226.48 157.5,-216.48 150.5,-216.48"/>
</g>
</g>
</svg>
