<?xml version="1.0" encoding="UTF-8" standalone="no"?>
<!DOCTYPE svg PUBLIC "-//W3C//DTD SVG 1.1//EN"
 "http://www.w3.org/Graphics/SVG/1.1/DTD/svg11.dtd">
<!-- Generated by graphviz version 2.43.0 (0)
 -->
<!-- Title: gauri::EditorLayer Pages: 1 -->
<svg width="1334pt" height="248pt"
 viewBox="0.00 0.00 1334.00 248.00" xmlns="http://www.w3.org/2000/svg" xmlns:xlink="http://www.w3.org/1999/xlink">
<g id="graph0" class="graph" transform="scale(1 1) rotate(0) translate(4 244)">
<title>gauri::EditorLayer</title>
<polygon fill="white" stroke="transparent" points="-4,4 -4,-244 1330,-244 1330,4 -4,4"/>
<!-- Node1 -->
<g id="node1" class="node">
<title>Node1</title>
<g id="a_node1"><a xlink:title=" ">
<polygon fill="#bfbfbf" stroke="black" points="543,-0.5 543,-123.5 753,-123.5 753,-0.5 543,-0.5"/>
<text text-anchor="middle" x="648" y="-111.5" font-family="Helvetica,sans-Serif" font-size="10.00">gauri::EditorLayer</text>
<polyline fill="none" stroke="black" points="543,-104.5 753,-104.5 "/>
<text text-anchor="middle" x="648" y="-92.5" font-family="Helvetica,sans-Serif" font-size="10.00"> </text>
<polyline fill="none" stroke="black" points="543,-85.5 753,-85.5 "/>
<text text-anchor="start" x="551" y="-73.5" font-family="Helvetica,sans-Serif" font-size="10.00">+ EditorLayer()</text>
<text text-anchor="start" x="551" y="-62.5" font-family="Helvetica,sans-Serif" font-size="10.00">+ ~EditorLayer() override=default</text>
<text text-anchor="start" x="551" y="-51.5" font-family="Helvetica,sans-Serif" font-size="10.00">+ void OnAttach() override</text>
<text text-anchor="start" x="551" y="-40.5" font-family="Helvetica,sans-Serif" font-size="10.00">+ void OnDetach() override</text>
<text text-anchor="start" x="551" y="-29.5" font-family="Helvetica,sans-Serif" font-size="10.00">+ void OnUpdate(Timestep ts) override</text>
<text text-anchor="start" x="551" y="-18.5" font-family="Helvetica,sans-Serif" font-size="10.00">+ void OnImGuiRender() override</text>
<text text-anchor="start" x="551" y="-7.5" font-family="Helvetica,sans-Serif" font-size="10.00">+ void OnEvent(Event &amp;event) override</text>
</a>
</g>
</g>
<!-- Node2 -->
<g id="node2" class="node">
<title>Node2</title>
<g id="a_node2"><a xlink:title=" ">
<polygon fill="white" stroke="#bfbfbf" points="0,-182.5 0,-239.5 74,-239.5 74,-182.5 0,-182.5"/>
<text text-anchor="middle" x="37" y="-227.5" font-family="Helvetica,sans-Serif" font-size="10.00">gauri::Layer</text>
<polyline fill="none" stroke="#bfbfbf" points="0,-220.5 74,-220.5 "/>
<text text-anchor="middle" x="37" y="-208.5" font-family="Helvetica,sans-Serif" font-size="10.00"> </text>
<polyline fill="none" stroke="#bfbfbf" points="0,-201.5 74,-201.5 "/>
<text text-anchor="middle" x="37" y="-189.5" font-family="Helvetica,sans-Serif" font-size="10.00"> </text>
</a>
</g>
</g>
<!-- Node2&#45;&gt;Node1 -->
<g id="edge1" class="edge">
<title>Node2&#45;&gt;Node1</title>
<path fill="none" stroke="midnightblue" d="M82.72,-182.13C82.81,-182.09 82.91,-182.04 83,-182 133.59,-158.46 147.93,-155.79 202,-142 317.25,-112.6 452,-90.36 542.98,-77.09"/>
<polygon fill="none" stroke="midnightblue" points="81.38,-178.89 74.02,-186.51 84.53,-185.14 81.38,-178.89"/>
</g>
<!-- Node3 -->
<g id="node3" class="node">
<title>Node3</title>
<g id="a_node3"><a xlink:title=" ">
<polygon fill="white" stroke="#bfbfbf" points="92.5,-182.5 92.5,-239.5 205.5,-239.5 205.5,-182.5 92.5,-182.5"/>
<text text-anchor="middle" x="149" y="-227.5" font-family="Helvetica,sans-Serif" font-size="10.00">Ref&lt; VertexArray &gt;</text>
<polyline fill="none" stroke="#bfbfbf" points="92.5,-220.5 205.5,-220.5 "/>
<text text-anchor="middle" x="149" y="-208.5" font-family="Helvetica,sans-Serif" font-size="10.00"> </text>
<polyline fill="none" stroke="#bfbfbf" points="92.5,-201.5 205.5,-201.5 "/>
<text text-anchor="middle" x="149" y="-189.5" font-family="Helvetica,sans-Serif" font-size="10.00"> </text>
</a>
</g>
</g>
<!-- Node3&#45;&gt;Node1 -->
<g id="edge2" class="edge">
<title>Node3&#45;&gt;Node1</title>
<path fill="none" stroke="#404040" d="M180.68,-182.36C198.47,-168.24 221.72,-151.98 245,-142 336.5,-102.78 448.08,-82.84 530.61,-72.82"/>
<polygon fill="none" stroke="#404040" points="530.66,-72.81 536.15,-68.14 542.57,-71.41 537.08,-76.08 530.66,-72.81"/>
<text text-anchor="middle" x="279.5" y="-150.5" font-family="Helvetica,sans-Serif" font-size="10.00"> &#45;m_SquareVA</text>
</g>
<!-- Node4 -->
<g id="node4" class="node">
<title>Node4</title>
<g id="a_node4"><a xlink:title=" ">
<polygon fill="white" stroke="#bfbfbf" points="224,-182.5 224,-239.5 390,-239.5 390,-182.5 224,-182.5"/>
<text text-anchor="middle" x="307" y="-227.5" font-family="Helvetica,sans-Serif" font-size="10.00">OrthographicCameraController</text>
<polyline fill="none" stroke="#bfbfbf" points="224,-220.5 390,-220.5 "/>
<text text-anchor="middle" x="307" y="-208.5" font-family="Helvetica,sans-Serif" font-size="10.00"> </text>
<polyline fill="none" stroke="#bfbfbf" points="224,-201.5 390,-201.5 "/>
<text text-anchor="middle" x="307" y="-189.5" font-family="Helvetica,sans-Serif" font-size="10.00"> </text>
</a>
</g>
</g>
<!-- Node4&#45;&gt;Node1 -->
<g id="edge3" class="edge">
<title>Node4&#45;&gt;Node1</title>
<path fill="none" stroke="#404040" d="M311.34,-182.36C314.91,-168.42 321.37,-152.32 333,-142 362.53,-115.81 453.98,-94.63 530.79,-80.83"/>
<polygon fill="none" stroke="#404040" points="531.16,-80.76 536.37,-75.78 542.98,-78.67 537.76,-83.66 531.16,-80.76"/>
<text text-anchor="middle" x="387.5" y="-150.5" font-family="Helvetica,sans-Serif" font-size="10.00"> &#45;m_CameraController</text>
</g>
<!-- Node5 -->
<g id="node5" class="node">
<title>Node5</title>
<g id="a_node5"><a xlink:title=" ">
<polygon fill="white" stroke="#bfbfbf" points="412.5,-182.5 412.5,-239.5 457.5,-239.5 457.5,-182.5 412.5,-182.5"/>
<text text-anchor="middle" x="435" y="-227.5" font-family="Helvetica,sans-Serif" font-size="10.00">Entity</text>
<polyline fill="none" stroke="#bfbfbf" points="412.5,-220.5 457.5,-220.5 "/>
<text text-anchor="middle" x="435" y="-208.5" font-family="Helvetica,sans-Serif" font-size="10.00"> </text>
<polyline fill="none" stroke="#bfbfbf" points="412.5,-201.5 457.5,-201.5 "/>
<text text-anchor="middle" x="435" y="-189.5" font-family="Helvetica,sans-Serif" font-size="10.00"> </text>
</a>
</g>
</g>
<!-- Node5&#45;&gt;Node1 -->
<g id="edge4" class="edge">
<title>Node5&#45;&gt;Node1</title>
<path fill="none" stroke="#404040" d="M439.75,-182.39C443.33,-168.8 449.49,-153 460,-142 479.58,-121.51 505.3,-106.1 531.41,-94.61"/>
<polygon fill="none" stroke="#404040" points="531.54,-94.56 535.52,-88.55 542.6,-89.93 538.62,-95.93 531.54,-94.56"/>
<text text-anchor="middle" x="502.5" y="-150.5" font-family="Helvetica,sans-Serif" font-size="10.00"> &#45;m_SquareEntity</text>
</g>
<!-- Node6 -->
<g id="node6" class="node">
<title>Node6</title>
<g id="a_node6"><a xlink:title=" ">
<polygon fill="white" stroke="#bfbfbf" points="481,-182.5 481,-239.5 597,-239.5 597,-182.5 481,-182.5"/>
<text text-anchor="middle" x="539" y="-227.5" font-family="Helvetica,sans-Serif" font-size="10.00">Ref&lt; FrameBuffer &gt;</text>
<polyline fill="none" stroke="#bfbfbf" points="481,-220.5 597,-220.5 "/>
<text text-anchor="middle" x="539" y="-208.5" font-family="Helvetica,sans-Serif" font-size="10.00"> </text>
<polyline fill="none" stroke="#bfbfbf" points="481,-201.5 597,-201.5 "/>
<text text-anchor="middle" x="539" y="-189.5" font-family="Helvetica,sans-Serif" font-size="10.00"> </text>
</a>
</g>
</g>
<!-- Node6&#45;&gt;Node1 -->
<g id="edge5" class="edge">
<title>Node6&#45;&gt;Node1</title>
<path fill="none" stroke="#404040" d="M543.46,-182.38C546.45,-169.4 551.29,-154.16 559,-142 560.87,-139.06 562.88,-136.16 565,-133.31"/>
<polygon fill="none" stroke="#404040" points="565.09,-133.19 565.74,-126.01 572.61,-123.84 571.97,-131.02 565.09,-133.19"/>
<text text-anchor="middle" x="600" y="-150.5" font-family="Helvetica,sans-Serif" font-size="10.00"> &#45;m_FrameBuffer</text>
</g>
<!-- Node7 -->
<g id="node7" class="node">
<title>Node7</title>
<g id="a_node7"><a xlink:title=" ">
<polygon fill="white" stroke="#bfbfbf" points="615.5,-182.5 615.5,-239.5 720.5,-239.5 720.5,-182.5 615.5,-182.5"/>
<text text-anchor="middle" x="668" y="-227.5" font-family="Helvetica,sans-Serif" font-size="10.00">Ref&lt; Texture2D &gt;</text>
<polyline fill="none" stroke="#bfbfbf" points="615.5,-220.5 720.5,-220.5 "/>
<text text-anchor="middle" x="668" y="-208.5" font-family="Helvetica,sans-Serif" font-size="10.00"> </text>
<polyline fill="none" stroke="#bfbfbf" points="615.5,-201.5 720.5,-201.5 "/>
<text text-anchor="middle" x="668" y="-189.5" font-family="Helvetica,sans-Serif" font-size="10.00"> </text>
</a>
</g>
</g>
<!-- Node7&#45;&gt;Node1 -->
<g id="edge6" class="edge">
<title>Node7&#45;&gt;Node1</title>
<path fill="none" stroke="#404040" d="M654.59,-182.32C652.29,-176.4 650.24,-170.1 649,-164 647.16,-154.94 646.03,-145.32 645.4,-135.77"/>
<polygon fill="none" stroke="#404040" points="645.4,-135.73 641.13,-129.92 644.86,-123.75 649.13,-129.56 645.4,-135.73"/>
<text text-anchor="middle" x="711.5" y="-150.5" font-family="Helvetica,sans-Serif" font-size="10.00"> &#45;m_CheckerboardTexture</text>
</g>
<!-- Node8 -->
<g id="node8" class="node">
<title>Node8</title>
<g id="a_node8"><a xlink:title=" ">
<polygon fill="white" stroke="#bfbfbf" points="777,-182.5 777,-239.5 815,-239.5 815,-182.5 777,-182.5"/>
<text text-anchor="middle" x="796" y="-227.5" font-family="Helvetica,sans-Serif" font-size="10.00">bool</text>
<polyline fill="none" stroke="#bfbfbf" points="777,-220.5 815,-220.5 "/>
<text text-anchor="middle" x="796" y="-208.5" font-family="Helvetica,sans-Serif" font-size="10.00"> </text>
<polyline fill="none" stroke="#bfbfbf" points="777,-201.5 815,-201.5 "/>
<text text-anchor="middle" x="796" y="-189.5" font-family="Helvetica,sans-Serif" font-size="10.00"> </text>
</a>
</g>
</g>
<!-- Node8&#45;&gt;Node1 -->
<g id="edge7" class="edge">
<title>Node8&#45;&gt;Node1</title>
<path fill="none" stroke="#404040" d="M791.64,-182.43C788.47,-169.16 783.07,-153.65 774,-142 770.37,-137.34 766.39,-132.89 762.14,-128.64"/>
<polygon fill="none" stroke="#404040" points="761.86,-128.38 754.74,-127.21 753.08,-120.2 760.2,-121.36 761.86,-128.38"/>
<text text-anchor="middle" x="838" y="-156" font-family="Helvetica,sans-Serif" font-size="10.00"> &#45;m_ViewportFocused</text>
<text text-anchor="middle" x="838" y="-145" font-family="Helvetica,sans-Serif" font-size="10.00">&#45;m_ViewportHovered</text>
</g>
<!-- Node9 -->
<g id="node9" class="node">
<title>Node9</title>
<g id="a_node9"><a xlink:title=" ">
<polygon fill="white" stroke="#bfbfbf" points="880.5,-182.5 880.5,-239.5 969.5,-239.5 969.5,-182.5 880.5,-182.5"/>
<text text-anchor="middle" x="925" y="-227.5" font-family="Helvetica,sans-Serif" font-size="10.00">Ref&lt; Shader &gt;</text>
<polyline fill="none" stroke="#bfbfbf" points="880.5,-220.5 969.5,-220.5 "/>
<text text-anchor="middle" x="925" y="-208.5" font-family="Helvetica,sans-Serif" font-size="10.00"> </text>
<polyline fill="none" stroke="#bfbfbf" points="880.5,-201.5 969.5,-201.5 "/>
<text text-anchor="middle" x="925" y="-189.5" font-family="Helvetica,sans-Serif" font-size="10.00"> </text>
</a>
</g>
</g>
<!-- Node9&#45;&gt;Node1 -->
<g id="edge8" class="edge">
<title>Node9&#45;&gt;Node1</title>
<path fill="none" stroke="#404040" d="M918.57,-182.26C914.07,-168.46 906.71,-152.53 895,-142 859.12,-109.74 810,-90.64 765,-79.34"/>
<polygon fill="none" stroke="#404040" points="764.72,-79.28 757.96,-81.78 753.05,-76.5 759.81,-73.99 764.72,-79.28"/>
<text text-anchor="middle" x="960" y="-150.5" font-family="Helvetica,sans-Serif" font-size="10.00"> &#45;m_FlatColorShader</text>
</g>
<!-- Node10 -->
<g id="node10" class="node">
<title>Node10</title>
<g id="a_node10"><a xlink:title=" ">
<polygon fill="white" stroke="#bfbfbf" points="1028,-182.5 1028,-239.5 1068,-239.5 1068,-182.5 1028,-182.5"/>
<text text-anchor="middle" x="1048" y="-227.5" font-family="Helvetica,sans-Serif" font-size="10.00">vec2</text>
<polyline fill="none" stroke="#bfbfbf" points="1028,-220.5 1068,-220.5 "/>
<text text-anchor="middle" x="1048" y="-208.5" font-family="Helvetica,sans-Serif" font-size="10.00"> </text>
<polyline fill="none" stroke="#bfbfbf" points="1028,-201.5 1068,-201.5 "/>
<text text-anchor="middle" x="1048" y="-189.5" font-family="Helvetica,sans-Serif" font-size="10.00"> </text>
</a>
</g>
</g>
<!-- Node10&#45;&gt;Node1 -->
<g id="edge9" class="edge">
<title>Node10&#45;&gt;Node1</title>
<path fill="none" stroke="#404040" d="M1040.52,-182.41C1035.31,-168.3 1026.93,-152.03 1014,-142 975.56,-112.18 856.94,-90.22 765.05,-77.13"/>
<polygon fill="none" stroke="#404040" points="765.01,-77.12 758.51,-80.25 753.13,-75.46 759.62,-72.33 765.01,-77.12"/>
<text text-anchor="middle" x="1074" y="-150.5" font-family="Helvetica,sans-Serif" font-size="10.00"> &#45;m_ViewportSize</text>
</g>
<!-- Node11 -->
<g id="node11" class="node">
<title>Node11</title>
<g id="a_node11"><a xlink:title=" ">
<polygon fill="white" stroke="#bfbfbf" points="1137,-182.5 1137,-239.5 1177,-239.5 1177,-182.5 1137,-182.5"/>
<text text-anchor="middle" x="1157" y="-227.5" font-family="Helvetica,sans-Serif" font-size="10.00">vec4</text>
<polyline fill="none" stroke="#bfbfbf" points="1137,-220.5 1177,-220.5 "/>
<text text-anchor="middle" x="1157" y="-208.5" font-family="Helvetica,sans-Serif" font-size="10.00"> </text>
<polyline fill="none" stroke="#bfbfbf" points="1137,-201.5 1177,-201.5 "/>
<text text-anchor="middle" x="1157" y="-189.5" font-family="Helvetica,sans-Serif" font-size="10.00"> </text>
</a>
</g>
</g>
<!-- Node11&#45;&gt;Node1 -->
<g id="edge10" class="edge">
<title>Node11&#45;&gt;Node1</title>
<path fill="none" stroke="#404040" d="M1149.01,-182.48C1143.44,-168.21 1134.54,-151.77 1121,-142 1065.54,-102.02 886.57,-80.82 765.38,-70.76"/>
<polygon fill="none" stroke="#404040" points="765.07,-70.74 758.76,-74.24 753.11,-69.77 759.41,-66.26 765.07,-70.74"/>
<text text-anchor="middle" x="1180" y="-150.5" font-family="Helvetica,sans-Serif" font-size="10.00"> &#45;m_SquareColor</text>
</g>
<!-- Node12 -->
<g id="node12" class="node">
<title>Node12</title>
<g id="a_node12"><a xlink:title=" ">
<polygon fill="white" stroke="#bfbfbf" points="1219.5,-182.5 1219.5,-239.5 1304.5,-239.5 1304.5,-182.5 1219.5,-182.5"/>
<text text-anchor="middle" x="1262" y="-227.5" font-family="Helvetica,sans-Serif" font-size="10.00">Ref&lt; Scene &gt;</text>
<polyline fill="none" stroke="#bfbfbf" points="1219.5,-220.5 1304.5,-220.5 "/>
<text text-anchor="middle" x="1262" y="-208.5" font-family="Helvetica,sans-Serif" font-size="10.00"> </text>
<polyline fill="none" stroke="#bfbfbf" points="1219.5,-201.5 1304.5,-201.5 "/>
<text text-anchor="middle" x="1262" y="-189.5" font-family="Helvetica,sans-Serif" font-size="10.00"> </text>
</a>
</g>
</g>
<!-- Node12&#45;&gt;Node1 -->
<g id="edge11" class="edge">
<title>Node12&#45;&gt;Node1</title>
<path fill="none" stroke="#404040" d="M1253.71,-182.3C1247.97,-167.98 1238.82,-151.55 1225,-142 1152.62,-92.03 912.11,-73.49 765.44,-66.74"/>
<polygon fill="none" stroke="#404040" points="765.28,-66.74 759.11,-70.46 753.29,-66.2 759.47,-62.47 765.28,-66.74"/>
<text text-anchor="middle" x="1285" y="-150.5" font-family="Helvetica,sans-Serif" font-size="10.00"> &#45;m_ActiveScene</text>
</g>
</g>
</svg>
