<?xml version="1.0" encoding="UTF-8" standalone="no"?>
<!DOCTYPE svg PUBLIC "-//W3C//DTD SVG 1.1//EN"
 "http://www.w3.org/Graphics/SVG/1.1/DTD/svg11.dtd">
<!-- Generated by graphviz version 2.43.0 (0)
 -->
<!-- Title: gauri::SceneHierarchyPanel Pages: 1 -->
<svg width="258pt" height="226pt"
 viewBox="0.00 0.00 258.00 226.00" xmlns="http://www.w3.org/2000/svg" xmlns:xlink="http://www.w3.org/1999/xlink">
<g id="graph0" class="graph" transform="scale(1 1) rotate(0) translate(4 222)">
<title>gauri::SceneHierarchyPanel</title>
<polygon fill="white" stroke="transparent" points="-4,4 -4,-222 254,-222 254,4 -4,4"/>
<!-- Node1 -->
<g id="node1" class="node">
<title>Node1</title>
<g id="a_node1"><a xlink:title=" ">
<polygon fill="#bfbfbf" stroke="black" points="0,-0.5 0,-112.5 250,-112.5 250,-0.5 0,-0.5"/>
<text text-anchor="middle" x="125" y="-100.5" font-family="Helvetica,sans-Serif" font-size="10.00">gauri::SceneHierarchyPanel</text>
<polyline fill="none" stroke="black" points="0,-93.5 250,-93.5 "/>
<text text-anchor="middle" x="125" y="-81.5" font-family="Helvetica,sans-Serif" font-size="10.00"> </text>
<polyline fill="none" stroke="black" points="0,-74.5 250,-74.5 "/>
<text text-anchor="start" x="8" y="-62.5" font-family="Helvetica,sans-Serif" font-size="10.00">+ SceneHierarchyPanel()=default</text>
<text text-anchor="start" x="8" y="-51.5" font-family="Helvetica,sans-Serif" font-size="10.00">+ SceneHierarchyPanel(Ref&lt; Scene &gt; &amp;scene)</text>
<text text-anchor="start" x="8" y="-40.5" font-family="Helvetica,sans-Serif" font-size="10.00">+ void SetContext(const Ref&lt; Scene &gt; &amp;scene)</text>
<text text-anchor="start" x="8" y="-29.5" font-family="Helvetica,sans-Serif" font-size="10.00">+ void OnImGuiRender()</text>
<text text-anchor="start" x="8" y="-18.5" font-family="Helvetica,sans-Serif" font-size="10.00">&#45; void DrawEntityNode(Entity entity)</text>
<text text-anchor="start" x="8" y="-7.5" font-family="Helvetica,sans-Serif" font-size="10.00">&#45; void DrawComponents(Entity entity)</text>
</a>
</g>
</g>
<!-- Node2 -->
<g id="node2" class="node">
<title>Node2</title>
<g id="a_node2"><a xlink:title=" ">
<polygon fill="white" stroke="#bfbfbf" points="38.5,-160.5 38.5,-217.5 83.5,-217.5 83.5,-160.5 38.5,-160.5"/>
<text text-anchor="middle" x="61" y="-205.5" font-family="Helvetica,sans-Serif" font-size="10.00">Entity</text>
<polyline fill="none" stroke="#bfbfbf" points="38.5,-198.5 83.5,-198.5 "/>
<text text-anchor="middle" x="61" y="-186.5" font-family="Helvetica,sans-Serif" font-size="10.00"> </text>
<polyline fill="none" stroke="#bfbfbf" points="38.5,-179.5 83.5,-179.5 "/>
<text text-anchor="middle" x="61" y="-167.5" font-family="Helvetica,sans-Serif" font-size="10.00"> </text>
</a>
</g>
</g>
<!-- Node2&#45;&gt;Node1 -->
<g id="edge1" class="edge">
<title>Node2&#45;&gt;Node1</title>
<path fill="none" stroke="#404040" d="M57.74,-160.32C57.58,-150.76 58.52,-140.16 62,-131 62.97,-128.45 64.07,-125.92 65.28,-123.43"/>
<polygon fill="none" stroke="#404040" points="65.39,-123.24 64.82,-116.05 71.23,-112.76 71.81,-119.94 65.39,-123.24"/>
<text text-anchor="middle" x="115" y="-134" font-family="Helvetica,sans-Serif" font-size="10.00"> &#45;m_SelectionContext</text>
</g>
<!-- Node3 -->
<g id="node3" class="node">
<title>Node3</title>
<g id="a_node3"><a xlink:title=" ">
<polygon fill="white" stroke="#bfbfbf" points="147.5,-160.5 147.5,-217.5 232.5,-217.5 232.5,-160.5 147.5,-160.5"/>
<text text-anchor="middle" x="190" y="-205.5" font-family="Helvetica,sans-Serif" font-size="10.00">Ref&lt; Scene &gt;</text>
<polyline fill="none" stroke="#bfbfbf" points="147.5,-198.5 232.5,-198.5 "/>
<text text-anchor="middle" x="190" y="-186.5" font-family="Helvetica,sans-Serif" font-size="10.00"> </text>
<polyline fill="none" stroke="#bfbfbf" points="147.5,-179.5 232.5,-179.5 "/>
<text text-anchor="middle" x="190" y="-167.5" font-family="Helvetica,sans-Serif" font-size="10.00"> </text>
</a>
</g>
</g>
<!-- Node3&#45;&gt;Node1 -->
<g id="edge2" class="edge">
<title>Node3&#45;&gt;Node1</title>
<path fill="none" stroke="#404040" d="M180.36,-160.37C176.79,-150.91 172.51,-140.37 168,-131 166.83,-128.57 165.6,-126.1 164.34,-123.63"/>
<polygon fill="none" stroke="#404040" points="164.21,-123.38 157.87,-119.94 158.6,-112.77 164.94,-116.2 164.21,-123.38"/>
<text text-anchor="middle" x="202.5" y="-134" font-family="Helvetica,sans-Serif" font-size="10.00"> &#45;m_Context</text>
</g>
</g>
</svg>
