<?xml version="1.0" encoding="UTF-8" standalone="no"?>
<!DOCTYPE svg PUBLIC "-//W3C//DTD SVG 1.1//EN"
 "http://www.w3.org/Graphics/SVG/1.1/DTD/svg11.dtd">
<!-- Generated by graphviz version 2.43.0 (0)
 -->
<!-- Title: gauri::EditorLayer::OnImGuiRender Pages: 1 -->
<!--zoomable 180 -->
<svg id="main" version="1.1" xmlns="http://www.w3.org/2000/svg" xmlns:xlink="http://www.w3.org/1999/xlink" xml:space="preserve" onload="init(evt)">
<style type="text/css"><![CDATA[
.edge:hover path { stroke: red; }
.edge:hover polygon { stroke: red; fill: red; }
]]></style>
<script type="text/javascript"><![CDATA[
var edges = document.getElementsByTagName('g');
if (edges && edges.length) {
  for (var i=0;i<edges.length;i++) {
    if (edges[i].id.substr(0,4)=='edge') {
      edges[i].setAttribute('class','edge');
    }
  }
}
]]></script>
        <defs>
                <circle id="rim" cx="0" cy="0" r="7"/>
                <circle id="rim2" cx="0" cy="0" r="3.5"/>
                <g id="zoomPlus">
                        <use xlink:href="#rim" fill="#404040">
                                <set attributeName="fill" to="#808080" begin="zoomplus.mouseover" end="zoomplus.mouseout"/>
                        </use>
                        <path d="M-4,0h8M0,-4v8" fill="none" stroke="white" stroke-width="1.5" pointer-events="none"/>
                </g>
                <g id="zoomMin">
                        <use xlink:href="#rim" fill="#404040">
                                <set attributeName="fill" to="#808080" begin="zoomminus.mouseover" end="zoomminus.mouseout"/>
                        </use>
                        <path d="M-4,0h8" fill="none" stroke="white" stroke-width="1.5" pointer-events="none"/>
                </g>
                <g id="dirArrow">
                        <path fill="none" stroke="white" stroke-width="1.5" d="M0,-3.0v7 M-2.5,-0.5L0,-3.0L2.5,-0.5"/>
                </g>
               <g id="resetDef">
                       <use xlink:href="#rim2" fill="#404040">
                               <set attributeName="fill" to="#808080" begin="reset.mouseover" end="reset.mouseout"/>
                       </use>
               </g>
        </defs>

<script type="text/javascript">
var viewWidth = 920;
var viewHeight = 180;
var sectionId = 'dynsection-3';
</script>
<script xlink:href="svgpan.js"/>
<svg id="graph" class="graph">
<g id="viewport">
<title>gauri::EditorLayer::OnImGuiRender</title>
<polygon fill="white" stroke="transparent" points="-4,4 -4,-176 916,-176 916,4 -4,4"/>
<!-- Node1 -->
<g id="node1" class="node">
<title>Node1</title>
<g id="a_node1"><a xlink:title=" ">
<polygon fill="#bfbfbf" stroke="black" points="0,-76.5 0,-95.5 186,-95.5 186,-76.5 0,-76.5"/>
<text text-anchor="middle" x="93" y="-83.5" font-family="Helvetica,sans-Serif" font-size="10.00">gauri::EditorLayer::OnImGuiRender</text>
</a>
</g>
</g>
<!-- Node2 -->
<g id="node2" class="node">
<title>Node2</title>
<g id="a_node2"><a xlink:href="classgauri_1_1SceneHierarchyPanel.html#a387d4118ebfb95fe5c079cb2c8f9b82f" target="_top" xlink:title=" ">
<polygon fill="white" stroke="black" points="222,-152.5 222,-171.5 466,-171.5 466,-152.5 222,-152.5"/>
<text text-anchor="middle" x="344" y="-159.5" font-family="Helvetica,sans-Serif" font-size="10.00">gauri::SceneHierarchyPanel::GetSelectedEntity</text>
</a>
</g>
</g>
<!-- Node1&#45;&gt;Node2 -->
<g id="edge1" class="edge">
<title>Node1&#45;&gt;Node2</title>
<path fill="none" stroke="midnightblue" d="M111.66,-95.67C135.84,-108.47 180.94,-130.87 222,-143 231.89,-145.92 242.38,-148.42 252.88,-150.55"/>
<polygon fill="midnightblue" stroke="midnightblue" points="252.45,-154.03 262.93,-152.48 253.77,-147.16 252.45,-154.03"/>
</g>
<!-- Node3 -->
<g id="node3" class="node">
<title>Node3</title>
<g id="a_node3"><a xlink:href="classgauri_1_1EditorLayer.html#ab384f23d003691c354eaffade96057ee" target="_top" xlink:title=" ">
<polygon fill="white" stroke="black" points="264,-114.5 264,-133.5 424,-133.5 424,-114.5 264,-114.5"/>
<text text-anchor="middle" x="344" y="-121.5" font-family="Helvetica,sans-Serif" font-size="10.00">gauri::EditorLayer::NewScene</text>
</a>
</g>
</g>
<!-- Node1&#45;&gt;Node3 -->
<g id="edge2" class="edge">
<title>Node1&#45;&gt;Node3</title>
<path fill="none" stroke="midnightblue" d="M156.51,-95.54C191.14,-100.83 234.37,-107.42 270.48,-112.93"/>
<polygon fill="midnightblue" stroke="midnightblue" points="270.05,-116.41 280.46,-114.46 271.1,-109.49 270.05,-116.41"/>
</g>
<!-- Node5 -->
<g id="node5" class="node">
<title>Node5</title>
<g id="a_node5"><a xlink:href="classgauri_1_1SceneHierarchyPanel.html#ab3606cea4c4f011374fc31c352afdb8e" target="_top" xlink:title=" ">
<polygon fill="white" stroke="black" points="227.5,-38.5 227.5,-57.5 460.5,-57.5 460.5,-38.5 227.5,-38.5"/>
<text text-anchor="middle" x="344" y="-45.5" font-family="Helvetica,sans-Serif" font-size="10.00">gauri::SceneHierarchyPanel::OnImGuiRender</text>
</a>
</g>
</g>
<!-- Node1&#45;&gt;Node5 -->
<g id="edge4" class="edge">
<title>Node1&#45;&gt;Node5</title>
<path fill="none" stroke="midnightblue" d="M156.51,-76.46C191.14,-71.17 234.37,-64.58 270.48,-59.07"/>
<polygon fill="midnightblue" stroke="midnightblue" points="271.1,-62.51 280.46,-57.54 270.05,-55.59 271.1,-62.51"/>
</g>
<!-- Node9 -->
<g id="node9" class="node">
<title>Node9</title>
<g id="a_node9"><a xlink:href="classgauri_1_1EditorLayer.html#a8c57055c9d8687ed121c07190ab77c88" target="_top" xlink:title=" ">
<polygon fill="white" stroke="black" points="262,-76.5 262,-95.5 426,-95.5 426,-76.5 262,-76.5"/>
<text text-anchor="middle" x="344" y="-83.5" font-family="Helvetica,sans-Serif" font-size="10.00">gauri::EditorLayer::OpenScene</text>
</a>
</g>
</g>
<!-- Node1&#45;&gt;Node9 -->
<g id="edge8" class="edge">
<title>Node1&#45;&gt;Node9</title>
<path fill="none" stroke="midnightblue" d="M186.01,-86C207.42,-86 230.2,-86 251.59,-86"/>
<polygon fill="midnightblue" stroke="midnightblue" points="251.63,-89.5 261.63,-86 251.63,-82.5 251.63,-89.5"/>
</g>
<!-- Node10 -->
<g id="node10" class="node">
<title>Node10</title>
<g id="a_node10"><a xlink:href="classgauri_1_1EditorLayer.html#a44fd9d6fab3d845c7127b38bd981bfa9" target="_top" xlink:title=" ">
<polygon fill="white" stroke="black" points="257,-0.5 257,-19.5 431,-19.5 431,-0.5 257,-0.5"/>
<text text-anchor="middle" x="344" y="-7.5" font-family="Helvetica,sans-Serif" font-size="10.00">gauri::EditorLayer::SaveSceneAs</text>
</a>
</g>
</g>
<!-- Node1&#45;&gt;Node10 -->
<g id="edge10" class="edge">
<title>Node1&#45;&gt;Node10</title>
<path fill="none" stroke="midnightblue" d="M111.66,-76.33C135.84,-63.53 180.94,-41.13 222,-29 231.89,-26.08 242.38,-23.58 252.88,-21.45"/>
<polygon fill="midnightblue" stroke="midnightblue" points="253.77,-24.84 262.93,-19.52 252.45,-17.97 253.77,-24.84"/>
</g>
<!-- Node4 -->
<g id="node4" class="node">
<title>Node4</title>
<g id="a_node4"><a xlink:href="classgauri_1_1SceneHierarchyPanel.html#a073f2d95cd8d8b04975b724388ce29b9" target="_top" xlink:title=" ">
<polygon fill="white" stroke="black" points="518.5,-95.5 518.5,-114.5 728.5,-114.5 728.5,-95.5 518.5,-95.5"/>
<text text-anchor="middle" x="623.5" y="-102.5" font-family="Helvetica,sans-Serif" font-size="10.00">gauri::SceneHierarchyPanel::SetContext</text>
</a>
</g>
</g>
<!-- Node3&#45;&gt;Node4 -->
<g id="edge3" class="edge">
<title>Node3&#45;&gt;Node4</title>
<path fill="none" stroke="midnightblue" d="M424.15,-118.58C450.26,-116.79 479.85,-114.77 508.05,-112.84"/>
<polygon fill="midnightblue" stroke="midnightblue" points="508.63,-116.3 518.37,-112.13 508.15,-109.32 508.63,-116.3"/>
</g>
<!-- Node6 -->
<g id="node6" class="node">
<title>Node6</title>
<g id="a_node6"><a xlink:href="classgauri_1_1SceneHierarchyPanel.html#a9144740cb48b4a524479ec129857d898" target="_top" xlink:title=" ">
<polygon fill="white" stroke="black" points="502,-38.5 502,-57.5 745,-57.5 745,-38.5 502,-38.5"/>
<text text-anchor="middle" x="623.5" y="-45.5" font-family="Helvetica,sans-Serif" font-size="10.00">gauri::SceneHierarchyPanel::DrawComponents</text>
</a>
</g>
</g>
<!-- Node5&#45;&gt;Node6 -->
<g id="edge5" class="edge">
<title>Node5&#45;&gt;Node6</title>
<path fill="none" stroke="midnightblue" d="M460.68,-48C470.83,-48 481.14,-48 491.41,-48"/>
<polygon fill="midnightblue" stroke="midnightblue" points="491.64,-51.5 501.64,-48 491.64,-44.5 491.64,-51.5"/>
</g>
<!-- Node8 -->
<g id="node8" class="node">
<title>Node8</title>
<g id="a_node8"><a xlink:href="classgauri_1_1SceneHierarchyPanel.html#ac786ab8a880c239274af1ce3a26351af" target="_top" xlink:title=" ">
<polygon fill="white" stroke="black" points="505.5,-0.5 505.5,-19.5 741.5,-19.5 741.5,-0.5 505.5,-0.5"/>
<text text-anchor="middle" x="623.5" y="-7.5" font-family="Helvetica,sans-Serif" font-size="10.00">gauri::SceneHierarchyPanel::DrawEntityNode</text>
</a>
</g>
</g>
<!-- Node5&#45;&gt;Node8 -->
<g id="edge7" class="edge">
<title>Node5&#45;&gt;Node8</title>
<path fill="none" stroke="midnightblue" d="M414.67,-38.46C453.59,-33.13 502.26,-26.47 542.71,-20.93"/>
<polygon fill="midnightblue" stroke="midnightblue" points="543.37,-24.37 552.8,-19.54 542.42,-17.43 543.37,-24.37"/>
</g>
<!-- Node7 -->
<g id="node7" class="node">
<title>Node7</title>
<g id="a_node7"><a xlink:href="namespacegauri.html#afd9399fc349c8e2f2c0377351d7460a5" target="_top" xlink:title=" ">
<polygon fill="white" stroke="black" points="781,-38.5 781,-57.5 912,-57.5 912,-38.5 781,-38.5"/>
<text text-anchor="middle" x="846.5" y="-45.5" font-family="Helvetica,sans-Serif" font-size="10.00">gauri::DrawVec3Control</text>
</a>
</g>
</g>
<!-- Node6&#45;&gt;Node7 -->
<g id="edge6" class="edge">
<title>Node6&#45;&gt;Node7</title>
<path fill="none" stroke="midnightblue" d="M745.02,-48C753.78,-48 762.46,-48 770.83,-48"/>
<polygon fill="midnightblue" stroke="midnightblue" points="770.87,-51.5 780.87,-48 770.87,-44.5 770.87,-51.5"/>
</g>
<!-- Node9&#45;&gt;Node4 -->
<g id="edge9" class="edge">
<title>Node9&#45;&gt;Node4</title>
<path fill="none" stroke="midnightblue" d="M426.01,-91.55C451.73,-93.31 480.67,-95.29 508.27,-97.18"/>
<polygon fill="midnightblue" stroke="midnightblue" points="508.15,-100.68 518.37,-97.87 508.63,-93.7 508.15,-100.68"/>
</g>
</g>
</svg>
        <g id="navigator" transform="translate(0 0)" fill="#404254">
                <rect fill="#f2f5e9" fill-opacity="0.5" stroke="#606060" stroke-width=".5" x="0" y="0" width="60" height="60"/>
                <use id="zoomplus" xlink:href="#zoomPlus" x="17" y="9" onmousedown="handleZoom(evt,'in')"/>
                <use id="zoomminus" xlink:href="#zoomMin" x="42" y="9" onmousedown="handleZoom(evt,'out')"/>
                <use id="reset" xlink:href="#resetDef" x="30" y="36" onmousedown="handleReset()"/>
                <g id="arrowUp" xlink:href="#dirArrow" transform="translate(30 24)" onmousedown="handlePan(0,-1)">
                  <use xlink:href="#rim" fill="#404040">
                        <set attributeName="fill" to="#808080" begin="arrowUp.mouseover" end="arrowUp.mouseout"/>
                  </use>
                  <path fill="none" stroke="white" stroke-width="1.5" d="M0,-3.0v7 M-2.5,-0.5L0,-3.0L2.5,-0.5"/>
                </g>
                <g id="arrowRight" xlink:href="#dirArrow" transform="rotate(90) translate(36 -43)" onmousedown="handlePan(1,0)">
                  <use xlink:href="#rim" fill="#404040">
                        <set attributeName="fill" to="#808080" begin="arrowRight.mouseover" end="arrowRight.mouseout"/>
                  </use>
                  <path fill="none" stroke="white" stroke-width="1.5" d="M0,-3.0v7 M-2.5,-0.5L0,-3.0L2.5,-0.5"/>
                </g>
                <g id="arrowDown" xlink:href="#dirArrow" transform="rotate(180) translate(-30 -48)" onmousedown="handlePan(0,1)">
                  <use xlink:href="#rim" fill="#404040">
                        <set attributeName="fill" to="#808080" begin="arrowDown.mouseover" end="arrowDown.mouseout"/>
                  </use>
                  <path fill="none" stroke="white" stroke-width="1.5" d="M0,-3.0v7 M-2.5,-0.5L0,-3.0L2.5,-0.5"/>
                </g>
                <g id="arrowLeft" xlink:href="#dirArrow" transform="rotate(270) translate(-36 17)" onmousedown="handlePan(-1,0)">
                  <use xlink:href="#rim" fill="#404040">
                        <set attributeName="fill" to="#808080" begin="arrowLeft.mouseover" end="arrowLeft.mouseout"/>
                  </use>
                  <path fill="none" stroke="white" stroke-width="1.5" d="M0,-3.0v7 M-2.5,-0.5L0,-3.0L2.5,-0.5"/>
                </g>
        </g>
        <svg viewBox="0 0 15 15" width="100%" height="30px" preserveAspectRatio="xMaxYMin meet">
         <g id="arrow_out" transform="scale(0.3 0.3)">
          <a xlink:href="classgauri_1_1EditorLayer_a0ef45ba01458f29faaaa12336e619ff0_cgraph_org.svg" target="_base">
           <rect id="button" ry="5" rx="5" y="6" x="6" height="38" width="38"
                fill="#f2f5e9" fill-opacity="0.5" stroke="#606060" stroke-width="1.0"/>
           <path id="arrow"
             d="M 11.500037,31.436501 C 11.940474,20.09759 22.043105,11.32322 32.158766,21.979434 L 37.068811,17.246167 C 37.068811,17.246167 37.088388,32 37.088388,32 L 22.160133,31.978069 C 22.160133,31.978069 26.997745,27.140456 26.997745,27.140456 C 18.528582,18.264221 13.291696,25.230495 11.500037,31.436501 z"
             style="fill:#404040;"/>
          </a>
         </g>
        </svg>
</svg>
