<?xml version="1.0" encoding="UTF-8" standalone="no"?>
<!DOCTYPE svg PUBLIC "-//W3C//DTD SVG 1.1//EN"
 "http://www.w3.org/Graphics/SVG/1.1/DTD/svg11.dtd">
<!-- Generated by graphviz version 2.43.0 (0)
 -->
<!-- Title: gauri::SceneHierarchyPanel::SetContext Pages: 1 -->
<svg width="513pt" height="104pt"
 viewBox="0.00 0.00 513.00 104.00" xmlns="http://www.w3.org/2000/svg" xmlns:xlink="http://www.w3.org/1999/xlink">
<g id="graph0" class="graph" transform="scale(1 1) rotate(0) translate(4 100)">
<title>gauri::SceneHierarchyPanel::SetContext</title>
<polygon fill="white" stroke="transparent" points="-4,4 -4,-100 509,-100 509,4 -4,4"/>
<!-- Node1 -->
<g id="node1" class="node">
<title>Node1</title>
<g id="a_node1"><a xlink:title=" ">
<polygon fill="#bfbfbf" stroke="black" points="295,-38.5 295,-57.5 505,-57.5 505,-38.5 295,-38.5"/>
<text text-anchor="middle" x="400" y="-45.5" font-family="Helvetica,sans-Serif" font-size="10.00">gauri::SceneHierarchyPanel::SetContext</text>
</a>
</g>
</g>
<!-- Node2 -->
<g id="node2" class="node">
<title>Node2</title>
<g id="a_node2"><a xlink:href="classgauri_1_1EditorLayer.html#a56743b3b2eaeaed03e30123051861eff" target="_top" xlink:title=" ">
<polygon fill="white" stroke="black" points="52.5,-76.5 52.5,-95.5 206.5,-95.5 206.5,-76.5 52.5,-76.5"/>
<text text-anchor="middle" x="129.5" y="-83.5" font-family="Helvetica,sans-Serif" font-size="10.00">gauri::EditorLayer::OnAttach</text>
</a>
</g>
</g>
<!-- Node1&#45;&gt;Node2 -->
<g id="edge1" class="edge">
<title>Node1&#45;&gt;Node2</title>
<path fill="none" stroke="midnightblue" d="M321.33,-58.99C282.29,-64.52 235.44,-71.15 197.94,-76.46"/>
<polygon fill="midnightblue" stroke="midnightblue" points="322.18,-62.41 331.59,-57.54 321.2,-55.48 322.18,-62.41"/>
</g>
<!-- Node3 -->
<g id="node3" class="node">
<title>Node3</title>
<g id="a_node3"><a xlink:href="classgauri_1_1EditorLayer.html#a0ef45ba01458f29faaaa12336e619ff0" target="_top" xlink:title=" ">
<polygon fill="white" stroke="black" points="36.5,-38.5 36.5,-57.5 222.5,-57.5 222.5,-38.5 36.5,-38.5"/>
<text text-anchor="middle" x="129.5" y="-45.5" font-family="Helvetica,sans-Serif" font-size="10.00">gauri::EditorLayer::OnImGuiRender</text>
</a>
</g>
</g>
<!-- Node1&#45;&gt;Node3 -->
<g id="edge2" class="edge">
<title>Node1&#45;&gt;Node3</title>
<path fill="none" stroke="midnightblue" d="M284.72,-48C264.06,-48 242.76,-48 222.82,-48"/>
<polygon fill="midnightblue" stroke="midnightblue" points="284.81,-51.5 294.81,-48 284.81,-44.5 284.81,-51.5"/>
</g>
<!-- Node4 -->
<g id="node4" class="node">
<title>Node4</title>
<g id="a_node4"><a xlink:href="classgauri_1_1SceneHierarchyPanel.html#a233397278fcd56deb207b8fc4f27f1e3" target="_top" xlink:title=" ">
<polygon fill="white" stroke="black" points="0,-0.5 0,-19.5 259,-19.5 259,-0.5 0,-0.5"/>
<text text-anchor="middle" x="129.5" y="-7.5" font-family="Helvetica,sans-Serif" font-size="10.00">gauri::SceneHierarchyPanel::SceneHierarchyPanel</text>
</a>
</g>
</g>
<!-- Node1&#45;&gt;Node4 -->
<g id="edge3" class="edge">
<title>Node1&#45;&gt;Node4</title>
<path fill="none" stroke="midnightblue" d="M321.33,-37.01C282.29,-31.48 235.44,-24.85 197.94,-19.54"/>
<polygon fill="midnightblue" stroke="midnightblue" points="321.2,-40.52 331.59,-38.46 322.18,-33.59 321.2,-40.52"/>
</g>
</g>
</svg>
