<?xml version="1.0" encoding="UTF-8" standalone="no"?>
<!DOCTYPE svg PUBLIC "-//W3C//DTD SVG 1.1//EN"
 "http://www.w3.org/Graphics/SVG/1.1/DTD/svg11.dtd">
<!-- Generated by graphviz version 2.43.0 (0)
 -->
<!-- Title: gauri::SceneHierarchyPanel::SetContext Pages: 1 -->
<svg width="921pt" height="142pt"
 viewBox="0.00 0.00 921.00 142.00" xmlns="http://www.w3.org/2000/svg" xmlns:xlink="http://www.w3.org/1999/xlink">
<g id="graph0" class="graph" transform="scale(1 1) rotate(0) translate(4 138)">
<title>gauri::SceneHierarchyPanel::SetContext</title>
<polygon fill="white" stroke="transparent" points="-4,4 -4,-138 917,-138 917,4 -4,4"/>
<!-- Node1 -->
<g id="node1" class="node">
<title>Node1</title>
<g id="a_node1"><a xlink:title=" ">
<polygon fill="#bfbfbf" stroke="black" points="703,-57.5 703,-76.5 913,-76.5 913,-57.5 703,-57.5"/>
<text text-anchor="middle" x="808" y="-64.5" font-family="Helvetica,sans-Serif" font-size="10.00">gauri::SceneHierarchyPanel::SetContext</text>
</a>
</g>
</g>
<!-- Node2 -->
<g id="node2" class="node">
<title>Node2</title>
<g id="a_node2"><a xlink:href="classgauri_1_1EditorLayer.html#ab384f23d003691c354eaffade96057ee" target="_top" xlink:title=" ">
<polygon fill="white" stroke="black" points="457.5,-114.5 457.5,-133.5 617.5,-133.5 617.5,-114.5 457.5,-114.5"/>
<text text-anchor="middle" x="537.5" y="-121.5" font-family="Helvetica,sans-Serif" font-size="10.00">gauri::EditorLayer::NewScene</text>
</a>
</g>
</g>
<!-- Node1&#45;&gt;Node2 -->
<g id="edge1" class="edge">
<title>Node1&#45;&gt;Node2</title>
<path fill="none" stroke="midnightblue" d="M766.36,-79.4C738.58,-87.53 700.81,-97.94 667,-105 649.67,-108.62 630.89,-111.81 613.17,-114.48"/>
<polygon fill="midnightblue" stroke="midnightblue" points="767.52,-82.71 776.12,-76.51 765.53,-75.99 767.52,-82.71"/>
</g>
<!-- Node6 -->
<g id="node6" class="node">
<title>Node6</title>
<g id="a_node6"><a xlink:href="classgauri_1_1EditorLayer.html#a56743b3b2eaeaed03e30123051861eff" target="_top" xlink:title=" ">
<polygon fill="white" stroke="black" points="460.5,-38.5 460.5,-57.5 614.5,-57.5 614.5,-38.5 460.5,-38.5"/>
<text text-anchor="middle" x="537.5" y="-45.5" font-family="Helvetica,sans-Serif" font-size="10.00">gauri::EditorLayer::OnAttach</text>
</a>
</g>
</g>
<!-- Node1&#45;&gt;Node6 -->
<g id="edge5" class="edge">
<title>Node1&#45;&gt;Node6</title>
<path fill="none" stroke="midnightblue" d="M692.77,-58.92C666.42,-57.05 639.02,-55.11 614.75,-53.4"/>
<polygon fill="midnightblue" stroke="midnightblue" points="692.58,-62.41 702.81,-59.63 693.08,-55.43 692.58,-62.41"/>
</g>
<!-- Node7 -->
<g id="node7" class="node">
<title>Node7</title>
<g id="a_node7"><a xlink:href="classgauri_1_1EditorLayer.html#a8c57055c9d8687ed121c07190ab77c88" target="_top" xlink:title=" ">
<polygon fill="white" stroke="black" points="455.5,-76.5 455.5,-95.5 619.5,-95.5 619.5,-76.5 455.5,-76.5"/>
<text text-anchor="middle" x="537.5" y="-83.5" font-family="Helvetica,sans-Serif" font-size="10.00">gauri::EditorLayer::OpenScene</text>
</a>
</g>
</g>
<!-- Node1&#45;&gt;Node7 -->
<g id="edge6" class="edge">
<title>Node1&#45;&gt;Node7</title>
<path fill="none" stroke="midnightblue" d="M692.72,-75.09C668.18,-76.82 642.73,-78.62 619.74,-80.25"/>
<polygon fill="midnightblue" stroke="midnightblue" points="693.08,-78.57 702.81,-74.37 692.58,-71.59 693.08,-78.57"/>
</g>
<!-- Node8 -->
<g id="node8" class="node">
<title>Node8</title>
<g id="a_node8"><a xlink:href="classgauri_1_1SceneHierarchyPanel.html#a233397278fcd56deb207b8fc4f27f1e3" target="_top" xlink:title=" ">
<polygon fill="white" stroke="black" points="408,-0.5 408,-19.5 667,-19.5 667,-0.5 408,-0.5"/>
<text text-anchor="middle" x="537.5" y="-7.5" font-family="Helvetica,sans-Serif" font-size="10.00">gauri::SceneHierarchyPanel::SceneHierarchyPanel</text>
</a>
</g>
</g>
<!-- Node1&#45;&gt;Node8 -->
<g id="edge9" class="edge">
<title>Node1&#45;&gt;Node8</title>
<path fill="none" stroke="midnightblue" d="M766.36,-54.6C738.58,-46.47 700.81,-36.06 667,-29 649.67,-25.38 630.89,-22.19 613.17,-19.52"/>
<polygon fill="midnightblue" stroke="midnightblue" points="765.53,-58.01 776.12,-57.49 767.52,-51.29 765.53,-58.01"/>
</g>
<!-- Node3 -->
<g id="node3" class="node">
<title>Node3</title>
<g id="a_node3"><a xlink:href="classgauri_1_1EditorLayer.html#a0ef45ba01458f29faaaa12336e619ff0" target="_top" xlink:title=" ">
<polygon fill="white" stroke="black" points="186,-114.5 186,-133.5 372,-133.5 372,-114.5 186,-114.5"/>
<text text-anchor="middle" x="279" y="-121.5" font-family="Helvetica,sans-Serif" font-size="10.00">gauri::EditorLayer::OnImGuiRender</text>
</a>
</g>
</g>
<!-- Node2&#45;&gt;Node3 -->
<g id="edge2" class="edge">
<title>Node2&#45;&gt;Node3</title>
<path fill="none" stroke="midnightblue" d="M447.2,-124C422.96,-124 396.68,-124 372.28,-124"/>
<polygon fill="midnightblue" stroke="midnightblue" points="447.45,-127.5 457.45,-124 447.45,-120.5 447.45,-127.5"/>
</g>
<!-- Node4 -->
<g id="node4" class="node">
<title>Node4</title>
<g id="a_node4"><a xlink:href="classgauri_1_1EditorLayer.html#ab6a80d3d6ce89ceacd4f1e4bd5023f17" target="_top" xlink:title=" ">
<polygon fill="white" stroke="black" points="189.5,-76.5 189.5,-95.5 368.5,-95.5 368.5,-76.5 189.5,-76.5"/>
<text text-anchor="middle" x="279" y="-83.5" font-family="Helvetica,sans-Serif" font-size="10.00">gauri::EditorLayer::OnKeyPressed</text>
</a>
</g>
</g>
<!-- Node2&#45;&gt;Node4 -->
<g id="edge3" class="edge">
<title>Node2&#45;&gt;Node4</title>
<path fill="none" stroke="midnightblue" d="M461.86,-112.97C444.2,-110.36 425.44,-107.58 408,-105 387.22,-101.92 364.55,-98.56 344.13,-95.53"/>
<polygon fill="midnightblue" stroke="midnightblue" points="461.71,-116.49 472.12,-114.49 462.74,-109.56 461.71,-116.49"/>
</g>
<!-- Node5 -->
<g id="node5" class="node">
<title>Node5</title>
<g id="a_node5"><a xlink:href="classgauri_1_1EditorLayer.html#a08b3d9c379dcfa1cfc7a9ec92893c4d9" target="_top" xlink:title=" ">
<polygon fill="white" stroke="black" points="0,-76.5 0,-95.5 150,-95.5 150,-76.5 0,-76.5"/>
<text text-anchor="middle" x="75" y="-83.5" font-family="Helvetica,sans-Serif" font-size="10.00">gauri::EditorLayer::OnEvent</text>
</a>
</g>
</g>
<!-- Node4&#45;&gt;Node5 -->
<g id="edge4" class="edge">
<title>Node4&#45;&gt;Node5</title>
<path fill="none" stroke="midnightblue" d="M179.19,-86C169.37,-86 159.52,-86 150.02,-86"/>
<polygon fill="midnightblue" stroke="midnightblue" points="179.4,-89.5 189.4,-86 179.4,-82.5 179.4,-89.5"/>
</g>
<!-- Node7&#45;&gt;Node3 -->
<g id="edge7" class="edge">
<title>Node7&#45;&gt;Node3</title>
<path fill="none" stroke="midnightblue" d="M461.86,-97.03C444.2,-99.64 425.44,-102.42 408,-105 387.22,-108.08 364.55,-111.44 344.13,-114.47"/>
<polygon fill="midnightblue" stroke="midnightblue" points="462.74,-100.44 472.12,-95.51 461.71,-93.51 462.74,-100.44"/>
</g>
<!-- Node7&#45;&gt;Node4 -->
<g id="edge8" class="edge">
<title>Node7&#45;&gt;Node4</title>
<path fill="none" stroke="midnightblue" d="M445.18,-86C420.29,-86 393.37,-86 368.63,-86"/>
<polygon fill="midnightblue" stroke="midnightblue" points="445.34,-89.5 455.34,-86 445.34,-82.5 445.34,-89.5"/>
</g>
</g>
</svg>
