<?xml version="1.0" encoding="UTF-8" standalone="no"?>
<!DOCTYPE svg PUBLIC "-//W3C//DTD SVG 1.1//EN"
 "http://www.w3.org/Graphics/SVG/1.1/DTD/svg11.dtd">
<!-- Generated by graphviz version 2.43.0 (0)
 -->
<!-- Title: Sandbox2D Pages: 1 -->
<!--zoomable 447 -->
<svg id="main" version="1.1" xmlns="http://www.w3.org/2000/svg" xmlns:xlink="http://www.w3.org/1999/xlink" xml:space="preserve" onload="init(evt)">
<style type="text/css"><![CDATA[
.edge:hover path { stroke: red; }
.edge:hover polygon { stroke: red; fill: red; }
]]></style>
<script type="text/javascript"><![CDATA[
var edges = document.getElementsByTagName('g');
if (edges && edges.length) {
  for (var i=0;i<edges.length;i++) {
    if (edges[i].id.substr(0,4)=='edge') {
      edges[i].setAttribute('class','edge');
    }
  }
}
]]></script>
        <defs>
                <circle id="rim" cx="0" cy="0" r="7"/>
                <circle id="rim2" cx="0" cy="0" r="3.5"/>
                <g id="zoomPlus">
                        <use xlink:href="#rim" fill="#404040">
                                <set attributeName="fill" to="#808080" begin="zoomplus.mouseover" end="zoomplus.mouseout"/>
                        </use>
                        <path d="M-4,0h8M0,-4v8" fill="none" stroke="white" stroke-width="1.5" pointer-events="none"/>
                </g>
                <g id="zoomMin">
                        <use xlink:href="#rim" fill="#404040">
                                <set attributeName="fill" to="#808080" begin="zoomminus.mouseover" end="zoomminus.mouseout"/>
                        </use>
                        <path d="M-4,0h8" fill="none" stroke="white" stroke-width="1.5" pointer-events="none"/>
                </g>
                <g id="dirArrow">
                        <path fill="none" stroke="white" stroke-width="1.5" d="M0,-3.0v7 M-2.5,-0.5L0,-3.0L2.5,-0.5"/>
                </g>
               <g id="resetDef">
                       <use xlink:href="#rim2" fill="#404040">
                               <set attributeName="fill" to="#808080" begin="reset.mouseover" end="reset.mouseout"/>
                       </use>
               </g>
        </defs>

<script type="text/javascript">
var viewWidth = 1181;
var viewHeight = 447;
var sectionId = 'dynsection-1';
</script>
<script xlink:href="svgpan.js"/>
<svg id="graph" class="graph">
<g id="viewport">
<title>Sandbox2D</title>
<polygon fill="white" stroke="transparent" points="-4,4 -4,-443 1177,-443 1177,4 -4,4"/>
<!-- Node1 -->
<g id="node1" class="node">
<title>Node1</title>
<g id="a_node1"><a xlink:title=" ">
<polygon fill="#bfbfbf" stroke="black" points="465.5,-0.5 465.5,-123.5 706.5,-123.5 706.5,-0.5 465.5,-0.5"/>
<text text-anchor="middle" x="586" y="-111.5" font-family="Helvetica,sans-Serif" font-size="10.00">Sandbox2D</text>
<polyline fill="none" stroke="black" points="465.5,-104.5 706.5,-104.5 "/>
<text text-anchor="middle" x="586" y="-92.5" font-family="Helvetica,sans-Serif" font-size="10.00"> </text>
<polyline fill="none" stroke="black" points="465.5,-85.5 706.5,-85.5 "/>
<text text-anchor="start" x="473.5" y="-73.5" font-family="Helvetica,sans-Serif" font-size="10.00">+ Sandbox2D()</text>
<text text-anchor="start" x="473.5" y="-62.5" font-family="Helvetica,sans-Serif" font-size="10.00">+ ~Sandbox2D() override=default</text>
<text text-anchor="start" x="473.5" y="-51.5" font-family="Helvetica,sans-Serif" font-size="10.00">+ void OnAttach() override</text>
<text text-anchor="start" x="473.5" y="-40.5" font-family="Helvetica,sans-Serif" font-size="10.00">+ void OnDetach() override</text>
<text text-anchor="start" x="473.5" y="-29.5" font-family="Helvetica,sans-Serif" font-size="10.00">+ void OnUpdate(gauri::Timestep ts) override</text>
<text text-anchor="start" x="473.5" y="-18.5" font-family="Helvetica,sans-Serif" font-size="10.00">+ void OnImGuiRender() override</text>
<text text-anchor="start" x="473.5" y="-7.5" font-family="Helvetica,sans-Serif" font-size="10.00">+ void OnEvent(gauri::Event &amp;event) override</text>
</a>
</g>
</g>
<!-- Node2 -->
<g id="node2" class="node">
<title>Node2</title>
<g id="a_node2"><a xlink:title=" ">
<polygon fill="white" stroke="#bfbfbf" points="0,-171.5 0,-228.5 74,-228.5 74,-171.5 0,-171.5"/>
<text text-anchor="middle" x="37" y="-216.5" font-family="Helvetica,sans-Serif" font-size="10.00">gauri::Layer</text>
<polyline fill="none" stroke="#bfbfbf" points="0,-209.5 74,-209.5 "/>
<text text-anchor="middle" x="37" y="-197.5" font-family="Helvetica,sans-Serif" font-size="10.00"> </text>
<polyline fill="none" stroke="#bfbfbf" points="0,-190.5 74,-190.5 "/>
<text text-anchor="middle" x="37" y="-178.5" font-family="Helvetica,sans-Serif" font-size="10.00"> </text>
</a>
</g>
</g>
<!-- Node2&#45;&gt;Node1 -->
<g id="edge1" class="edge">
<title>Node2&#45;&gt;Node1</title>
<path fill="none" stroke="midnightblue" d="M83.6,-171.25C215.63,-119.67 363.72,-92.03 465.31,-77.33"/>
<polygon fill="none" stroke="midnightblue" points="82.13,-168.07 74.12,-175 84.71,-174.57 82.13,-168.07"/>
</g>
<!-- Node3 -->
<g id="node3" class="node">
<title>Node3</title>
<g id="a_node3"><a xlink:title=" ">
<polygon fill="white" stroke="#bfbfbf" points="92,-171.5 92,-228.5 238,-228.5 238,-171.5 92,-171.5"/>
<text text-anchor="middle" x="165" y="-216.5" font-family="Helvetica,sans-Serif" font-size="10.00">Ref&lt; gauri::FrameBuffer &gt;</text>
<polyline fill="none" stroke="#bfbfbf" points="92,-209.5 238,-209.5 "/>
<text text-anchor="middle" x="165" y="-197.5" font-family="Helvetica,sans-Serif" font-size="10.00"> </text>
<polyline fill="none" stroke="#bfbfbf" points="92,-190.5 238,-190.5 "/>
<text text-anchor="middle" x="165" y="-178.5" font-family="Helvetica,sans-Serif" font-size="10.00"> </text>
</a>
</g>
</g>
<!-- Node3&#45;&gt;Node1 -->
<g id="edge2" class="edge">
<title>Node3&#45;&gt;Node1</title>
<path fill="none" stroke="#404040" d="M238.32,-173.96C241.25,-172.96 244.15,-171.97 247,-171 284.78,-158.11 294.05,-154.37 332,-142 371.46,-129.13 414.52,-115.56 453.79,-103.37"/>
<polygon fill="none" stroke="#404040" points="453.84,-103.36 458.39,-97.76 465.3,-99.8 460.76,-105.4 453.84,-103.36"/>
<text text-anchor="middle" x="373" y="-145" font-family="Helvetica,sans-Serif" font-size="10.00"> &#45;m_FrameBuffer</text>
</g>
<!-- Node4 -->
<g id="node4" class="node">
<title>Node4</title>
<g id="a_node4"><a xlink:title=" ">
<polygon fill="white" stroke="#bfbfbf" points="256,-171.5 256,-228.5 400,-228.5 400,-171.5 256,-171.5"/>
<text text-anchor="middle" x="328" y="-216.5" font-family="Helvetica,sans-Serif" font-size="10.00">Ref&lt; gauri::VertexArray &gt;</text>
<polyline fill="none" stroke="#bfbfbf" points="256,-209.5 400,-209.5 "/>
<text text-anchor="middle" x="328" y="-197.5" font-family="Helvetica,sans-Serif" font-size="10.00"> </text>
<polyline fill="none" stroke="#bfbfbf" points="256,-190.5 400,-190.5 "/>
<text text-anchor="middle" x="328" y="-178.5" font-family="Helvetica,sans-Serif" font-size="10.00"> </text>
</a>
</g>
</g>
<!-- Node4&#45;&gt;Node1 -->
<g id="edge3" class="edge">
<title>Node4&#45;&gt;Node1</title>
<path fill="none" stroke="#404040" d="M380.21,-171.48C403.45,-159.23 431.92,-144.22 460.18,-129.32"/>
<polygon fill="none" stroke="#404040" points="460.38,-129.22 463.82,-122.88 470.99,-123.62 467.55,-129.96 460.38,-129.22"/>
<text text-anchor="middle" x="467.5" y="-145" font-family="Helvetica,sans-Serif" font-size="10.00"> &#45;m_SquareVA</text>
</g>
<!-- Node5 -->
<g id="node5" class="node">
<title>Node5</title>
<g id="a_node5"><a xlink:title=" ">
<polygon fill="white" stroke="#bfbfbf" points="418,-171.5 418,-228.5 584,-228.5 584,-171.5 418,-171.5"/>
<text text-anchor="middle" x="501" y="-216.5" font-family="Helvetica,sans-Serif" font-size="10.00">OrthographicCameraController</text>
<polyline fill="none" stroke="#bfbfbf" points="418,-209.5 584,-209.5 "/>
<text text-anchor="middle" x="501" y="-197.5" font-family="Helvetica,sans-Serif" font-size="10.00"> </text>
<polyline fill="none" stroke="#bfbfbf" points="418,-190.5 584,-190.5 "/>
<text text-anchor="middle" x="501" y="-178.5" font-family="Helvetica,sans-Serif" font-size="10.00"> </text>
</a>
</g>
</g>
<!-- Node5&#45;&gt;Node1 -->
<g id="edge4" class="edge">
<title>Node5&#45;&gt;Node1</title>
<path fill="none" stroke="#404040" d="M518.2,-171.48C525.08,-160.47 533.35,-147.23 541.72,-133.85"/>
<polygon fill="none" stroke="#404040" points="541.75,-133.8 541.54,-126.59 548.11,-123.62 548.32,-130.83 541.75,-133.8"/>
<text text-anchor="middle" x="589.5" y="-145" font-family="Helvetica,sans-Serif" font-size="10.00"> &#45;m_CameraController</text>
</g>
<!-- Node6 -->
<g id="node6" class="node">
<title>Node6</title>
<g id="a_node6"><a xlink:title=" ">
<polygon fill="white" stroke="#bfbfbf" points="602,-171.5 602,-228.5 816,-228.5 816,-171.5 602,-171.5"/>
<text text-anchor="middle" x="709" y="-216.5" font-family="Helvetica,sans-Serif" font-size="10.00">std::vector&lt; Sandbox2D::ProfileResult &gt;</text>
<polyline fill="none" stroke="#bfbfbf" points="602,-209.5 816,-209.5 "/>
<text text-anchor="middle" x="709" y="-197.5" font-family="Helvetica,sans-Serif" font-size="10.00"> </text>
<polyline fill="none" stroke="#bfbfbf" points="602,-190.5 816,-190.5 "/>
<text text-anchor="middle" x="709" y="-178.5" font-family="Helvetica,sans-Serif" font-size="10.00"> </text>
</a>
</g>
</g>
<!-- Node6&#45;&gt;Node1 -->
<g id="edge5" class="edge">
<title>Node6&#45;&gt;Node1</title>
<path fill="none" stroke="#404040" d="M684.11,-171.48C673.86,-160.15 661.48,-146.45 649.01,-132.67"/>
<polygon fill="none" stroke="#404040" points="648.88,-132.52 641.89,-130.76 640.83,-123.62 647.82,-125.39 648.88,-132.52"/>
<text text-anchor="middle" x="709.5" y="-145" font-family="Helvetica,sans-Serif" font-size="10.00"> &#45;m_ProfileResults</text>
</g>
<!-- Node7 -->
<g id="node7" class="node">
<title>Node7</title>
<g id="a_node7"><a xlink:href="classSandbox2D.html#structSandbox2D_1_1ProfileResult" target="_top" xlink:title=" ">
<polygon fill="white" stroke="black" points="563,-276.5 563,-333.5 703,-333.5 703,-276.5 563,-276.5"/>
<text text-anchor="middle" x="633" y="-321.5" font-family="Helvetica,sans-Serif" font-size="10.00">Sandbox2D::ProfileResult</text>
<polyline fill="none" stroke="black" points="563,-314.5 703,-314.5 "/>
<text text-anchor="middle" x="633" y="-302.5" font-family="Helvetica,sans-Serif" font-size="10.00"> </text>
<polyline fill="none" stroke="black" points="563,-295.5 703,-295.5 "/>
<text text-anchor="middle" x="633" y="-283.5" font-family="Helvetica,sans-Serif" font-size="10.00"> </text>
</a>
</g>
</g>
<!-- Node7&#45;&gt;Node6 -->
<g id="edge6" class="edge">
<title>Node7&#45;&gt;Node6</title>
<path fill="none" stroke="#404040" d="M653.29,-276.45C660.18,-267.1 667.92,-256.59 675,-247 677.05,-244.23 679.16,-241.36 681.29,-238.48"/>
<polygon fill="none" stroke="#404040" points="681.37,-238.38 681.71,-231.17 688.5,-228.73 688.15,-235.93 681.37,-238.38"/>
<text text-anchor="middle" x="704" y="-250" font-family="Helvetica,sans-Serif" font-size="10.00"> +elements</text>
</g>
<!-- Node8 -->
<g id="node8" class="node">
<title>Node8</title>
<g id="a_node8"><a xlink:title=" ">
<polygon fill="white" stroke="#bfbfbf" points="573,-381.5 573,-438.5 611,-438.5 611,-381.5 573,-381.5"/>
<text text-anchor="middle" x="592" y="-426.5" font-family="Helvetica,sans-Serif" font-size="10.00">float</text>
<polyline fill="none" stroke="#bfbfbf" points="573,-419.5 611,-419.5 "/>
<text text-anchor="middle" x="592" y="-407.5" font-family="Helvetica,sans-Serif" font-size="10.00"> </text>
<polyline fill="none" stroke="#bfbfbf" points="573,-400.5 611,-400.5 "/>
<text text-anchor="middle" x="592" y="-388.5" font-family="Helvetica,sans-Serif" font-size="10.00"> </text>
</a>
</g>
</g>
<!-- Node8&#45;&gt;Node7 -->
<g id="edge7" class="edge">
<title>Node8&#45;&gt;Node7</title>
<path fill="none" stroke="#404040" d="M597.78,-381.28C600.14,-371.82 603.23,-361.29 607,-352 608.01,-349.51 609.13,-347 610.32,-344.48"/>
<polygon fill="none" stroke="#404040" points="610.4,-344.33 609.57,-337.17 615.87,-333.65 616.69,-340.81 610.4,-344.33"/>
<text text-anchor="middle" x="625.5" y="-355" font-family="Helvetica,sans-Serif" font-size="10.00"> +Time</text>
</g>
<!-- Node9 -->
<g id="node9" class="node">
<title>Node9</title>
<g id="a_node9"><a xlink:title=" ">
<polygon fill="white" stroke="#bfbfbf" points="629.5,-381.5 629.5,-438.5 704.5,-438.5 704.5,-381.5 629.5,-381.5"/>
<text text-anchor="middle" x="667" y="-426.5" font-family="Helvetica,sans-Serif" font-size="10.00">const char *</text>
<polyline fill="none" stroke="#bfbfbf" points="629.5,-419.5 704.5,-419.5 "/>
<text text-anchor="middle" x="667" y="-407.5" font-family="Helvetica,sans-Serif" font-size="10.00"> </text>
<polyline fill="none" stroke="#bfbfbf" points="629.5,-400.5 704.5,-400.5 "/>
<text text-anchor="middle" x="667" y="-388.5" font-family="Helvetica,sans-Serif" font-size="10.00"> </text>
</a>
</g>
</g>
<!-- Node9&#45;&gt;Node7 -->
<g id="edge8" class="edge">
<title>Node9&#45;&gt;Node7</title>
<path fill="none" stroke="#404040" d="M657.89,-381.4C654.23,-370.31 649.94,-357.33 645.97,-345.3"/>
<polygon fill="none" stroke="#404040" points="645.9,-345.07 640.22,-340.63 642.14,-333.68 647.82,-338.12 645.9,-345.07"/>
<text text-anchor="middle" x="671.5" y="-355" font-family="Helvetica,sans-Serif" font-size="10.00"> +Name</text>
</g>
<!-- Node10 -->
<g id="node10" class="node">
<title>Node10</title>
<g id="a_node10"><a xlink:title=" ">
<polygon fill="white" stroke="#bfbfbf" points="721.5,-276.5 721.5,-333.5 818.5,-333.5 818.5,-276.5 721.5,-276.5"/>
<text text-anchor="middle" x="770" y="-321.5" font-family="Helvetica,sans-Serif" font-size="10.00">std::vector&lt; T &gt;</text>
<polyline fill="none" stroke="#bfbfbf" points="721.5,-314.5 818.5,-314.5 "/>
<text text-anchor="middle" x="770" y="-302.5" font-family="Helvetica,sans-Serif" font-size="10.00"> </text>
<polyline fill="none" stroke="#bfbfbf" points="721.5,-295.5 818.5,-295.5 "/>
<text text-anchor="middle" x="770" y="-283.5" font-family="Helvetica,sans-Serif" font-size="10.00"> </text>
</a>
</g>
</g>
<!-- Node10&#45;&gt;Node6 -->
<g id="edge9" class="edge">
<title>Node10&#45;&gt;Node6</title>
<path fill="none" stroke="orange" d="M748.55,-267.77C740.94,-254.93 732.51,-240.69 725.39,-228.68"/>
<polygon fill="orange" stroke="orange" points="745.55,-269.58 753.65,-276.4 751.57,-266.01 745.55,-269.58"/>
<text text-anchor="middle" x="815.5" y="-250" font-family="Helvetica,sans-Serif" font-size="10.00"> &lt; Sandbox2D::ProfileResult &gt;</text>
</g>
<!-- Node11 -->
<g id="node11" class="node">
<title>Node11</title>
<g id="a_node11"><a xlink:title=" ">
<polygon fill="white" stroke="#bfbfbf" points="755.5,-381.5 755.5,-438.5 784.5,-438.5 784.5,-381.5 755.5,-381.5"/>
<text text-anchor="middle" x="770" y="-426.5" font-family="Helvetica,sans-Serif" font-size="10.00">T</text>
<polyline fill="none" stroke="#bfbfbf" points="755.5,-419.5 784.5,-419.5 "/>
<text text-anchor="middle" x="770" y="-407.5" font-family="Helvetica,sans-Serif" font-size="10.00"> </text>
<polyline fill="none" stroke="#bfbfbf" points="755.5,-400.5 784.5,-400.5 "/>
<text text-anchor="middle" x="770" y="-388.5" font-family="Helvetica,sans-Serif" font-size="10.00"> </text>
</a>
</g>
</g>
<!-- Node11&#45;&gt;Node10 -->
<g id="edge10" class="edge">
<title>Node11&#45;&gt;Node10</title>
<path fill="none" stroke="#404040" d="M770,-381.4C770,-370.55 770,-357.87 770,-346.05"/>
<polygon fill="none" stroke="#404040" points="770,-345.68 766,-339.68 770,-333.68 774,-339.68 770,-345.68"/>
<text text-anchor="middle" x="799" y="-355" font-family="Helvetica,sans-Serif" font-size="10.00"> +elements</text>
</g>
<!-- Node12 -->
<g id="node12" class="node">
<title>Node12</title>
<g id="a_node12"><a xlink:title=" ">
<polygon fill="white" stroke="#bfbfbf" points="834,-171.5 834,-228.5 970,-228.5 970,-171.5 834,-171.5"/>
<text text-anchor="middle" x="902" y="-216.5" font-family="Helvetica,sans-Serif" font-size="10.00">Ref&lt; gauri::Texture2D &gt;</text>
<polyline fill="none" stroke="#bfbfbf" points="834,-209.5 970,-209.5 "/>
<text text-anchor="middle" x="902" y="-197.5" font-family="Helvetica,sans-Serif" font-size="10.00"> </text>
<polyline fill="none" stroke="#bfbfbf" points="834,-190.5 970,-190.5 "/>
<text text-anchor="middle" x="902" y="-178.5" font-family="Helvetica,sans-Serif" font-size="10.00"> </text>
</a>
</g>
</g>
<!-- Node12&#45;&gt;Node1 -->
<g id="edge11" class="edge">
<title>Node12&#45;&gt;Node1</title>
<path fill="none" stroke="#404040" d="M838.05,-171.48C803.45,-156.59 759.39,-137.62 717.82,-119.73"/>
<polygon fill="none" stroke="#404040" points="717.76,-119.71 710.67,-121.01 706.74,-114.96 713.83,-113.66 717.76,-119.71"/>
<text text-anchor="middle" x="852.5" y="-145" font-family="Helvetica,sans-Serif" font-size="10.00"> &#45;m_CheckerboardTexture</text>
</g>
<!-- Node13 -->
<g id="node13" class="node">
<title>Node13</title>
<g id="a_node13"><a xlink:title=" ">
<polygon fill="white" stroke="#bfbfbf" points="988,-171.5 988,-228.5 1028,-228.5 1028,-171.5 988,-171.5"/>
<text text-anchor="middle" x="1008" y="-216.5" font-family="Helvetica,sans-Serif" font-size="10.00">vec4</text>
<polyline fill="none" stroke="#bfbfbf" points="988,-209.5 1028,-209.5 "/>
<text text-anchor="middle" x="1008" y="-197.5" font-family="Helvetica,sans-Serif" font-size="10.00"> </text>
<polyline fill="none" stroke="#bfbfbf" points="988,-190.5 1028,-190.5 "/>
<text text-anchor="middle" x="1008" y="-178.5" font-family="Helvetica,sans-Serif" font-size="10.00"> </text>
</a>
</g>
</g>
<!-- Node13&#45;&gt;Node1 -->
<g id="edge12" class="edge">
<title>Node13&#45;&gt;Node1</title>
<path fill="none" stroke="#404040" d="M987.79,-177.96C984.95,-175.47 981.98,-173.08 979,-171 954.71,-154.06 946.91,-151.92 919,-142 854.44,-119.05 780.47,-100.74 718.67,-87.56"/>
<polygon fill="none" stroke="#404040" points="718.62,-87.55 711.93,-90.22 706.88,-85.07 713.58,-82.4 718.62,-87.55"/>
<text text-anchor="middle" x="989" y="-145" font-family="Helvetica,sans-Serif" font-size="10.00"> &#45;m_SquareColor</text>
</g>
<!-- Node14 -->
<g id="node14" class="node">
<title>Node14</title>
<g id="a_node14"><a xlink:title=" ">
<polygon fill="white" stroke="#bfbfbf" points="1053,-171.5 1053,-228.5 1173,-228.5 1173,-171.5 1053,-171.5"/>
<text text-anchor="middle" x="1113" y="-216.5" font-family="Helvetica,sans-Serif" font-size="10.00">Ref&lt; gauri::Shader &gt;</text>
<polyline fill="none" stroke="#bfbfbf" points="1053,-209.5 1173,-209.5 "/>
<text text-anchor="middle" x="1113" y="-197.5" font-family="Helvetica,sans-Serif" font-size="10.00"> </text>
<polyline fill="none" stroke="#bfbfbf" points="1053,-190.5 1173,-190.5 "/>
<text text-anchor="middle" x="1113" y="-178.5" font-family="Helvetica,sans-Serif" font-size="10.00"> </text>
</a>
</g>
</g>
<!-- Node14&#45;&gt;Node1 -->
<g id="edge13" class="edge">
<title>Node14&#45;&gt;Node1</title>
<path fill="none" stroke="#404040" d="M1081.57,-171.3C1067.82,-160.57 1050.98,-149.18 1034,-142 933.22,-99.42 810.32,-79.79 718.76,-70.74"/>
<polygon fill="none" stroke="#404040" points="718.57,-70.72 712.21,-74.13 706.62,-69.58 712.97,-66.17 718.57,-70.72"/>
<text text-anchor="middle" x="1105" y="-145" font-family="Helvetica,sans-Serif" font-size="10.00"> &#45;m_FlatColorShader</text>
</g>
</g>
</svg>
        <g id="navigator" transform="translate(0 0)" fill="#404254">
                <rect fill="#f2f5e9" fill-opacity="0.5" stroke="#606060" stroke-width=".5" x="0" y="0" width="60" height="60"/>
                <use id="zoomplus" xlink:href="#zoomPlus" x="17" y="9" onmousedown="handleZoom(evt,'in')"/>
                <use id="zoomminus" xlink:href="#zoomMin" x="42" y="9" onmousedown="handleZoom(evt,'out')"/>
                <use id="reset" xlink:href="#resetDef" x="30" y="36" onmousedown="handleReset()"/>
                <g id="arrowUp" xlink:href="#dirArrow" transform="translate(30 24)" onmousedown="handlePan(0,-1)">
                  <use xlink:href="#rim" fill="#404040">
                        <set attributeName="fill" to="#808080" begin="arrowUp.mouseover" end="arrowUp.mouseout"/>
                  </use>
                  <path fill="none" stroke="white" stroke-width="1.5" d="M0,-3.0v7 M-2.5,-0.5L0,-3.0L2.5,-0.5"/>
                </g>
                <g id="arrowRight" xlink:href="#dirArrow" transform="rotate(90) translate(36 -43)" onmousedown="handlePan(1,0)">
                  <use xlink:href="#rim" fill="#404040">
                        <set attributeName="fill" to="#808080" begin="arrowRight.mouseover" end="arrowRight.mouseout"/>
                  </use>
                  <path fill="none" stroke="white" stroke-width="1.5" d="M0,-3.0v7 M-2.5,-0.5L0,-3.0L2.5,-0.5"/>
                </g>
                <g id="arrowDown" xlink:href="#dirArrow" transform="rotate(180) translate(-30 -48)" onmousedown="handlePan(0,1)">
                  <use xlink:href="#rim" fill="#404040">
                        <set attributeName="fill" to="#808080" begin="arrowDown.mouseover" end="arrowDown.mouseout"/>
                  </use>
                  <path fill="none" stroke="white" stroke-width="1.5" d="M0,-3.0v7 M-2.5,-0.5L0,-3.0L2.5,-0.5"/>
                </g>
                <g id="arrowLeft" xlink:href="#dirArrow" transform="rotate(270) translate(-36 17)" onmousedown="handlePan(-1,0)">
                  <use xlink:href="#rim" fill="#404040">
                        <set attributeName="fill" to="#808080" begin="arrowLeft.mouseover" end="arrowLeft.mouseout"/>
                  </use>
                  <path fill="none" stroke="white" stroke-width="1.5" d="M0,-3.0v7 M-2.5,-0.5L0,-3.0L2.5,-0.5"/>
                </g>
        </g>
        <svg viewBox="0 0 15 15" width="100%" height="30px" preserveAspectRatio="xMaxYMin meet">
         <g id="arrow_out" transform="scale(0.3 0.3)">
          <a xlink:href="classSandbox2D__coll__graph_org.svg" target="_base">
           <rect id="button" ry="5" rx="5" y="6" x="6" height="38" width="38"
                fill="#f2f5e9" fill-opacity="0.5" stroke="#606060" stroke-width="1.0"/>
           <path id="arrow"
             d="M 11.500037,31.436501 C 11.940474,20.09759 22.043105,11.32322 32.158766,21.979434 L 37.068811,17.246167 C 37.068811,17.246167 37.088388,32 37.088388,32 L 22.160133,31.978069 C 22.160133,31.978069 26.997745,27.140456 26.997745,27.140456 C 18.528582,18.264221 13.291696,25.230495 11.500037,31.436501 z"
             style="fill:#404040;"/>
          </a>
         </g>
        </svg>
</svg>
