<?xml version="1.0" encoding="UTF-8" standalone="no"?>
<!DOCTYPE svg PUBLIC "-//W3C//DTD SVG 1.1//EN"
 "http://www.w3.org/Graphics/SVG/1.1/DTD/svg11.dtd">
<!-- Generated by graphviz version 2.43.0 (0)
 -->
<!-- Title: gauri::EditorLayer::OnImGuiRender Pages: 1 -->
<svg width="909pt" height="142pt"
 viewBox="0.00 0.00 909.00 142.00" xmlns="http://www.w3.org/2000/svg" xmlns:xlink="http://www.w3.org/1999/xlink">
<g id="graph0" class="graph" transform="scale(1 1) rotate(0) translate(4 138)">
<title>gauri::EditorLayer::OnImGuiRender</title>
<polygon fill="white" stroke="transparent" points="-4,4 -4,-138 905,-138 905,4 -4,4"/>
<!-- Node1 -->
<g id="node1" class="node">
<title>Node1</title>
<g id="a_node1"><a xlink:title=" ">
<polygon fill="#bfbfbf" stroke="black" points="0,-57.5 0,-76.5 186,-76.5 186,-57.5 0,-57.5"/>
<text text-anchor="middle" x="93" y="-64.5" font-family="Helvetica,sans-Serif" font-size="10.00">gauri::EditorLayer::OnImGuiRender</text>
</a>
</g>
</g>
<!-- Node2 -->
<g id="node2" class="node">
<title>Node2</title>
<g id="a_node2"><a xlink:href="classgauri_1_1EditorLayer.html#ab384f23d003691c354eaffade96057ee" target="_top" xlink:title=" ">
<polygon fill="white" stroke="black" points="258.5,-114.5 258.5,-133.5 418.5,-133.5 418.5,-114.5 258.5,-114.5"/>
<text text-anchor="middle" x="338.5" y="-121.5" font-family="Helvetica,sans-Serif" font-size="10.00">gauri::EditorLayer::NewScene</text>
</a>
</g>
</g>
<!-- Node1&#45;&gt;Node2 -->
<g id="edge1" class="edge">
<title>Node1&#45;&gt;Node2</title>
<path fill="none" stroke="midnightblue" d="M122.45,-76.57C148.21,-84.96 187.32,-97.03 222,-105 234.47,-107.86 247.79,-110.47 260.79,-112.77"/>
<polygon fill="midnightblue" stroke="midnightblue" points="260.2,-116.22 270.65,-114.47 261.39,-109.32 260.2,-116.22"/>
</g>
<!-- Node4 -->
<g id="node4" class="node">
<title>Node4</title>
<g id="a_node4"><a xlink:href="classgauri_1_1SceneHierarchyPanel.html#ab3606cea4c4f011374fc31c352afdb8e" target="_top" xlink:title=" ">
<polygon fill="white" stroke="black" points="222,-38.5 222,-57.5 455,-57.5 455,-38.5 222,-38.5"/>
<text text-anchor="middle" x="338.5" y="-45.5" font-family="Helvetica,sans-Serif" font-size="10.00">gauri::SceneHierarchyPanel::OnImGuiRender</text>
</a>
</g>
</g>
<!-- Node1&#45;&gt;Node4 -->
<g id="edge3" class="edge">
<title>Node1&#45;&gt;Node4</title>
<path fill="none" stroke="midnightblue" d="M186.06,-59.82C194.48,-59.16 203.1,-58.49 211.75,-57.81"/>
<polygon fill="midnightblue" stroke="midnightblue" points="212.21,-61.29 221.91,-57.02 211.67,-54.31 212.21,-61.29"/>
</g>
<!-- Node8 -->
<g id="node8" class="node">
<title>Node8</title>
<g id="a_node8"><a xlink:href="classgauri_1_1EditorLayer.html#a8c57055c9d8687ed121c07190ab77c88" target="_top" xlink:title=" ">
<polygon fill="white" stroke="black" points="256.5,-76.5 256.5,-95.5 420.5,-95.5 420.5,-76.5 256.5,-76.5"/>
<text text-anchor="middle" x="338.5" y="-83.5" font-family="Helvetica,sans-Serif" font-size="10.00">gauri::EditorLayer::OpenScene</text>
</a>
</g>
</g>
<!-- Node1&#45;&gt;Node8 -->
<g id="edge7" class="edge">
<title>Node1&#45;&gt;Node8</title>
<path fill="none" stroke="midnightblue" d="M186.06,-74.18C205.78,-75.72 226.62,-77.35 246.31,-78.88"/>
<polygon fill="midnightblue" stroke="midnightblue" points="246.25,-82.39 256.49,-79.68 246.79,-75.41 246.25,-82.39"/>
</g>
<!-- Node9 -->
<g id="node9" class="node">
<title>Node9</title>
<g id="a_node9"><a xlink:href="classgauri_1_1EditorLayer.html#a44fd9d6fab3d845c7127b38bd981bfa9" target="_top" xlink:title=" ">
<polygon fill="white" stroke="black" points="251.5,-0.5 251.5,-19.5 425.5,-19.5 425.5,-0.5 251.5,-0.5"/>
<text text-anchor="middle" x="338.5" y="-7.5" font-family="Helvetica,sans-Serif" font-size="10.00">gauri::EditorLayer::SaveSceneAs</text>
</a>
</g>
</g>
<!-- Node1&#45;&gt;Node9 -->
<g id="edge9" class="edge">
<title>Node1&#45;&gt;Node9</title>
<path fill="none" stroke="midnightblue" d="M122.45,-57.43C148.21,-49.04 187.32,-36.97 222,-29 234.47,-26.14 247.79,-23.53 260.79,-21.23"/>
<polygon fill="midnightblue" stroke="midnightblue" points="261.39,-24.68 270.65,-19.53 260.2,-17.78 261.39,-24.68"/>
</g>
<!-- Node3 -->
<g id="node3" class="node">
<title>Node3</title>
<g id="a_node3"><a xlink:href="classgauri_1_1SceneHierarchyPanel.html#a073f2d95cd8d8b04975b724388ce29b9" target="_top" xlink:title=" ">
<polygon fill="white" stroke="black" points="507.5,-95.5 507.5,-114.5 717.5,-114.5 717.5,-95.5 507.5,-95.5"/>
<text text-anchor="middle" x="612.5" y="-102.5" font-family="Helvetica,sans-Serif" font-size="10.00">gauri::SceneHierarchyPanel::SetContext</text>
</a>
</g>
</g>
<!-- Node2&#45;&gt;Node3 -->
<g id="edge2" class="edge">
<title>Node2&#45;&gt;Node3</title>
<path fill="none" stroke="midnightblue" d="M418.54,-118.48C443.16,-116.76 470.81,-114.83 497.33,-112.97"/>
<polygon fill="midnightblue" stroke="midnightblue" points="497.7,-116.46 507.43,-112.27 497.21,-109.47 497.7,-116.46"/>
</g>
<!-- Node5 -->
<g id="node5" class="node">
<title>Node5</title>
<g id="a_node5"><a xlink:href="classgauri_1_1SceneHierarchyPanel.html#a9144740cb48b4a524479ec129857d898" target="_top" xlink:title=" ">
<polygon fill="white" stroke="black" points="491,-38.5 491,-57.5 734,-57.5 734,-38.5 491,-38.5"/>
<text text-anchor="middle" x="612.5" y="-45.5" font-family="Helvetica,sans-Serif" font-size="10.00">gauri::SceneHierarchyPanel::DrawComponents</text>
</a>
</g>
</g>
<!-- Node4&#45;&gt;Node5 -->
<g id="edge4" class="edge">
<title>Node4&#45;&gt;Node5</title>
<path fill="none" stroke="midnightblue" d="M455.25,-48C463.57,-48 472,-48 480.41,-48"/>
<polygon fill="midnightblue" stroke="midnightblue" points="480.64,-51.5 490.64,-48 480.64,-44.5 480.64,-51.5"/>
</g>
<!-- Node7 -->
<g id="node7" class="node">
<title>Node7</title>
<g id="a_node7"><a xlink:href="classgauri_1_1SceneHierarchyPanel.html#ac786ab8a880c239274af1ce3a26351af" target="_top" xlink:title=" ">
<polygon fill="white" stroke="black" points="494.5,-0.5 494.5,-19.5 730.5,-19.5 730.5,-0.5 494.5,-0.5"/>
<text text-anchor="middle" x="612.5" y="-7.5" font-family="Helvetica,sans-Serif" font-size="10.00">gauri::SceneHierarchyPanel::DrawEntityNode</text>
</a>
</g>
</g>
<!-- Node4&#45;&gt;Node7 -->
<g id="edge6" class="edge">
<title>Node4&#45;&gt;Node7</title>
<path fill="none" stroke="midnightblue" d="M407.79,-38.46C445.86,-33.14 493.44,-26.49 533.04,-20.96"/>
<polygon fill="midnightblue" stroke="midnightblue" points="533.77,-24.39 543.19,-19.54 532.8,-17.46 533.77,-24.39"/>
</g>
<!-- Node6 -->
<g id="node6" class="node">
<title>Node6</title>
<g id="a_node6"><a xlink:href="namespacegauri.html#afd9399fc349c8e2f2c0377351d7460a5" target="_top" xlink:title=" ">
<polygon fill="white" stroke="black" points="770,-38.5 770,-57.5 901,-57.5 901,-38.5 770,-38.5"/>
<text text-anchor="middle" x="835.5" y="-45.5" font-family="Helvetica,sans-Serif" font-size="10.00">gauri::DrawVec3Control</text>
</a>
</g>
</g>
<!-- Node5&#45;&gt;Node6 -->
<g id="edge5" class="edge">
<title>Node5&#45;&gt;Node6</title>
<path fill="none" stroke="midnightblue" d="M734.02,-48C742.78,-48 751.46,-48 759.83,-48"/>
<polygon fill="midnightblue" stroke="midnightblue" points="759.87,-51.5 769.87,-48 759.87,-44.5 759.87,-51.5"/>
</g>
<!-- Node8&#45;&gt;Node3 -->
<g id="edge8" class="edge">
<title>Node8&#45;&gt;Node3</title>
<path fill="none" stroke="midnightblue" d="M420.74,-91.67C444.79,-93.35 471.57,-95.23 497.3,-97.02"/>
<polygon fill="midnightblue" stroke="midnightblue" points="497.25,-100.53 507.47,-97.73 497.74,-93.54 497.25,-100.53"/>
</g>
</g>
</svg>
