<?xml version="1.0" encoding="UTF-8" standalone="no"?>
<!DOCTYPE svg PUBLIC "-//W3C//DTD SVG 1.1//EN"
 "http://www.w3.org/Graphics/SVG/1.1/DTD/svg11.dtd">
<!-- Generated by graphviz version 2.43.0 (0)
 -->
<!-- Title: gauri::GauriEditor Pages: 1 -->
<svg width="193pt" height="171pt"
 viewBox="0.00 0.00 193.00 171.00" xmlns="http://www.w3.org/2000/svg" xmlns:xlink="http://www.w3.org/1999/xlink">
<g id="graph0" class="graph" transform="scale(1 1) rotate(0) translate(4 167)">
<title>gauri::GauriEditor</title>
<polygon fill="white" stroke="transparent" points="-4,4 -4,-167 189,-167 189,4 -4,4"/>
<!-- Node1 -->
<g id="node1" class="node">
<title>Node1</title>
<g id="a_node1"><a xlink:title=" ">
<polygon fill="#bfbfbf" stroke="black" points="0,-0.5 0,-68.5 185,-68.5 185,-0.5 0,-0.5"/>
<text text-anchor="middle" x="92.5" y="-56.5" font-family="Helvetica,sans-Serif" font-size="10.00">gauri::GauriEditor</text>
<polyline fill="none" stroke="black" points="0,-49.5 185,-49.5 "/>
<text text-anchor="middle" x="92.5" y="-37.5" font-family="Helvetica,sans-Serif" font-size="10.00"> </text>
<polyline fill="none" stroke="black" points="0,-30.5 185,-30.5 "/>
<text text-anchor="start" x="8" y="-18.5" font-family="Helvetica,sans-Serif" font-size="10.00">+ GauriEditor()</text>
<text text-anchor="start" x="8" y="-7.5" font-family="Helvetica,sans-Serif" font-size="10.00">+ ~GauriEditor() override=default</text>
</a>
</g>
</g>
<!-- Node2 -->
<g id="node2" class="node">
<title>Node2</title>
<g id="a_node2"><a xlink:title=" ">
<polygon fill="white" stroke="#bfbfbf" points="41.5,-105.5 41.5,-162.5 143.5,-162.5 143.5,-105.5 41.5,-105.5"/>
<text text-anchor="middle" x="92.5" y="-150.5" font-family="Helvetica,sans-Serif" font-size="10.00">gauri::Application</text>
<polyline fill="none" stroke="#bfbfbf" points="41.5,-143.5 143.5,-143.5 "/>
<text text-anchor="middle" x="92.5" y="-131.5" font-family="Helvetica,sans-Serif" font-size="10.00"> </text>
<polyline fill="none" stroke="#bfbfbf" points="41.5,-124.5 143.5,-124.5 "/>
<text text-anchor="middle" x="92.5" y="-112.5" font-family="Helvetica,sans-Serif" font-size="10.00"> </text>
</a>
</g>
</g>
<!-- Node2&#45;&gt;Node1 -->
<g id="edge1" class="edge">
<title>Node2&#45;&gt;Node1</title>
<path fill="none" stroke="midnightblue" d="M92.5,-95.06C92.5,-86.39 92.5,-77.24 92.5,-68.79"/>
<polygon fill="none" stroke="midnightblue" points="89,-95.32 92.5,-105.32 96,-95.32 89,-95.32"/>
</g>
</g>
</svg>
