<?xml version="1.0" encoding="UTF-8" standalone="no"?>
<!DOCTYPE svg PUBLIC "-//W3C//DTD SVG 1.1//EN"
 "http://www.w3.org/Graphics/SVG/1.1/DTD/svg11.dtd">
<!-- Generated by graphviz version 2.43.0 (0)
 -->
<!-- Title: gauri::EditorLayer::OnImGuiRender Pages: 1 -->
<svg width="909pt" height="85pt"
 viewBox="0.00 0.00 909.00 85.00" xmlns="http://www.w3.org/2000/svg" xmlns:xlink="http://www.w3.org/1999/xlink">
<g id="graph0" class="graph" transform="scale(1 1) rotate(0) translate(4 81)">
<title>gauri::EditorLayer::OnImGuiRender</title>
<polygon fill="white" stroke="transparent" points="-4,4 -4,-81 905,-81 905,4 -4,4"/>
<!-- Node1 -->
<g id="node1" class="node">
<title>Node1</title>
<g id="a_node1"><a xlink:title=" ">
<polygon fill="#bfbfbf" stroke="black" points="0,-19.5 0,-38.5 186,-38.5 186,-19.5 0,-19.5"/>
<text text-anchor="middle" x="93" y="-26.5" font-family="Helvetica,sans-Serif" font-size="10.00">gauri::EditorLayer::OnImGuiRender</text>
</a>
</g>
</g>
<!-- Node2 -->
<g id="node2" class="node">
<title>Node2</title>
<g id="a_node2"><a xlink:href="classgauri_1_1SceneHierarchyPanel.html#ab3606cea4c4f011374fc31c352afdb8e" target="_top" xlink:title=" ">
<polygon fill="white" stroke="black" points="222,-38.5 222,-57.5 455,-57.5 455,-38.5 222,-38.5"/>
<text text-anchor="middle" x="338.5" y="-45.5" font-family="Helvetica,sans-Serif" font-size="10.00">gauri::SceneHierarchyPanel::OnImGuiRender</text>
</a>
</g>
</g>
<!-- Node1&#45;&gt;Node2 -->
<g id="edge1" class="edge">
<title>Node1&#45;&gt;Node2</title>
<path fill="none" stroke="midnightblue" d="M186.06,-36.18C194.48,-36.84 203.1,-37.51 211.75,-38.19"/>
<polygon fill="midnightblue" stroke="midnightblue" points="211.67,-41.69 221.91,-38.98 212.21,-34.71 211.67,-41.69"/>
</g>
<!-- Node6 -->
<g id="node6" class="node">
<title>Node6</title>
<g id="a_node6"><a xlink:href="classgauri_1_1SceneHierarchyPanel.html#a073f2d95cd8d8b04975b724388ce29b9" target="_top" xlink:title=" ">
<polygon fill="white" stroke="black" points="233.5,-0.5 233.5,-19.5 443.5,-19.5 443.5,-0.5 233.5,-0.5"/>
<text text-anchor="middle" x="338.5" y="-7.5" font-family="Helvetica,sans-Serif" font-size="10.00">gauri::SceneHierarchyPanel::SetContext</text>
</a>
</g>
</g>
<!-- Node1&#45;&gt;Node6 -->
<g id="edge5" class="edge">
<title>Node1&#45;&gt;Node6</title>
<path fill="none" stroke="midnightblue" d="M186.06,-21.82C198.28,-20.86 210.92,-19.88 223.46,-18.9"/>
<polygon fill="midnightblue" stroke="midnightblue" points="223.78,-22.38 233.48,-18.12 223.24,-15.41 223.78,-22.38"/>
</g>
<!-- Node3 -->
<g id="node3" class="node">
<title>Node3</title>
<g id="a_node3"><a xlink:href="classgauri_1_1SceneHierarchyPanel.html#a9144740cb48b4a524479ec129857d898" target="_top" xlink:title=" ">
<polygon fill="white" stroke="black" points="491,-57.5 491,-76.5 734,-76.5 734,-57.5 491,-57.5"/>
<text text-anchor="middle" x="612.5" y="-64.5" font-family="Helvetica,sans-Serif" font-size="10.00">gauri::SceneHierarchyPanel::DrawComponents</text>
</a>
</g>
</g>
<!-- Node2&#45;&gt;Node3 -->
<g id="edge2" class="edge">
<title>Node2&#45;&gt;Node3</title>
<path fill="none" stroke="midnightblue" d="M455.25,-56.09C463.57,-56.67 472,-57.26 480.41,-57.84"/>
<polygon fill="midnightblue" stroke="midnightblue" points="480.42,-61.35 490.64,-58.56 480.91,-54.37 480.42,-61.35"/>
</g>
<!-- Node5 -->
<g id="node5" class="node">
<title>Node5</title>
<g id="a_node5"><a xlink:href="classgauri_1_1SceneHierarchyPanel.html#ac786ab8a880c239274af1ce3a26351af" target="_top" xlink:title=" ">
<polygon fill="white" stroke="black" points="494.5,-19.5 494.5,-38.5 730.5,-38.5 730.5,-19.5 494.5,-19.5"/>
<text text-anchor="middle" x="612.5" y="-26.5" font-family="Helvetica,sans-Serif" font-size="10.00">gauri::SceneHierarchyPanel::DrawEntityNode</text>
</a>
</g>
</g>
<!-- Node2&#45;&gt;Node5 -->
<g id="edge4" class="edge">
<title>Node2&#45;&gt;Node5</title>
<path fill="none" stroke="midnightblue" d="M455.25,-39.91C464.8,-39.25 474.49,-38.57 484.11,-37.9"/>
<polygon fill="midnightblue" stroke="midnightblue" points="484.39,-41.39 494.12,-37.2 483.9,-34.4 484.39,-41.39"/>
</g>
<!-- Node4 -->
<g id="node4" class="node">
<title>Node4</title>
<g id="a_node4"><a xlink:href="namespacegauri.html#afd9399fc349c8e2f2c0377351d7460a5" target="_top" xlink:title=" ">
<polygon fill="white" stroke="black" points="770,-57.5 770,-76.5 901,-76.5 901,-57.5 770,-57.5"/>
<text text-anchor="middle" x="835.5" y="-64.5" font-family="Helvetica,sans-Serif" font-size="10.00">gauri::DrawVec3Control</text>
</a>
</g>
</g>
<!-- Node3&#45;&gt;Node4 -->
<g id="edge3" class="edge">
<title>Node3&#45;&gt;Node4</title>
<path fill="none" stroke="midnightblue" d="M734.02,-67C742.78,-67 751.46,-67 759.83,-67"/>
<polygon fill="midnightblue" stroke="midnightblue" points="759.87,-70.5 769.87,-67 759.87,-63.5 759.87,-70.5"/>
</g>
</g>
</svg>
