<?xml version="1.0" encoding="UTF-8" standalone="no"?>
<!DOCTYPE svg PUBLIC "-//W3C//DTD SVG 1.1//EN"
 "http://www.w3.org/Graphics/SVG/1.1/DTD/svg11.dtd">
<!-- Generated by graphviz version 2.43.0 (0)
 -->
<!-- Title: gauri::EditorLayer Pages: 1 -->
<!--zoomable 248 -->
<svg id="main" version="1.1" xmlns="http://www.w3.org/2000/svg" xmlns:xlink="http://www.w3.org/1999/xlink" xml:space="preserve" onload="init(evt)">
<style type="text/css"><![CDATA[
.edge:hover path { stroke: red; }
.edge:hover polygon { stroke: red; fill: red; }
]]></style>
<script type="text/javascript"><![CDATA[
var edges = document.getElementsByTagName('g');
if (edges && edges.length) {
  for (var i=0;i<edges.length;i++) {
    if (edges[i].id.substr(0,4)=='edge') {
      edges[i].setAttribute('class','edge');
    }
  }
}
]]></script>
        <defs>
                <circle id="rim" cx="0" cy="0" r="7"/>
                <circle id="rim2" cx="0" cy="0" r="3.5"/>
                <g id="zoomPlus">
                        <use xlink:href="#rim" fill="#404040">
                                <set attributeName="fill" to="#808080" begin="zoomplus.mouseover" end="zoomplus.mouseout"/>
                        </use>
                        <path d="M-4,0h8M0,-4v8" fill="none" stroke="white" stroke-width="1.5" pointer-events="none"/>
                </g>
                <g id="zoomMin">
                        <use xlink:href="#rim" fill="#404040">
                                <set attributeName="fill" to="#808080" begin="zoomminus.mouseover" end="zoomminus.mouseout"/>
                        </use>
                        <path d="M-4,0h8" fill="none" stroke="white" stroke-width="1.5" pointer-events="none"/>
                </g>
                <g id="dirArrow">
                        <path fill="none" stroke="white" stroke-width="1.5" d="M0,-3.0v7 M-2.5,-0.5L0,-3.0L2.5,-0.5"/>
                </g>
               <g id="resetDef">
                       <use xlink:href="#rim2" fill="#404040">
                               <set attributeName="fill" to="#808080" begin="reset.mouseover" end="reset.mouseout"/>
                       </use>
               </g>
        </defs>

<script type="text/javascript">
var viewWidth = 1359;
var viewHeight = 248;
var sectionId = 'dynsection-1';
</script>
<script xlink:href="svgpan.js"/>
<svg id="graph" class="graph">
<g id="viewport">
<title>gauri::EditorLayer</title>
<polygon fill="white" stroke="transparent" points="-4,4 -4,-244 1355,-244 1355,4 -4,4"/>
<!-- Node1 -->
<g id="node1" class="node">
<title>Node1</title>
<g id="a_node1"><a xlink:title=" ">
<polygon fill="#bfbfbf" stroke="black" points="568,-0.5 568,-123.5 778,-123.5 778,-0.5 568,-0.5"/>
<text text-anchor="middle" x="673" y="-111.5" font-family="Helvetica,sans-Serif" font-size="10.00">gauri::EditorLayer</text>
<polyline fill="none" stroke="black" points="568,-104.5 778,-104.5 "/>
<text text-anchor="middle" x="673" y="-92.5" font-family="Helvetica,sans-Serif" font-size="10.00"> </text>
<polyline fill="none" stroke="black" points="568,-85.5 778,-85.5 "/>
<text text-anchor="start" x="576" y="-73.5" font-family="Helvetica,sans-Serif" font-size="10.00">+ EditorLayer()</text>
<text text-anchor="start" x="576" y="-62.5" font-family="Helvetica,sans-Serif" font-size="10.00">+ ~EditorLayer() override=default</text>
<text text-anchor="start" x="576" y="-51.5" font-family="Helvetica,sans-Serif" font-size="10.00">+ void OnAttach() override</text>
<text text-anchor="start" x="576" y="-40.5" font-family="Helvetica,sans-Serif" font-size="10.00">+ void OnDetach() override</text>
<text text-anchor="start" x="576" y="-29.5" font-family="Helvetica,sans-Serif" font-size="10.00">+ void OnUpdate(Timestep ts) override</text>
<text text-anchor="start" x="576" y="-18.5" font-family="Helvetica,sans-Serif" font-size="10.00">+ void OnImGuiRender() override</text>
<text text-anchor="start" x="576" y="-7.5" font-family="Helvetica,sans-Serif" font-size="10.00">+ void OnEvent(Event &amp;event) override</text>
</a>
</g>
</g>
<!-- Node2 -->
<g id="node2" class="node">
<title>Node2</title>
<g id="a_node2"><a xlink:title=" ">
<polygon fill="white" stroke="#bfbfbf" points="0,-182.5 0,-239.5 74,-239.5 74,-182.5 0,-182.5"/>
<text text-anchor="middle" x="37" y="-227.5" font-family="Helvetica,sans-Serif" font-size="10.00">gauri::Layer</text>
<polyline fill="none" stroke="#bfbfbf" points="0,-220.5 74,-220.5 "/>
<text text-anchor="middle" x="37" y="-208.5" font-family="Helvetica,sans-Serif" font-size="10.00"> </text>
<polyline fill="none" stroke="#bfbfbf" points="0,-201.5 74,-201.5 "/>
<text text-anchor="middle" x="37" y="-189.5" font-family="Helvetica,sans-Serif" font-size="10.00"> </text>
</a>
</g>
</g>
<!-- Node2&#45;&gt;Node1 -->
<g id="edge1" class="edge">
<title>Node2&#45;&gt;Node1</title>
<path fill="none" stroke="midnightblue" d="M83.55,-182.12C141.96,-156.56 160.04,-155.57 218,-142 336.85,-114.17 475.27,-91.5 567.94,-77.7"/>
<polygon fill="none" stroke="midnightblue" points="81.95,-179 74.23,-186.26 84.79,-185.4 81.95,-179"/>
</g>
<!-- Node3 -->
<g id="node3" class="node">
<title>Node3</title>
<g id="a_node3"><a xlink:title=" ">
<polygon fill="white" stroke="#bfbfbf" points="92.5,-182.5 92.5,-239.5 205.5,-239.5 205.5,-182.5 92.5,-182.5"/>
<text text-anchor="middle" x="149" y="-227.5" font-family="Helvetica,sans-Serif" font-size="10.00">Ref&lt; VertexArray &gt;</text>
<polyline fill="none" stroke="#bfbfbf" points="92.5,-220.5 205.5,-220.5 "/>
<text text-anchor="middle" x="149" y="-208.5" font-family="Helvetica,sans-Serif" font-size="10.00"> </text>
<polyline fill="none" stroke="#bfbfbf" points="92.5,-201.5 205.5,-201.5 "/>
<text text-anchor="middle" x="149" y="-189.5" font-family="Helvetica,sans-Serif" font-size="10.00"> </text>
</a>
</g>
</g>
<!-- Node3&#45;&gt;Node1 -->
<g id="edge2" class="edge">
<title>Node3&#45;&gt;Node1</title>
<path fill="none" stroke="#404040" d="M188.38,-182.39C210.08,-168.36 238.03,-152.18 265,-142 359.42,-106.38 472.46,-86.1 555.59,-75.03"/>
<polygon fill="none" stroke="#404040" points="555.73,-75.01 561.16,-70.27 567.63,-73.46 562.2,-78.21 555.73,-75.01"/>
<text text-anchor="middle" x="299.5" y="-150.5" font-family="Helvetica,sans-Serif" font-size="10.00"> &#45;m_SquareVA</text>
</g>
<!-- Node4 -->
<g id="node4" class="node">
<title>Node4</title>
<g id="a_node4"><a xlink:title=" ">
<polygon fill="white" stroke="#bfbfbf" points="224,-182.5 224,-239.5 390,-239.5 390,-182.5 224,-182.5"/>
<text text-anchor="middle" x="307" y="-227.5" font-family="Helvetica,sans-Serif" font-size="10.00">OrthographicCameraController</text>
<polyline fill="none" stroke="#bfbfbf" points="224,-220.5 390,-220.5 "/>
<text text-anchor="middle" x="307" y="-208.5" font-family="Helvetica,sans-Serif" font-size="10.00"> </text>
<polyline fill="none" stroke="#bfbfbf" points="224,-201.5 390,-201.5 "/>
<text text-anchor="middle" x="307" y="-189.5" font-family="Helvetica,sans-Serif" font-size="10.00"> </text>
</a>
</g>
</g>
<!-- Node4&#45;&gt;Node1 -->
<g id="edge3" class="edge">
<title>Node4&#45;&gt;Node1</title>
<path fill="none" stroke="#404040" d="M323.38,-182.17C332.96,-168.17 346.27,-152.07 362,-142 419.83,-104.96 494.08,-85.27 555.53,-74.81"/>
<polygon fill="none" stroke="#404040" points="555.8,-74.77 561.08,-69.86 567.64,-72.84 562.36,-77.75 555.8,-74.77"/>
<text text-anchor="middle" x="416.5" y="-150.5" font-family="Helvetica,sans-Serif" font-size="10.00"> &#45;m_CameraController</text>
</g>
<!-- Node5 -->
<g id="node5" class="node">
<title>Node5</title>
<g id="a_node5"><a xlink:title=" ">
<polygon fill="white" stroke="#bfbfbf" points="408,-182.5 408,-239.5 524,-239.5 524,-182.5 408,-182.5"/>
<text text-anchor="middle" x="466" y="-227.5" font-family="Helvetica,sans-Serif" font-size="10.00">Ref&lt; FrameBuffer &gt;</text>
<polyline fill="none" stroke="#bfbfbf" points="408,-220.5 524,-220.5 "/>
<text text-anchor="middle" x="466" y="-208.5" font-family="Helvetica,sans-Serif" font-size="10.00"> </text>
<polyline fill="none" stroke="#bfbfbf" points="408,-201.5 524,-201.5 "/>
<text text-anchor="middle" x="466" y="-189.5" font-family="Helvetica,sans-Serif" font-size="10.00"> </text>
</a>
</g>
</g>
<!-- Node5&#45;&gt;Node1 -->
<g id="edge4" class="edge">
<title>Node5&#45;&gt;Node1</title>
<path fill="none" stroke="#404040" d="M469.46,-182.46C472.41,-168.88 477.88,-153.09 488,-142 506.57,-121.67 531.24,-106.37 556.5,-94.93"/>
<polygon fill="none" stroke="#404040" points="556.71,-94.84 560.64,-88.79 567.74,-90.1 563.8,-96.14 556.71,-94.84"/>
<text text-anchor="middle" x="529" y="-150.5" font-family="Helvetica,sans-Serif" font-size="10.00"> &#45;m_FrameBuffer</text>
</g>
<!-- Node6 -->
<g id="node6" class="node">
<title>Node6</title>
<g id="a_node6"><a xlink:title=" ">
<polygon fill="white" stroke="#bfbfbf" points="542.5,-182.5 542.5,-239.5 587.5,-239.5 587.5,-182.5 542.5,-182.5"/>
<text text-anchor="middle" x="565" y="-227.5" font-family="Helvetica,sans-Serif" font-size="10.00">entity</text>
<polyline fill="none" stroke="#bfbfbf" points="542.5,-220.5 587.5,-220.5 "/>
<text text-anchor="middle" x="565" y="-208.5" font-family="Helvetica,sans-Serif" font-size="10.00"> </text>
<polyline fill="none" stroke="#bfbfbf" points="542.5,-201.5 587.5,-201.5 "/>
<text text-anchor="middle" x="565" y="-189.5" font-family="Helvetica,sans-Serif" font-size="10.00"> </text>
</a>
</g>
</g>
<!-- Node6&#45;&gt;Node1 -->
<g id="edge5" class="edge">
<title>Node6&#45;&gt;Node1</title>
<path fill="none" stroke="#404040" d="M569,-182.38C571.78,-169.41 576.4,-154.16 584,-142 585.85,-139.04 587.84,-136.13 589.95,-133.28"/>
<polygon fill="none" stroke="#404040" points="590.04,-133.16 590.65,-125.98 597.52,-123.78 596.91,-130.96 590.04,-133.16"/>
<text text-anchor="middle" x="626.5" y="-150.5" font-family="Helvetica,sans-Serif" font-size="10.00"> &#45;m_SquareEntity</text>
</g>
<!-- Node7 -->
<g id="node7" class="node">
<title>Node7</title>
<g id="a_node7"><a xlink:title=" ">
<polygon fill="white" stroke="#bfbfbf" points="620.5,-182.5 620.5,-239.5 725.5,-239.5 725.5,-182.5 620.5,-182.5"/>
<text text-anchor="middle" x="673" y="-227.5" font-family="Helvetica,sans-Serif" font-size="10.00">Ref&lt; Texture2D &gt;</text>
<polyline fill="none" stroke="#bfbfbf" points="620.5,-220.5 725.5,-220.5 "/>
<text text-anchor="middle" x="673" y="-208.5" font-family="Helvetica,sans-Serif" font-size="10.00"> </text>
<polyline fill="none" stroke="#bfbfbf" points="620.5,-201.5 725.5,-201.5 "/>
<text text-anchor="middle" x="673" y="-189.5" font-family="Helvetica,sans-Serif" font-size="10.00"> </text>
</a>
</g>
</g>
<!-- Node7&#45;&gt;Node1 -->
<g id="edge6" class="edge">
<title>Node7&#45;&gt;Node1</title>
<path fill="none" stroke="#404040" d="M673,-182.35C673,-169.03 673,-152.37 673,-135.76"/>
<polygon fill="none" stroke="#404040" points="673,-135.72 669,-129.72 673,-123.72 677,-129.72 673,-135.72"/>
<text text-anchor="middle" x="735.5" y="-150.5" font-family="Helvetica,sans-Serif" font-size="10.00"> &#45;m_CheckerboardTexture</text>
</g>
<!-- Node8 -->
<g id="node8" class="node">
<title>Node8</title>
<g id="a_node8"><a xlink:title=" ">
<polygon fill="white" stroke="#bfbfbf" points="802,-182.5 802,-239.5 840,-239.5 840,-182.5 802,-182.5"/>
<text text-anchor="middle" x="821" y="-227.5" font-family="Helvetica,sans-Serif" font-size="10.00">bool</text>
<polyline fill="none" stroke="#bfbfbf" points="802,-220.5 840,-220.5 "/>
<text text-anchor="middle" x="821" y="-208.5" font-family="Helvetica,sans-Serif" font-size="10.00"> </text>
<polyline fill="none" stroke="#bfbfbf" points="802,-201.5 840,-201.5 "/>
<text text-anchor="middle" x="821" y="-189.5" font-family="Helvetica,sans-Serif" font-size="10.00"> </text>
</a>
</g>
</g>
<!-- Node8&#45;&gt;Node1 -->
<g id="edge7" class="edge">
<title>Node8&#45;&gt;Node1</title>
<path fill="none" stroke="#404040" d="M816.64,-182.43C813.47,-169.16 808.07,-153.65 799,-142 795.37,-137.34 791.39,-132.89 787.14,-128.64"/>
<polygon fill="none" stroke="#404040" points="786.86,-128.38 779.74,-127.21 778.08,-120.2 785.2,-121.36 786.86,-128.38"/>
<text text-anchor="middle" x="863" y="-156" font-family="Helvetica,sans-Serif" font-size="10.00"> &#45;m_ViewportFocused</text>
<text text-anchor="middle" x="863" y="-145" font-family="Helvetica,sans-Serif" font-size="10.00">&#45;m_ViewportHovered</text>
</g>
<!-- Node9 -->
<g id="node9" class="node">
<title>Node9</title>
<g id="a_node9"><a xlink:title=" ">
<polygon fill="white" stroke="#bfbfbf" points="905.5,-182.5 905.5,-239.5 994.5,-239.5 994.5,-182.5 905.5,-182.5"/>
<text text-anchor="middle" x="950" y="-227.5" font-family="Helvetica,sans-Serif" font-size="10.00">Ref&lt; Shader &gt;</text>
<polyline fill="none" stroke="#bfbfbf" points="905.5,-220.5 994.5,-220.5 "/>
<text text-anchor="middle" x="950" y="-208.5" font-family="Helvetica,sans-Serif" font-size="10.00"> </text>
<polyline fill="none" stroke="#bfbfbf" points="905.5,-201.5 994.5,-201.5 "/>
<text text-anchor="middle" x="950" y="-189.5" font-family="Helvetica,sans-Serif" font-size="10.00"> </text>
</a>
</g>
</g>
<!-- Node9&#45;&gt;Node1 -->
<g id="edge8" class="edge">
<title>Node9&#45;&gt;Node1</title>
<path fill="none" stroke="#404040" d="M943.57,-182.26C939.07,-168.46 931.71,-152.53 920,-142 884.12,-109.74 835,-90.64 790,-79.34"/>
<polygon fill="none" stroke="#404040" points="789.72,-79.28 782.96,-81.78 778.05,-76.5 784.81,-73.99 789.72,-79.28"/>
<text text-anchor="middle" x="985" y="-150.5" font-family="Helvetica,sans-Serif" font-size="10.00"> &#45;m_FlatColorShader</text>
</g>
<!-- Node10 -->
<g id="node10" class="node">
<title>Node10</title>
<g id="a_node10"><a xlink:title=" ">
<polygon fill="white" stroke="#bfbfbf" points="1053,-182.5 1053,-239.5 1093,-239.5 1093,-182.5 1053,-182.5"/>
<text text-anchor="middle" x="1073" y="-227.5" font-family="Helvetica,sans-Serif" font-size="10.00">vec2</text>
<polyline fill="none" stroke="#bfbfbf" points="1053,-220.5 1093,-220.5 "/>
<text text-anchor="middle" x="1073" y="-208.5" font-family="Helvetica,sans-Serif" font-size="10.00"> </text>
<polyline fill="none" stroke="#bfbfbf" points="1053,-201.5 1093,-201.5 "/>
<text text-anchor="middle" x="1073" y="-189.5" font-family="Helvetica,sans-Serif" font-size="10.00"> </text>
</a>
</g>
</g>
<!-- Node10&#45;&gt;Node1 -->
<g id="edge9" class="edge">
<title>Node10&#45;&gt;Node1</title>
<path fill="none" stroke="#404040" d="M1065.52,-182.41C1060.31,-168.3 1051.93,-152.03 1039,-142 1000.56,-112.18 881.94,-90.22 790.05,-77.13"/>
<polygon fill="none" stroke="#404040" points="790.01,-77.12 783.51,-80.25 778.13,-75.46 784.62,-72.33 790.01,-77.12"/>
<text text-anchor="middle" x="1099" y="-150.5" font-family="Helvetica,sans-Serif" font-size="10.00"> &#45;m_ViewportSize</text>
</g>
<!-- Node11 -->
<g id="node11" class="node">
<title>Node11</title>
<g id="a_node11"><a xlink:title=" ">
<polygon fill="white" stroke="#bfbfbf" points="1162,-182.5 1162,-239.5 1202,-239.5 1202,-182.5 1162,-182.5"/>
<text text-anchor="middle" x="1182" y="-227.5" font-family="Helvetica,sans-Serif" font-size="10.00">vec4</text>
<polyline fill="none" stroke="#bfbfbf" points="1162,-220.5 1202,-220.5 "/>
<text text-anchor="middle" x="1182" y="-208.5" font-family="Helvetica,sans-Serif" font-size="10.00"> </text>
<polyline fill="none" stroke="#bfbfbf" points="1162,-201.5 1202,-201.5 "/>
<text text-anchor="middle" x="1182" y="-189.5" font-family="Helvetica,sans-Serif" font-size="10.00"> </text>
</a>
</g>
</g>
<!-- Node11&#45;&gt;Node1 -->
<g id="edge10" class="edge">
<title>Node11&#45;&gt;Node1</title>
<path fill="none" stroke="#404040" d="M1174.01,-182.48C1168.44,-168.21 1159.54,-151.77 1146,-142 1090.54,-102.02 911.57,-80.82 790.38,-70.76"/>
<polygon fill="none" stroke="#404040" points="790.07,-70.74 783.76,-74.24 778.11,-69.77 784.41,-66.26 790.07,-70.74"/>
<text text-anchor="middle" x="1205" y="-150.5" font-family="Helvetica,sans-Serif" font-size="10.00"> &#45;m_SquareColor</text>
</g>
<!-- Node12 -->
<g id="node12" class="node">
<title>Node12</title>
<g id="a_node12"><a xlink:title=" ">
<polygon fill="white" stroke="#bfbfbf" points="1244.5,-182.5 1244.5,-239.5 1329.5,-239.5 1329.5,-182.5 1244.5,-182.5"/>
<text text-anchor="middle" x="1287" y="-227.5" font-family="Helvetica,sans-Serif" font-size="10.00">Ref&lt; Scene &gt;</text>
<polyline fill="none" stroke="#bfbfbf" points="1244.5,-220.5 1329.5,-220.5 "/>
<text text-anchor="middle" x="1287" y="-208.5" font-family="Helvetica,sans-Serif" font-size="10.00"> </text>
<polyline fill="none" stroke="#bfbfbf" points="1244.5,-201.5 1329.5,-201.5 "/>
<text text-anchor="middle" x="1287" y="-189.5" font-family="Helvetica,sans-Serif" font-size="10.00"> </text>
</a>
</g>
</g>
<!-- Node12&#45;&gt;Node1 -->
<g id="edge11" class="edge">
<title>Node12&#45;&gt;Node1</title>
<path fill="none" stroke="#404040" d="M1278.71,-182.3C1272.97,-167.98 1263.82,-151.55 1250,-142 1177.62,-92.03 937.11,-73.49 790.44,-66.74"/>
<polygon fill="none" stroke="#404040" points="790.28,-66.74 784.11,-70.46 778.29,-66.2 784.47,-62.47 790.28,-66.74"/>
<text text-anchor="middle" x="1310" y="-150.5" font-family="Helvetica,sans-Serif" font-size="10.00"> &#45;m_ActiveScene</text>
</g>
</g>
</svg>
        <g id="navigator" transform="translate(0 0)" fill="#404254">
                <rect fill="#f2f5e9" fill-opacity="0.5" stroke="#606060" stroke-width=".5" x="0" y="0" width="60" height="60"/>
                <use id="zoomplus" xlink:href="#zoomPlus" x="17" y="9" onmousedown="handleZoom(evt,'in')"/>
                <use id="zoomminus" xlink:href="#zoomMin" x="42" y="9" onmousedown="handleZoom(evt,'out')"/>
                <use id="reset" xlink:href="#resetDef" x="30" y="36" onmousedown="handleReset()"/>
                <g id="arrowUp" xlink:href="#dirArrow" transform="translate(30 24)" onmousedown="handlePan(0,-1)">
                  <use xlink:href="#rim" fill="#404040">
                        <set attributeName="fill" to="#808080" begin="arrowUp.mouseover" end="arrowUp.mouseout"/>
                  </use>
                  <path fill="none" stroke="white" stroke-width="1.5" d="M0,-3.0v7 M-2.5,-0.5L0,-3.0L2.5,-0.5"/>
                </g>
                <g id="arrowRight" xlink:href="#dirArrow" transform="rotate(90) translate(36 -43)" onmousedown="handlePan(1,0)">
                  <use xlink:href="#rim" fill="#404040">
                        <set attributeName="fill" to="#808080" begin="arrowRight.mouseover" end="arrowRight.mouseout"/>
                  </use>
                  <path fill="none" stroke="white" stroke-width="1.5" d="M0,-3.0v7 M-2.5,-0.5L0,-3.0L2.5,-0.5"/>
                </g>
                <g id="arrowDown" xlink:href="#dirArrow" transform="rotate(180) translate(-30 -48)" onmousedown="handlePan(0,1)">
                  <use xlink:href="#rim" fill="#404040">
                        <set attributeName="fill" to="#808080" begin="arrowDown.mouseover" end="arrowDown.mouseout"/>
                  </use>
                  <path fill="none" stroke="white" stroke-width="1.5" d="M0,-3.0v7 M-2.5,-0.5L0,-3.0L2.5,-0.5"/>
                </g>
                <g id="arrowLeft" xlink:href="#dirArrow" transform="rotate(270) translate(-36 17)" onmousedown="handlePan(-1,0)">
                  <use xlink:href="#rim" fill="#404040">
                        <set attributeName="fill" to="#808080" begin="arrowLeft.mouseover" end="arrowLeft.mouseout"/>
                  </use>
                  <path fill="none" stroke="white" stroke-width="1.5" d="M0,-3.0v7 M-2.5,-0.5L0,-3.0L2.5,-0.5"/>
                </g>
        </g>
        <svg viewBox="0 0 15 15" width="100%" height="30px" preserveAspectRatio="xMaxYMin meet">
         <g id="arrow_out" transform="scale(0.3 0.3)">
          <a xlink:href="classgauri_1_1EditorLayer__coll__graph_org.svg" target="_base">
           <rect id="button" ry="5" rx="5" y="6" x="6" height="38" width="38"
                fill="#f2f5e9" fill-opacity="0.5" stroke="#606060" stroke-width="1.0"/>
           <path id="arrow"
             d="M 11.500037,31.436501 C 11.940474,20.09759 22.043105,11.32322 32.158766,21.979434 L 37.068811,17.246167 C 37.068811,17.246167 37.088388,32 37.088388,32 L 22.160133,31.978069 C 22.160133,31.978069 26.997745,27.140456 26.997745,27.140456 C 18.528582,18.264221 13.291696,25.230495 11.500037,31.436501 z"
             style="fill:#404040;"/>
          </a>
         </g>
        </svg>
</svg>
