<?xml version="1.0" encoding="UTF-8" standalone="no"?>
<!DOCTYPE svg PUBLIC "-//W3C//DTD SVG 1.1//EN"
 "http://www.w3.org/Graphics/SVG/1.1/DTD/svg11.dtd">
<!-- Generated by graphviz version 2.43.0 (0)
 -->
<!-- Title: gauri::SceneHierarchyPanel Pages: 1 -->
<svg width="258pt" height="237pt"
 viewBox="0.00 0.00 258.00 237.00" xmlns="http://www.w3.org/2000/svg" xmlns:xlink="http://www.w3.org/1999/xlink">
<g id="graph0" class="graph" transform="scale(1 1) rotate(0) translate(4 233)">
<title>gauri::SceneHierarchyPanel</title>
<polygon fill="white" stroke="transparent" points="-4,4 -4,-233 254,-233 254,4 -4,4"/>
<!-- Node1 -->
<g id="node1" class="node">
<title>Node1</title>
<g id="a_node1"><a xlink:title=" ">
<polygon fill="#bfbfbf" stroke="black" points="0,-0.5 0,-123.5 250,-123.5 250,-0.5 0,-0.5"/>
<text text-anchor="middle" x="125" y="-111.5" font-family="Helvetica,sans-Serif" font-size="10.00">gauri::SceneHierarchyPanel</text>
<polyline fill="none" stroke="black" points="0,-104.5 250,-104.5 "/>
<text text-anchor="middle" x="125" y="-92.5" font-family="Helvetica,sans-Serif" font-size="10.00"> </text>
<polyline fill="none" stroke="black" points="0,-85.5 250,-85.5 "/>
<text text-anchor="start" x="8" y="-73.5" font-family="Helvetica,sans-Serif" font-size="10.00">+ SceneHierarchyPanel()=default</text>
<text text-anchor="start" x="8" y="-62.5" font-family="Helvetica,sans-Serif" font-size="10.00">+ SceneHierarchyPanel(Ref&lt; Scene &gt; &amp;scene)</text>
<text text-anchor="start" x="8" y="-51.5" font-family="Helvetica,sans-Serif" font-size="10.00">+ void SetContext(const Ref&lt; Scene &gt; &amp;scene)</text>
<text text-anchor="start" x="8" y="-40.5" font-family="Helvetica,sans-Serif" font-size="10.00">+ void OnImGuiRender()</text>
<text text-anchor="start" x="8" y="-29.5" font-family="Helvetica,sans-Serif" font-size="10.00">+ Entity GetSelectedEntity() const</text>
<text text-anchor="start" x="8" y="-18.5" font-family="Helvetica,sans-Serif" font-size="10.00">&#45; void DrawEntityNode(Entity entity)</text>
<text text-anchor="start" x="8" y="-7.5" font-family="Helvetica,sans-Serif" font-size="10.00">&#45; void DrawComponents(Entity entity)</text>
</a>
</g>
</g>
<!-- Node2 -->
<g id="node2" class="node">
<title>Node2</title>
<g id="a_node2"><a xlink:title=" ">
<polygon fill="white" stroke="#bfbfbf" points="38.5,-171.5 38.5,-228.5 83.5,-228.5 83.5,-171.5 38.5,-171.5"/>
<text text-anchor="middle" x="61" y="-216.5" font-family="Helvetica,sans-Serif" font-size="10.00">Entity</text>
<polyline fill="none" stroke="#bfbfbf" points="38.5,-209.5 83.5,-209.5 "/>
<text text-anchor="middle" x="61" y="-197.5" font-family="Helvetica,sans-Serif" font-size="10.00"> </text>
<polyline fill="none" stroke="#bfbfbf" points="38.5,-190.5 83.5,-190.5 "/>
<text text-anchor="middle" x="61" y="-178.5" font-family="Helvetica,sans-Serif" font-size="10.00"> </text>
</a>
</g>
</g>
<!-- Node2&#45;&gt;Node1 -->
<g id="edge1" class="edge">
<title>Node2&#45;&gt;Node1</title>
<path fill="none" stroke="#404040" d="M57.92,-171.38C57.78,-161.83 58.68,-151.22 62,-142 62.92,-139.45 63.95,-136.92 65.09,-134.42"/>
<polygon fill="none" stroke="#404040" points="65.15,-134.31 64.35,-127.14 70.66,-123.65 71.46,-130.82 65.15,-134.31"/>
<text text-anchor="middle" x="115" y="-145" font-family="Helvetica,sans-Serif" font-size="10.00"> &#45;m_SelectionContext</text>
</g>
<!-- Node3 -->
<g id="node3" class="node">
<title>Node3</title>
<g id="a_node3"><a xlink:title=" ">
<polygon fill="white" stroke="#bfbfbf" points="147.5,-171.5 147.5,-228.5 232.5,-228.5 232.5,-171.5 147.5,-171.5"/>
<text text-anchor="middle" x="190" y="-216.5" font-family="Helvetica,sans-Serif" font-size="10.00">Ref&lt; Scene &gt;</text>
<polyline fill="none" stroke="#bfbfbf" points="147.5,-209.5 232.5,-209.5 "/>
<text text-anchor="middle" x="190" y="-197.5" font-family="Helvetica,sans-Serif" font-size="10.00"> </text>
<polyline fill="none" stroke="#bfbfbf" points="147.5,-190.5 232.5,-190.5 "/>
<text text-anchor="middle" x="190" y="-178.5" font-family="Helvetica,sans-Serif" font-size="10.00"> </text>
</a>
</g>
</g>
<!-- Node3&#45;&gt;Node1 -->
<g id="edge2" class="edge">
<title>Node3&#45;&gt;Node1</title>
<path fill="none" stroke="#404040" d="M180.19,-171.44C176.61,-162 172.37,-151.43 168,-142 166.88,-139.58 165.72,-137.14 164.53,-134.67"/>
<polygon fill="none" stroke="#404040" points="164.48,-134.58 158.23,-130.99 159.13,-123.84 165.39,-127.43 164.48,-134.58"/>
<text text-anchor="middle" x="202.5" y="-145" font-family="Helvetica,sans-Serif" font-size="10.00"> &#45;m_Context</text>
</g>
</g>
</svg>
