<?xml version="1.0" encoding="UTF-8" standalone="no"?>
<!DOCTYPE svg PUBLIC "-//W3C//DTD SVG 1.1//EN"
 "http://www.w3.org/Graphics/SVG/1.1/DTD/svg11.dtd">
<!-- Generated by graphviz version 2.43.0 (0)
 -->
<!-- Title: /home/runner/work/game&#45;engine/game&#45;engine/game&#45;engine/gauri_editor/src Pages: 1 -->
<svg width="203pt" height="175pt"
 viewBox="0.00 0.00 203.00 175.00" xmlns="http://www.w3.org/2000/svg" xmlns:xlink="http://www.w3.org/1999/xlink">
<g id="graph0" class="graph" transform="scale(1 1) rotate(0) translate(4 171)">
<title>/home/runner/work/game&#45;engine/game&#45;engine/game&#45;engine/gauri_editor/src</title>
<polygon fill="white" stroke="transparent" points="-4,4 -4,-171 199,-171 199,4 -4,4"/>
<g id="clust1" class="cluster">
<title>clusterdir_474c35547e6cf9a340573ba0533f17cf</title>
<g id="a_clust1"><a xlink:href="dir_474c35547e6cf9a340573ba0533f17cf.html" target="_top" xlink:title="gauri_editor">
<polygon fill="#ddddee" stroke="black" points="8,-8 8,-159 187,-159 187,-8 8,-8"/>
<text text-anchor="middle" x="97.5" y="-147" font-family="Helvetica,sans-Serif" font-size="10.00">gauri_editor</text>
</a>
</g>
</g>
<g id="clust2" class="cluster">
<title>clusterdir_2c5d730dcfb9ce61088783f815c8d6c5</title>
<g id="a_clust2"><a xlink:href="dir_2c5d730dcfb9ce61088783f815c8d6c5.html" target="_top">
<polygon fill="#eeeeff" stroke="black" points="16,-80 16,-132 179,-132 179,-80 16,-80"/>
</a>
</g>
</g>
<!-- dir_7b93209c31cfdafd3546e50041c0e4e3 -->
<g id="node1" class="node">
<title>dir_7b93209c31cfdafd3546e50041c0e4e3</title>
<g id="a_node1"><a xlink:href="dir_7b93209c31cfdafd3546e50041c0e4e3.html" target="_top" xlink:title="include">
<polygon fill="white" stroke="red" points="88,-52 34,-52 34,-16 88,-16 88,-52"/>
<text text-anchor="middle" x="61" y="-31.5" font-family="Helvetica,sans-Serif" font-size="10.00">include</text>
</a>
</g>
</g>
<!-- dir_2c5d730dcfb9ce61088783f815c8d6c5 -->
<g id="node2" class="node">
<title>dir_2c5d730dcfb9ce61088783f815c8d6c5</title>
<text text-anchor="middle" x="144" y="-103.5" font-family="Helvetica,sans-Serif" font-size="10.00">src</text>
</g>
<!-- dir_8d32f3913bb8ff4fc81e29b545e384ed -->
<g id="node3" class="node">
<title>dir_8d32f3913bb8ff4fc81e29b545e384ed</title>
<g id="a_node3"><a xlink:href="dir_8d32f3913bb8ff4fc81e29b545e384ed.html" target="_top" xlink:title="gauri_editor">
<polygon fill="white" stroke="red" points="98.5,-124 23.5,-124 23.5,-88 98.5,-88 98.5,-124"/>
<text text-anchor="middle" x="61" y="-103.5" font-family="Helvetica,sans-Serif" font-size="10.00">gauri_editor</text>
</a>
</g>
</g>
<!-- dir_8d32f3913bb8ff4fc81e29b545e384ed&#45;&gt;dir_7b93209c31cfdafd3546e50041c0e4e3 -->
<g id="edge1" class="edge">
<title>dir_8d32f3913bb8ff4fc81e29b545e384ed&#45;&gt;dir_7b93209c31cfdafd3546e50041c0e4e3</title>
<path fill="none" stroke="black" d="M61,-87.7C61,-79.98 61,-70.71 61,-62.11"/>
<polygon fill="black" stroke="black" points="64.5,-62.1 61,-52.1 57.5,-62.1 64.5,-62.1"/>
<g id="a_edge1&#45;headlabel"><a xlink:href="dir_000005_000001.html" target="_top" xlink:title="2">
<text text-anchor="middle" x="67.34" y="-63.2" font-family="Helvetica,sans-Serif" font-size="10.00">2</text>
</a>
</g>
</g>
</g>
</svg>
