<?xml version="1.0" encoding="UTF-8" standalone="no"?>
<!DOCTYPE svg PUBLIC "-//W3C//DTD SVG 1.1//EN"
 "http://www.w3.org/Graphics/SVG/1.1/DTD/svg11.dtd">
<!-- Generated by graphviz version 2.43.0 (0)
 -->
<!-- Title: /home/runner/work/game&#45;engine/game&#45;engine/game&#45;engine/gauri_editor/src/gauri_editor/panels Pages: 1 -->
<svg width="99pt" height="151pt"
 viewBox="0.00 0.00 99.00 151.00" xmlns="http://www.w3.org/2000/svg" xmlns:xlink="http://www.w3.org/1999/xlink">
<g id="graph0" class="graph" transform="scale(1 1) rotate(0) translate(4 147)">
<title>/home/runner/work/game&#45;engine/game&#45;engine/game&#45;engine/gauri_editor/src/gauri_editor/panels</title>
<polygon fill="white" stroke="transparent" points="-4,4 -4,-147 95,-147 95,4 -4,4"/>
<g id="clust1" class="cluster">
<title>clusterdir_8d32f3913bb8ff4fc81e29b545e384ed</title>
<g id="a_clust1"><a xlink:href="dir_8d32f3913bb8ff4fc81e29b545e384ed.html" target="_top" xlink:title="gauri_editor">
<polygon fill="#ddddee" stroke="black" points="8,-64 8,-135 83,-135 83,-64 8,-64"/>
<text text-anchor="middle" x="45.5" y="-123" font-family="Helvetica,sans-Serif" font-size="10.00">gauri_editor</text>
</a>
</g>
</g>
<!-- dir_61470056926095b8f4d7f09c26f44b23 -->
<g id="node1" class="node">
<title>dir_61470056926095b8f4d7f09c26f44b23</title>
<g id="a_node1"><a xlink:href="dir_61470056926095b8f4d7f09c26f44b23.html" target="_top" xlink:title="panels">
<polygon fill="#eeeeff" stroke="black" points="72,-108 18,-108 18,-72 72,-72 72,-108"/>
<text text-anchor="middle" x="45" y="-87.5" font-family="Helvetica,sans-Serif" font-size="10.00">panels</text>
</a>
</g>
</g>
<!-- dir_7b93209c31cfdafd3546e50041c0e4e3 -->
<g id="node2" class="node">
<title>dir_7b93209c31cfdafd3546e50041c0e4e3</title>
<g id="a_node2"><a xlink:href="dir_7b93209c31cfdafd3546e50041c0e4e3.html" target="_top" xlink:title="include">
<polygon fill="white" stroke="red" points="72,-36 18,-36 18,0 72,0 72,-36"/>
<text text-anchor="middle" x="45" y="-15.5" font-family="Helvetica,sans-Serif" font-size="10.00">include</text>
</a>
</g>
</g>
<!-- dir_61470056926095b8f4d7f09c26f44b23&#45;&gt;dir_7b93209c31cfdafd3546e50041c0e4e3 -->
<g id="edge1" class="edge">
<title>dir_61470056926095b8f4d7f09c26f44b23&#45;&gt;dir_7b93209c31cfdafd3546e50041c0e4e3</title>
<path fill="none" stroke="black" d="M45,-71.7C45,-63.98 45,-54.71 45,-46.11"/>
<polygon fill="black" stroke="black" points="48.5,-46.1 45,-36.1 41.5,-46.1 48.5,-46.1"/>
<g id="a_edge1&#45;headlabel"><a xlink:href="dir_000006_000001.html" target="_top" xlink:title="1">
<text text-anchor="middle" x="51.34" y="-47.2" font-family="Helvetica,sans-Serif" font-size="10.00">1</text>
</a>
</g>
</g>
</g>
</svg>
