<?xml version="1.0" encoding="UTF-8" standalone="no"?>
<!DOCTYPE svg PUBLIC "-//W3C//DTD SVG 1.1//EN"
 "http://www.w3.org/Graphics/SVG/1.1/DTD/svg11.dtd">
<!-- Generated by graphviz version 2.43.0 (0)
 -->
<!-- Title: /home/runner/work/game&#45;engine/game&#45;engine/game&#45;engine/gauri_editor/src/gauri_editor Pages: 1 -->
<svg width="203pt" height="159pt"
 viewBox="0.00 0.00 203.00 159.00" xmlns="http://www.w3.org/2000/svg" xmlns:xlink="http://www.w3.org/1999/xlink">
<g id="graph0" class="graph" transform="scale(1 1) rotate(0) translate(4 155)">
<title>/home/runner/work/game&#45;engine/game&#45;engine/game&#45;engine/gauri_editor/src/gauri_editor</title>
<polygon fill="white" stroke="transparent" points="-4,4 -4,-155 199,-155 199,4 -4,4"/>
<g id="clust1" class="cluster">
<title>clusterdir_2c5d730dcfb9ce61088783f815c8d6c5</title>
<g id="a_clust1"><a xlink:href="dir_2c5d730dcfb9ce61088783f815c8d6c5.html" target="_top" xlink:title="src">
<polygon fill="#ddddee" stroke="black" points="8,-56 8,-143 187,-143 187,-56 8,-56"/>
<text text-anchor="middle" x="97.5" y="-131" font-family="Helvetica,sans-Serif" font-size="10.00">src</text>
</a>
</g>
</g>
<g id="clust2" class="cluster">
<title>clusterdir_8d32f3913bb8ff4fc81e29b545e384ed</title>
<g id="a_clust2"><a xlink:href="dir_8d32f3913bb8ff4fc81e29b545e384ed.html" target="_top">
<polygon fill="#eeeeff" stroke="black" points="16,-64 16,-116 179,-116 179,-64 16,-64"/>
</a>
</g>
</g>
<!-- dir_8d32f3913bb8ff4fc81e29b545e384ed -->
<g id="node1" class="node">
<title>dir_8d32f3913bb8ff4fc81e29b545e384ed</title>
<text text-anchor="middle" x="134" y="-87.5" font-family="Helvetica,sans-Serif" font-size="10.00">gauri_editor</text>
</g>
<!-- dir_7b93209c31cfdafd3546e50041c0e4e3 -->
<g id="node3" class="node">
<title>dir_7b93209c31cfdafd3546e50041c0e4e3</title>
<g id="a_node3"><a xlink:href="dir_7b93209c31cfdafd3546e50041c0e4e3.html" target="_top" xlink:title="include">
<polygon fill="white" stroke="red" points="119,-36 65,-36 65,0 119,0 119,-36"/>
<text text-anchor="middle" x="92" y="-15.5" font-family="Helvetica,sans-Serif" font-size="10.00">include</text>
</a>
</g>
</g>
<!-- dir_8d32f3913bb8ff4fc81e29b545e384ed&#45;&gt;dir_7b93209c31cfdafd3546e50041c0e4e3 -->
<g id="edge2" class="edge">
<title>dir_8d32f3913bb8ff4fc81e29b545e384ed&#45;&gt;dir_7b93209c31cfdafd3546e50041c0e4e3</title>
<path fill="none" stroke="black" d="M123.62,-71.7C118.74,-63.56 112.81,-53.69 107.42,-44.7"/>
<polygon fill="black" stroke="black" points="110.41,-42.88 102.26,-36.1 104.41,-46.48 110.41,-42.88"/>
<g id="a_edge2&#45;headlabel"><a xlink:href="dir_000005_000001.html" target="_top" xlink:title="2">
<text text-anchor="middle" x="114.69" y="-42" font-family="Helvetica,sans-Serif" font-size="10.00">2</text>
</a>
</g>
</g>
<!-- dir_61470056926095b8f4d7f09c26f44b23 -->
<g id="node2" class="node">
<title>dir_61470056926095b8f4d7f09c26f44b23</title>
<g id="a_node2"><a xlink:href="dir_61470056926095b8f4d7f09c26f44b23.html" target="_top" xlink:title="panels">
<polygon fill="white" stroke="black" points="78,-108 24,-108 24,-72 78,-72 78,-108"/>
<text text-anchor="middle" x="51" y="-87.5" font-family="Helvetica,sans-Serif" font-size="10.00">panels</text>
</a>
</g>
</g>
<!-- dir_61470056926095b8f4d7f09c26f44b23&#45;&gt;dir_7b93209c31cfdafd3546e50041c0e4e3 -->
<g id="edge1" class="edge">
<title>dir_61470056926095b8f4d7f09c26f44b23&#45;&gt;dir_7b93209c31cfdafd3546e50041c0e4e3</title>
<path fill="none" stroke="black" d="M61.13,-71.7C65.85,-63.64 71.56,-53.89 76.78,-44.98"/>
<polygon fill="black" stroke="black" points="79.95,-46.5 81.98,-36.1 73.91,-42.96 79.95,-46.5"/>
<g id="a_edge1&#45;headlabel"><a xlink:href="dir_000006_000001.html" target="_top" xlink:title="1">
<text text-anchor="middle" x="80.58" y="-48.54" font-family="Helvetica,sans-Serif" font-size="10.00">1</text>
</a>
</g>
</g>
</g>
</svg>
