<?xml version="1.0" encoding="UTF-8" standalone="no"?>
<!DOCTYPE svg PUBLIC "-//W3C//DTD SVG 1.1//EN"
 "http://www.w3.org/Graphics/SVG/1.1/DTD/svg11.dtd">
<!-- Generated by graphviz version 2.43.0 (0)
 -->
<!-- Title: /home/runner/work/game&#45;engine/game&#45;engine/game&#45;engine/gauri_editor Pages: 1 -->
<svg width="187pt" height="148pt"
 viewBox="0.00 0.00 187.00 148.00" xmlns="http://www.w3.org/2000/svg" xmlns:xlink="http://www.w3.org/1999/xlink">
<g id="graph0" class="graph" transform="scale(1 1) rotate(0) translate(4 144)">
<title>/home/runner/work/game&#45;engine/game&#45;engine/game&#45;engine/gauri_editor</title>
<polygon fill="white" stroke="transparent" points="-4,4 -4,-144 183,-144 183,4 -4,4"/>
<g id="clust1" class="cluster">
<title>clusterdir_474c35547e6cf9a340573ba0533f17cf</title>
<g id="a_clust1"><a xlink:href="dir_474c35547e6cf9a340573ba0533f17cf.html" target="_top">
<polygon fill="#eeeeff" stroke="black" points="8,-8 8,-132 171,-132 171,-8 8,-8"/>
</a>
</g>
</g>
<!-- dir_474c35547e6cf9a340573ba0533f17cf -->
<g id="node1" class="node">
<title>dir_474c35547e6cf9a340573ba0533f17cf</title>
<text text-anchor="middle" x="126" y="-103.5" font-family="Helvetica,sans-Serif" font-size="10.00">gauri_editor</text>
</g>
<!-- dir_7b93209c31cfdafd3546e50041c0e4e3 -->
<g id="node2" class="node">
<title>dir_7b93209c31cfdafd3546e50041c0e4e3</title>
<g id="a_node2"><a xlink:href="dir_7b93209c31cfdafd3546e50041c0e4e3.html" target="_top" xlink:title="include">
<polygon fill="white" stroke="red" points="70,-52 16,-52 16,-16 70,-16 70,-52"/>
<text text-anchor="middle" x="43" y="-31.5" font-family="Helvetica,sans-Serif" font-size="10.00">include</text>
</a>
</g>
</g>
<!-- dir_2c5d730dcfb9ce61088783f815c8d6c5 -->
<g id="node3" class="node">
<title>dir_2c5d730dcfb9ce61088783f815c8d6c5</title>
<g id="a_node3"><a xlink:href="dir_2c5d730dcfb9ce61088783f815c8d6c5.html" target="_top" xlink:title="src">
<polygon fill="white" stroke="red" points="70,-124 16,-124 16,-88 70,-88 70,-124"/>
<text text-anchor="middle" x="43" y="-103.5" font-family="Helvetica,sans-Serif" font-size="10.00">src</text>
</a>
</g>
</g>
<!-- dir_2c5d730dcfb9ce61088783f815c8d6c5&#45;&gt;dir_7b93209c31cfdafd3546e50041c0e4e3 -->
<g id="edge1" class="edge">
<title>dir_2c5d730dcfb9ce61088783f815c8d6c5&#45;&gt;dir_7b93209c31cfdafd3546e50041c0e4e3</title>
<path fill="none" stroke="black" d="M43,-87.7C43,-79.98 43,-70.71 43,-62.11"/>
<polygon fill="black" stroke="black" points="46.5,-62.1 43,-52.1 39.5,-62.1 46.5,-62.1"/>
<g id="a_edge1&#45;headlabel"><a xlink:href="dir_000004_000001.html" target="_top" xlink:title="3">
<text text-anchor="middle" x="49.34" y="-63.2" font-family="Helvetica,sans-Serif" font-size="10.00">3</text>
</a>
</g>
</g>
</g>
</svg>
