<?xml version="1.0" encoding="UTF-8" standalone="no"?>
<!DOCTYPE svg PUBLIC "-//W3C//DTD SVG 1.1//EN"
 "http://www.w3.org/Graphics/SVG/1.1/DTD/svg11.dtd">
<!-- Generated by graphviz version 2.43.0 (0)
 -->
<!-- Title: /home/runner/work/game&#45;engine/game&#45;engine/game&#45;engine/gauri_editor/include/gauri_editor Pages: 1 -->
<svg width="130pt" height="183pt"
 viewBox="0.00 0.00 130.00 183.00" xmlns="http://www.w3.org/2000/svg" xmlns:xlink="http://www.w3.org/1999/xlink">
<g id="graph0" class="graph" transform="scale(1 1) rotate(0) translate(4 179)">
<title>/home/runner/work/game&#45;engine/game&#45;engine/game&#45;engine/gauri_editor/include/gauri_editor</title>
<polygon fill="white" stroke="transparent" points="-4,4 -4,-179 126,-179 126,4 -4,4"/>
<g id="clust1" class="cluster">
<title>clusterdir_7b93209c31cfdafd3546e50041c0e4e3</title>
<g id="a_clust1"><a xlink:href="dir_7b93209c31cfdafd3546e50041c0e4e3.html" target="_top" xlink:title="include">
<polygon fill="#ddddee" stroke="black" points="8,-8 8,-167 114,-167 114,-8 8,-8"/>
<text text-anchor="middle" x="61" y="-155" font-family="Helvetica,sans-Serif" font-size="10.00">include</text>
</a>
</g>
</g>
<g id="clust2" class="cluster">
<title>clusterdir_b0913b8819c02683035db27f0ea0d85c</title>
<g id="a_clust2"><a xlink:href="dir_b0913b8819c02683035db27f0ea0d85c.html" target="_top">
<polygon fill="#eeeeff" stroke="black" points="16,-16 16,-140 106,-140 106,-16 16,-16"/>
</a>
</g>
</g>
<!-- dir_b0913b8819c02683035db27f0ea0d85c -->
<g id="node1" class="node">
<title>dir_b0913b8819c02683035db27f0ea0d85c</title>
<text text-anchor="middle" x="61" y="-111.5" font-family="Helvetica,sans-Serif" font-size="10.00">gauri_editor</text>
</g>
<!-- dir_6a153077c17f318dee44812469beeeb2 -->
<g id="node2" class="node">
<title>dir_6a153077c17f318dee44812469beeeb2</title>
<g id="a_node2"><a xlink:href="dir_6a153077c17f318dee44812469beeeb2.html" target="_top" xlink:title="panels">
<polygon fill="white" stroke="black" points="88,-60 34,-60 34,-24 88,-24 88,-60"/>
<text text-anchor="middle" x="61" y="-39.5" font-family="Helvetica,sans-Serif" font-size="10.00">panels</text>
</a>
</g>
</g>
<!-- dir_b0913b8819c02683035db27f0ea0d85c&#45;&gt;dir_6a153077c17f318dee44812469beeeb2 -->
<g id="edge1" class="edge">
<title>dir_b0913b8819c02683035db27f0ea0d85c&#45;&gt;dir_6a153077c17f318dee44812469beeeb2</title>
<path fill="none" stroke="black" d="M61,-95.7C61,-87.98 61,-78.71 61,-70.11"/>
<polygon fill="black" stroke="black" points="64.5,-70.1 61,-60.1 57.5,-70.1 64.5,-70.1"/>
<g id="a_edge1&#45;headlabel"><a xlink:href="dir_000002_000003.html" target="_top" xlink:title="1">
<text text-anchor="middle" x="67.34" y="-71.2" font-family="Helvetica,sans-Serif" font-size="10.00">1</text>
</a>
</g>
</g>
</g>
</svg>
