<?xml version="1.0" encoding="UTF-8" standalone="no"?>
<!DOCTYPE svg PUBLIC "-//W3C//DTD SVG 1.1//EN"
 "http://www.w3.org/Graphics/SVG/1.1/DTD/svg11.dtd">
<!-- Generated by graphviz version 2.43.0 (0)
 -->
<!-- Title: /home/runner/work/game&#45;engine/game&#45;engine/game&#45;engine/gauri_editor/include/gauri_editor/editor_layer.h Pages: 1 -->
<svg width="1054pt" height="84pt"
 viewBox="0.00 0.00 1054.00 84.00" xmlns="http://www.w3.org/2000/svg" xmlns:xlink="http://www.w3.org/1999/xlink">
<g id="graph0" class="graph" transform="scale(1 1) rotate(0) translate(4 80)">
<title>/home/runner/work/game&#45;engine/game&#45;engine/game&#45;engine/gauri_editor/include/gauri_editor/editor_layer.h</title>
<polygon fill="white" stroke="transparent" points="-4,4 -4,-80 1050,-80 1050,4 -4,4"/>
<!-- Node1 -->
<g id="node1" class="node">
<title>Node1</title>
<g id="a_node1"><a xlink:title=" ">
<polygon fill="#bfbfbf" stroke="black" points="261.5,-56.5 261.5,-75.5 803.5,-75.5 803.5,-56.5 261.5,-56.5"/>
<text text-anchor="middle" x="532.5" y="-63.5" font-family="Helvetica,sans-Serif" font-size="10.00">/home/runner/work/game&#45;engine/game&#45;engine/game&#45;engine/gauri_editor/include/gauri_editor/editor_layer.h</text>
</a>
</g>
</g>
<!-- Node2 -->
<g id="node2" class="node">
<title>Node2</title>
<g id="a_node2"><a xlink:href="editor__layer_8cpp.html" target="_top" xlink:title=" ">
<polygon fill="white" stroke="black" points="0,-0.5 0,-19.5 533,-19.5 533,-0.5 0,-0.5"/>
<text text-anchor="middle" x="266.5" y="-7.5" font-family="Helvetica,sans-Serif" font-size="10.00">/home/runner/work/game&#45;engine/game&#45;engine/game&#45;engine/gauri_editor/src/gauri_editor/editor_layer.cpp</text>
</a>
</g>
</g>
<!-- Node1&#45;&gt;Node2 -->
<g id="edge1" class="edge">
<title>Node1&#45;&gt;Node2</title>
<path fill="none" stroke="midnightblue" d="M480.33,-54.41C430.06,-44.2 354.97,-28.96 308.45,-19.52"/>
<polygon fill="midnightblue" stroke="midnightblue" points="479.86,-57.88 490.35,-56.44 481.25,-51.02 479.86,-57.88"/>
</g>
<!-- Node3 -->
<g id="node3" class="node">
<title>Node3</title>
<g id="a_node3"><a xlink:href="gauri__editor__app_8cpp.html" target="_top" xlink:title=" ">
<polygon fill="white" stroke="black" points="551,-0.5 551,-19.5 1046,-19.5 1046,-0.5 551,-0.5"/>
<text text-anchor="middle" x="798.5" y="-7.5" font-family="Helvetica,sans-Serif" font-size="10.00">/home/runner/work/game&#45;engine/game&#45;engine/game&#45;engine/gauri_editor/src/gauri_editor_app.cpp</text>
</a>
</g>
</g>
<!-- Node1&#45;&gt;Node3 -->
<g id="edge2" class="edge">
<title>Node1&#45;&gt;Node3</title>
<path fill="none" stroke="midnightblue" d="M584.67,-54.41C634.94,-44.2 710.03,-28.96 756.55,-19.52"/>
<polygon fill="midnightblue" stroke="midnightblue" points="583.75,-51.02 574.65,-56.44 585.14,-57.88 583.75,-51.02"/>
</g>
</g>
</svg>
