<?xml version="1.0" encoding="UTF-8" standalone="no"?>
<!DOCTYPE svg PUBLIC "-//W3C//DTD SVG 1.1//EN"
 "http://www.w3.org/Graphics/SVG/1.1/DTD/svg11.dtd">
<!-- Generated by graphviz version 2.43.0 (0)
 -->
<!-- Title: /home/runner/work/game&#45;engine/game&#45;engine/game&#45;engine/gauri_editor/src/gauri_editor/editor_layer.cpp Pages: 1 -->
<svg width="754pt" height="196pt"
 viewBox="0.00 0.00 753.50 196.00" xmlns="http://www.w3.org/2000/svg" xmlns:xlink="http://www.w3.org/1999/xlink">
<g id="graph0" class="graph" transform="scale(1 1) rotate(0) translate(4 192)">
<title>/home/runner/work/game&#45;engine/game&#45;engine/game&#45;engine/gauri_editor/src/gauri_editor/editor_layer.cpp</title>
<polygon fill="white" stroke="transparent" points="-4,4 -4,-192 749.5,-192 749.5,4 -4,4"/>
<!-- Node1 -->
<g id="node1" class="node">
<title>Node1</title>
<g id="a_node1"><a xlink:title=" ">
<polygon fill="#bfbfbf" stroke="black" points="168.5,-168.5 168.5,-187.5 701.5,-187.5 701.5,-168.5 168.5,-168.5"/>
<text text-anchor="middle" x="435" y="-175.5" font-family="Helvetica,sans-Serif" font-size="10.00">/home/runner/work/game&#45;engine/game&#45;engine/game&#45;engine/gauri_editor/src/gauri_editor/editor_layer.cpp</text>
</a>
</g>
</g>
<!-- Node2 -->
<g id="node2" class="node">
<title>Node2</title>
<g id="a_node2"><a xlink:href="editor__layer_8h.html" target="_top" xlink:title=" ">
<polygon fill="white" stroke="black" points="32.5,-112.5 32.5,-131.5 177.5,-131.5 177.5,-112.5 32.5,-112.5"/>
<text text-anchor="middle" x="105" y="-119.5" font-family="Helvetica,sans-Serif" font-size="10.00">gauri_editor/editor_layer.h</text>
</a>
</g>
</g>
<!-- Node1&#45;&gt;Node2 -->
<g id="edge1" class="edge">
<title>Node1&#45;&gt;Node2</title>
<path fill="none" stroke="midnightblue" d="M382.71,-168.44C324.18,-158.87 229.4,-143.36 167.13,-133.17"/>
<polygon fill="midnightblue" stroke="midnightblue" points="167.48,-129.68 157.04,-131.52 166.35,-136.59 167.48,-129.68"/>
</g>
<!-- Node8 -->
<g id="node8" class="node">
<title>Node8</title>
<g id="a_node8"><a xlink:title=" ">
<polygon fill="white" stroke="#bfbfbf" points="195.5,-112.5 195.5,-131.5 358.5,-131.5 358.5,-112.5 195.5,-112.5"/>
<text text-anchor="middle" x="277" y="-119.5" font-family="Helvetica,sans-Serif" font-size="10.00">glm/gtc/matrix_transform.hpp</text>
</a>
</g>
</g>
<!-- Node1&#45;&gt;Node8 -->
<g id="edge7" class="edge">
<title>Node1&#45;&gt;Node8</title>
<path fill="none" stroke="midnightblue" d="M409.96,-168.44C383.38,-159.36 341.19,-144.94 311.48,-134.78"/>
<polygon fill="midnightblue" stroke="midnightblue" points="312.51,-131.44 301.92,-131.52 310.25,-138.06 312.51,-131.44"/>
</g>
<!-- Node9 -->
<g id="node9" class="node">
<title>Node9</title>
<g id="a_node9"><a xlink:title=" ">
<polygon fill="white" stroke="#bfbfbf" points="376.5,-112.5 376.5,-131.5 493.5,-131.5 493.5,-112.5 376.5,-112.5"/>
<text text-anchor="middle" x="435" y="-119.5" font-family="Helvetica,sans-Serif" font-size="10.00">glm/gtc/type_ptr.hpp</text>
</a>
</g>
</g>
<!-- Node1&#45;&gt;Node9 -->
<g id="edge8" class="edge">
<title>Node1&#45;&gt;Node9</title>
<path fill="none" stroke="midnightblue" d="M435,-168.08C435,-161.01 435,-150.86 435,-141.99"/>
<polygon fill="midnightblue" stroke="midnightblue" points="438.5,-141.75 435,-131.75 431.5,-141.75 438.5,-141.75"/>
</g>
<!-- Node10 -->
<g id="node10" class="node">
<title>Node10</title>
<g id="a_node10"><a xlink:title=" ">
<polygon fill="white" stroke="#bfbfbf" points="511.5,-112.5 511.5,-131.5 564.5,-131.5 564.5,-112.5 511.5,-112.5"/>
<text text-anchor="middle" x="538" y="-119.5" font-family="Helvetica,sans-Serif" font-size="10.00">imgui.h</text>
</a>
</g>
</g>
<!-- Node1&#45;&gt;Node10 -->
<g id="edge9" class="edge">
<title>Node1&#45;&gt;Node10</title>
<path fill="none" stroke="midnightblue" d="M451.55,-168.32C467.99,-159.7 493.43,-146.36 512.47,-136.39"/>
<polygon fill="midnightblue" stroke="midnightblue" points="514.26,-139.4 521.49,-131.65 511.01,-133.2 514.26,-139.4"/>
</g>
<!-- Node11 -->
<g id="node11" class="node">
<title>Node11</title>
<g id="a_node11"><a xlink:title=" ">
<polygon fill="white" stroke="#bfbfbf" points="582.5,-112.5 582.5,-131.5 745.5,-131.5 745.5,-112.5 582.5,-112.5"/>
<text text-anchor="middle" x="664" y="-119.5" font-family="Helvetica,sans-Serif" font-size="10.00">gauri/scene/scene_serializer.h</text>
</a>
</g>
</g>
<!-- Node1&#45;&gt;Node11 -->
<g id="edge10" class="edge">
<title>Node1&#45;&gt;Node11</title>
<path fill="none" stroke="midnightblue" d="M471.29,-168.44C510.98,-159.08 574.71,-144.06 617.91,-133.87"/>
<polygon fill="midnightblue" stroke="midnightblue" points="618.95,-137.22 627.88,-131.52 617.35,-130.41 618.95,-137.22"/>
</g>
<!-- Node3 -->
<g id="node3" class="node">
<title>Node3</title>
<g id="a_node3"><a xlink:title=" ">
<polygon fill="white" stroke="#bfbfbf" points="0,-56.5 0,-75.5 50,-75.5 50,-56.5 0,-56.5"/>
<text text-anchor="middle" x="25" y="-63.5" font-family="Helvetica,sans-Serif" font-size="10.00">gauri.h</text>
</a>
</g>
</g>
<!-- Node2&#45;&gt;Node3 -->
<g id="edge2" class="edge">
<title>Node2&#45;&gt;Node3</title>
<path fill="none" stroke="midnightblue" d="M92.15,-112.32C79.78,-103.98 60.87,-91.21 46.26,-81.35"/>
<polygon fill="midnightblue" stroke="midnightblue" points="48.07,-78.35 37.82,-75.65 44.15,-84.15 48.07,-78.35"/>
</g>
<!-- Node4 -->
<g id="node4" class="node">
<title>Node4</title>
<g id="a_node4"><a xlink:href="scene__hierarchy__panel_8h.html" target="_top" xlink:title=" ">
<polygon fill="white" stroke="black" points="68,-56.5 68,-75.5 302,-75.5 302,-56.5 68,-56.5"/>
<text text-anchor="middle" x="185" y="-63.5" font-family="Helvetica,sans-Serif" font-size="10.00">gauri_editor/panels/scene_hierarchy_panel.h</text>
</a>
</g>
</g>
<!-- Node2&#45;&gt;Node4 -->
<g id="edge3" class="edge">
<title>Node2&#45;&gt;Node4</title>
<path fill="none" stroke="midnightblue" d="M117.85,-112.32C130.22,-103.98 149.13,-91.21 163.74,-81.35"/>
<polygon fill="midnightblue" stroke="midnightblue" points="165.85,-84.15 172.18,-75.65 161.93,-78.35 165.85,-84.15"/>
</g>
<!-- Node5 -->
<g id="node5" class="node">
<title>Node5</title>
<g id="a_node5"><a xlink:title=" ">
<polygon fill="white" stroke="#bfbfbf" points="9.5,-0.5 9.5,-19.5 110.5,-19.5 110.5,-0.5 9.5,-0.5"/>
<text text-anchor="middle" x="60" y="-7.5" font-family="Helvetica,sans-Serif" font-size="10.00">gauri/core/base.h</text>
</a>
</g>
</g>
<!-- Node4&#45;&gt;Node5 -->
<g id="edge4" class="edge">
<title>Node4&#45;&gt;Node5</title>
<path fill="none" stroke="midnightblue" d="M165.19,-56.44C144.71,-47.6 112.52,-33.69 89.14,-23.59"/>
<polygon fill="midnightblue" stroke="midnightblue" points="90.28,-20.27 79.71,-19.52 87.51,-26.7 90.28,-20.27"/>
</g>
<!-- Node6 -->
<g id="node6" class="node">
<title>Node6</title>
<g id="a_node6"><a xlink:title=" ">
<polygon fill="white" stroke="#bfbfbf" points="129,-0.5 129,-19.5 241,-19.5 241,-0.5 129,-0.5"/>
<text text-anchor="middle" x="185" y="-7.5" font-family="Helvetica,sans-Serif" font-size="10.00">gauri/scene/entity.h</text>
</a>
</g>
</g>
<!-- Node4&#45;&gt;Node6 -->
<g id="edge5" class="edge">
<title>Node4&#45;&gt;Node6</title>
<path fill="none" stroke="midnightblue" d="M185,-56.08C185,-49.01 185,-38.86 185,-29.99"/>
<polygon fill="midnightblue" stroke="midnightblue" points="188.5,-29.75 185,-19.75 181.5,-29.75 188.5,-29.75"/>
</g>
<!-- Node7 -->
<g id="node7" class="node">
<title>Node7</title>
<g id="a_node7"><a xlink:title=" ">
<polygon fill="white" stroke="#bfbfbf" points="259.5,-0.5 259.5,-19.5 372.5,-19.5 372.5,-0.5 259.5,-0.5"/>
<text text-anchor="middle" x="316" y="-7.5" font-family="Helvetica,sans-Serif" font-size="10.00">gauri/scene/scene.h</text>
</a>
</g>
</g>
<!-- Node4&#45;&gt;Node7 -->
<g id="edge6" class="edge">
<title>Node4&#45;&gt;Node7</title>
<path fill="none" stroke="midnightblue" d="M205.76,-56.44C227.32,-47.56 261.26,-33.56 285.79,-23.45"/>
<polygon fill="midnightblue" stroke="midnightblue" points="287.43,-26.56 295.34,-19.52 284.76,-20.09 287.43,-26.56"/>
</g>
</g>
</svg>
