<?xml version="1.0" encoding="UTF-8" standalone="no"?>
<!DOCTYPE svg PUBLIC "-//W3C//DTD SVG 1.1//EN"
 "http://www.w3.org/Graphics/SVG/1.1/DTD/svg11.dtd">
<!-- Generated by graphviz version 2.43.0 (0)
 -->
<!-- Title: /home/runner/work/game&#45;engine/game&#45;engine/game&#45;engine/gauri_editor/src/gauri_editor/editor_layer.cpp Pages: 1 -->
<svg width="1185pt" height="196pt"
 viewBox="0.00 0.00 1185.00 196.00" xmlns="http://www.w3.org/2000/svg" xmlns:xlink="http://www.w3.org/1999/xlink">
<g id="graph0" class="graph" transform="scale(1 1) rotate(0) translate(4 192)">
<title>/home/runner/work/game&#45;engine/game&#45;engine/game&#45;engine/gauri_editor/src/gauri_editor/editor_layer.cpp</title>
<polygon fill="white" stroke="transparent" points="-4,4 -4,-192 1181,-192 1181,4 -4,4"/>
<!-- Node1 -->
<g id="node1" class="node">
<title>Node1</title>
<g id="a_node1"><a xlink:title=" ">
<polygon fill="#bfbfbf" stroke="black" points="359.5,-168.5 359.5,-187.5 892.5,-187.5 892.5,-168.5 359.5,-168.5"/>
<text text-anchor="middle" x="626" y="-175.5" font-family="Helvetica,sans-Serif" font-size="10.00">/home/runner/work/game&#45;engine/game&#45;engine/game&#45;engine/gauri_editor/src/gauri_editor/editor_layer.cpp</text>
</a>
</g>
</g>
<!-- Node2 -->
<g id="node2" class="node">
<title>Node2</title>
<g id="a_node2"><a xlink:href="editor__layer_8h.html" target="_top" xlink:title=" ">
<polygon fill="white" stroke="black" points="79.5,-112.5 79.5,-131.5 224.5,-131.5 224.5,-112.5 79.5,-112.5"/>
<text text-anchor="middle" x="152" y="-119.5" font-family="Helvetica,sans-Serif" font-size="10.00">gauri_editor/editor_layer.h</text>
</a>
</g>
</g>
<!-- Node1&#45;&gt;Node2 -->
<g id="edge1" class="edge">
<title>Node1&#45;&gt;Node2</title>
<path fill="none" stroke="midnightblue" d="M551.15,-168.47C464.99,-158.66 323.9,-142.58 234.6,-132.41"/>
<polygon fill="midnightblue" stroke="midnightblue" points="234.84,-128.92 224.51,-131.26 234.05,-135.87 234.84,-128.92"/>
</g>
<!-- Node9 -->
<g id="node9" class="node">
<title>Node9</title>
<g id="a_node9"><a xlink:title=" ">
<polygon fill="white" stroke="#bfbfbf" points="242.5,-112.5 242.5,-131.5 405.5,-131.5 405.5,-112.5 242.5,-112.5"/>
<text text-anchor="middle" x="324" y="-119.5" font-family="Helvetica,sans-Serif" font-size="10.00">glm/gtc/matrix_transform.hpp</text>
</a>
</g>
</g>
<!-- Node1&#45;&gt;Node9 -->
<g id="edge8" class="edge">
<title>Node1&#45;&gt;Node9</title>
<path fill="none" stroke="midnightblue" d="M578.15,-168.44C524.8,-158.9 438.56,-143.48 381.56,-133.29"/>
<polygon fill="midnightblue" stroke="midnightblue" points="382.09,-129.83 371.63,-131.52 380.86,-136.72 382.09,-129.83"/>
</g>
<!-- Node10 -->
<g id="node10" class="node">
<title>Node10</title>
<g id="a_node10"><a xlink:title=" ">
<polygon fill="white" stroke="#bfbfbf" points="423.5,-112.5 423.5,-131.5 540.5,-131.5 540.5,-112.5 423.5,-112.5"/>
<text text-anchor="middle" x="482" y="-119.5" font-family="Helvetica,sans-Serif" font-size="10.00">glm/gtc/type_ptr.hpp</text>
</a>
</g>
</g>
<!-- Node1&#45;&gt;Node10 -->
<g id="edge9" class="edge">
<title>Node1&#45;&gt;Node10</title>
<path fill="none" stroke="midnightblue" d="M603.18,-168.44C579.17,-159.44 541.17,-145.19 514.13,-135.05"/>
<polygon fill="midnightblue" stroke="midnightblue" points="515.3,-131.75 504.71,-131.52 512.84,-138.3 515.3,-131.75"/>
</g>
<!-- Node11 -->
<g id="node11" class="node">
<title>Node11</title>
<g id="a_node11"><a xlink:title=" ">
<polygon fill="white" stroke="#bfbfbf" points="558.5,-112.5 558.5,-131.5 611.5,-131.5 611.5,-112.5 558.5,-112.5"/>
<text text-anchor="middle" x="585" y="-119.5" font-family="Helvetica,sans-Serif" font-size="10.00">imgui.h</text>
</a>
</g>
</g>
<!-- Node1&#45;&gt;Node11 -->
<g id="edge10" class="edge">
<title>Node1&#45;&gt;Node11</title>
<path fill="none" stroke="midnightblue" d="M619.23,-168.08C613.44,-160.46 604.94,-149.26 597.86,-139.94"/>
<polygon fill="midnightblue" stroke="midnightblue" points="600.48,-137.6 591.64,-131.75 594.9,-141.83 600.48,-137.6"/>
</g>
<!-- Node12 -->
<g id="node12" class="node">
<title>Node12</title>
<g id="a_node12"><a xlink:title=" ">
<polygon fill="white" stroke="#bfbfbf" points="630,-112.5 630,-131.5 706,-131.5 706,-112.5 630,-112.5"/>
<text text-anchor="middle" x="668" y="-119.5" font-family="Helvetica,sans-Serif" font-size="10.00">ImGuizmo.h</text>
</a>
</g>
</g>
<!-- Node1&#45;&gt;Node12 -->
<g id="edge11" class="edge">
<title>Node1&#45;&gt;Node12</title>
<path fill="none" stroke="midnightblue" d="M632.94,-168.08C638.93,-160.38 647.75,-149.03 655.05,-139.65"/>
<polygon fill="midnightblue" stroke="midnightblue" points="657.82,-141.79 661.19,-131.75 652.29,-137.5 657.82,-141.79"/>
</g>
<!-- Node13 -->
<g id="node13" class="node">
<title>Node13</title>
<g id="a_node13"><a xlink:title=" ">
<polygon fill="white" stroke="#bfbfbf" points="724.5,-112.5 724.5,-131.5 831.5,-131.5 831.5,-112.5 724.5,-112.5"/>
<text text-anchor="middle" x="778" y="-119.5" font-family="Helvetica,sans-Serif" font-size="10.00">gauri/math/math.h</text>
</a>
</g>
</g>
<!-- Node1&#45;&gt;Node13 -->
<g id="edge12" class="edge">
<title>Node1&#45;&gt;Node13</title>
<path fill="none" stroke="midnightblue" d="M650.08,-168.44C675.54,-159.4 715.89,-145.06 744.46,-134.92"/>
<polygon fill="midnightblue" stroke="midnightblue" points="745.78,-138.16 754.03,-131.52 743.43,-131.57 745.78,-138.16"/>
</g>
<!-- Node14 -->
<g id="node14" class="node">
<title>Node14</title>
<g id="a_node14"><a xlink:title=" ">
<polygon fill="white" stroke="#bfbfbf" points="849.5,-112.5 849.5,-131.5 1012.5,-131.5 1012.5,-112.5 849.5,-112.5"/>
<text text-anchor="middle" x="931" y="-119.5" font-family="Helvetica,sans-Serif" font-size="10.00">gauri/scene/scene_serializer.h</text>
</a>
</g>
</g>
<!-- Node1&#45;&gt;Node14 -->
<g id="edge13" class="edge">
<title>Node1&#45;&gt;Node14</title>
<path fill="none" stroke="midnightblue" d="M674.33,-168.44C728.2,-158.9 815.31,-143.48 872.86,-133.29"/>
<polygon fill="midnightblue" stroke="midnightblue" points="873.66,-136.71 882.9,-131.52 872.44,-129.81 873.66,-136.71"/>
</g>
<!-- Node15 -->
<g id="node15" class="node">
<title>Node15</title>
<g id="a_node15"><a xlink:title=" ">
<polygon fill="white" stroke="#bfbfbf" points="1031,-112.5 1031,-131.5 1177,-131.5 1177,-112.5 1031,-112.5"/>
<text text-anchor="middle" x="1104" y="-119.5" font-family="Helvetica,sans-Serif" font-size="10.00">gauri/utils/platform_utils.h</text>
</a>
</g>
</g>
<!-- Node1&#45;&gt;Node15 -->
<g id="edge14" class="edge">
<title>Node1&#45;&gt;Node15</title>
<path fill="none" stroke="midnightblue" d="M701.48,-168.47C788.36,-158.66 930.65,-142.58 1020.71,-132.41"/>
<polygon fill="midnightblue" stroke="midnightblue" points="1021.34,-135.86 1030.88,-131.26 1020.55,-128.91 1021.34,-135.86"/>
</g>
<!-- Node3 -->
<g id="node3" class="node">
<title>Node3</title>
<g id="a_node3"><a xlink:title=" ">
<polygon fill="white" stroke="#bfbfbf" points="0,-56.5 0,-75.5 50,-75.5 50,-56.5 0,-56.5"/>
<text text-anchor="middle" x="25" y="-63.5" font-family="Helvetica,sans-Serif" font-size="10.00">gauri.h</text>
</a>
</g>
</g>
<!-- Node2&#45;&gt;Node3 -->
<g id="edge2" class="edge">
<title>Node2&#45;&gt;Node3</title>
<path fill="none" stroke="midnightblue" d="M131.88,-112.44C110.98,-103.56 78.07,-89.56 54.28,-79.45"/>
<polygon fill="midnightblue" stroke="midnightblue" points="55.6,-76.21 45.03,-75.52 52.86,-82.65 55.6,-76.21"/>
</g>
<!-- Node4 -->
<g id="node4" class="node">
<title>Node4</title>
<g id="a_node4"><a xlink:title=" ">
<polygon fill="white" stroke="#bfbfbf" points="68,-56.5 68,-75.5 236,-75.5 236,-56.5 68,-56.5"/>
<text text-anchor="middle" x="152" y="-63.5" font-family="Helvetica,sans-Serif" font-size="10.00">gauri/renderer/editor_camera.h</text>
</a>
</g>
</g>
<!-- Node2&#45;&gt;Node4 -->
<g id="edge3" class="edge">
<title>Node2&#45;&gt;Node4</title>
<path fill="none" stroke="midnightblue" d="M152,-112.08C152,-105.01 152,-94.86 152,-85.99"/>
<polygon fill="midnightblue" stroke="midnightblue" points="155.5,-85.75 152,-75.75 148.5,-85.75 155.5,-85.75"/>
</g>
<!-- Node5 -->
<g id="node5" class="node">
<title>Node5</title>
<g id="a_node5"><a xlink:href="scene__hierarchy__panel_8h.html" target="_top" xlink:title=" ">
<polygon fill="white" stroke="black" points="254,-56.5 254,-75.5 488,-75.5 488,-56.5 254,-56.5"/>
<text text-anchor="middle" x="371" y="-63.5" font-family="Helvetica,sans-Serif" font-size="10.00">gauri_editor/panels/scene_hierarchy_panel.h</text>
</a>
</g>
</g>
<!-- Node2&#45;&gt;Node5 -->
<g id="edge4" class="edge">
<title>Node2&#45;&gt;Node5</title>
<path fill="none" stroke="midnightblue" d="M186.7,-112.44C224.58,-103.1 285.35,-88.12 326.66,-77.93"/>
<polygon fill="midnightblue" stroke="midnightblue" points="327.59,-81.31 336.46,-75.52 325.91,-74.51 327.59,-81.31"/>
</g>
<!-- Node6 -->
<g id="node6" class="node">
<title>Node6</title>
<g id="a_node6"><a xlink:title=" ">
<polygon fill="white" stroke="#bfbfbf" points="195.5,-0.5 195.5,-19.5 296.5,-19.5 296.5,-0.5 195.5,-0.5"/>
<text text-anchor="middle" x="246" y="-7.5" font-family="Helvetica,sans-Serif" font-size="10.00">gauri/core/base.h</text>
</a>
</g>
</g>
<!-- Node5&#45;&gt;Node6 -->
<g id="edge5" class="edge">
<title>Node5&#45;&gt;Node6</title>
<path fill="none" stroke="midnightblue" d="M351.19,-56.44C330.71,-47.6 298.52,-33.69 275.14,-23.59"/>
<polygon fill="midnightblue" stroke="midnightblue" points="276.28,-20.27 265.71,-19.52 273.51,-26.7 276.28,-20.27"/>
</g>
<!-- Node7 -->
<g id="node7" class="node">
<title>Node7</title>
<g id="a_node7"><a xlink:title=" ">
<polygon fill="white" stroke="#bfbfbf" points="315,-0.5 315,-19.5 427,-19.5 427,-0.5 315,-0.5"/>
<text text-anchor="middle" x="371" y="-7.5" font-family="Helvetica,sans-Serif" font-size="10.00">gauri/scene/entity.h</text>
</a>
</g>
</g>
<!-- Node5&#45;&gt;Node7 -->
<g id="edge6" class="edge">
<title>Node5&#45;&gt;Node7</title>
<path fill="none" stroke="midnightblue" d="M371,-56.08C371,-49.01 371,-38.86 371,-29.99"/>
<polygon fill="midnightblue" stroke="midnightblue" points="374.5,-29.75 371,-19.75 367.5,-29.75 374.5,-29.75"/>
</g>
<!-- Node8 -->
<g id="node8" class="node">
<title>Node8</title>
<g id="a_node8"><a xlink:title=" ">
<polygon fill="white" stroke="#bfbfbf" points="445.5,-0.5 445.5,-19.5 558.5,-19.5 558.5,-0.5 445.5,-0.5"/>
<text text-anchor="middle" x="502" y="-7.5" font-family="Helvetica,sans-Serif" font-size="10.00">gauri/scene/scene.h</text>
</a>
</g>
</g>
<!-- Node5&#45;&gt;Node8 -->
<g id="edge7" class="edge">
<title>Node5&#45;&gt;Node8</title>
<path fill="none" stroke="midnightblue" d="M391.76,-56.44C413.32,-47.56 447.26,-33.56 471.79,-23.45"/>
<polygon fill="midnightblue" stroke="midnightblue" points="473.43,-26.56 481.34,-19.52 470.76,-20.09 473.43,-26.56"/>
</g>
</g>
</svg>
