<?xml version="1.0" encoding="UTF-8" standalone="no"?>
<!DOCTYPE svg PUBLIC "-//W3C//DTD SVG 1.1//EN"
 "http://www.w3.org/Graphics/SVG/1.1/DTD/svg11.dtd">
<!-- Generated by graphviz version 2.43.0 (0)
 -->
<!-- Title: /home/runner/work/game&#45;engine/game&#45;engine/game&#45;engine/gauri_editor/src/gauri_editor_app.cpp Pages: 1 -->
<svg width="1228pt" height="196pt"
 viewBox="0.00 0.00 1227.50 196.00" xmlns="http://www.w3.org/2000/svg" xmlns:xlink="http://www.w3.org/1999/xlink">
<g id="graph0" class="graph" transform="scale(1 1) rotate(0) translate(4 192)">
<title>/home/runner/work/game&#45;engine/game&#45;engine/game&#45;engine/gauri_editor/src/gauri_editor_app.cpp</title>
<polygon fill="white" stroke="transparent" points="-4,4 -4,-192 1223.5,-192 1223.5,4 -4,4"/>
<!-- Node1 -->
<g id="node1" class="node">
<title>Node1</title>
<g id="a_node1"><a xlink:title=" ">
<polygon fill="#bfbfbf" stroke="black" points="204.5,-168.5 204.5,-187.5 699.5,-187.5 699.5,-168.5 204.5,-168.5"/>
<text text-anchor="middle" x="452" y="-175.5" font-family="Helvetica,sans-Serif" font-size="10.00">/home/runner/work/game&#45;engine/game&#45;engine/game&#45;engine/gauri_editor/src/gauri_editor_app.cpp</text>
</a>
</g>
</g>
<!-- Node2 -->
<g id="node2" class="node">
<title>Node2</title>
<g id="a_node2"><a xlink:title=" ">
<polygon fill="white" stroke="#bfbfbf" points="0,-112.5 0,-131.5 60,-131.5 60,-112.5 0,-112.5"/>
<text text-anchor="middle" x="30" y="-119.5" font-family="Helvetica,sans-Serif" font-size="10.00">iostream</text>
</a>
</g>
</g>
<!-- Node1&#45;&gt;Node2 -->
<g id="edge1" class="edge">
<title>Node1&#45;&gt;Node2</title>
<path fill="none" stroke="midnightblue" d="M353.97,-168.47C278.76,-161.24 172.21,-149.48 70.04,-132.01"/>
<polygon fill="midnightblue" stroke="midnightblue" points="70.62,-128.56 60.17,-130.31 69.42,-135.46 70.62,-128.56"/>
</g>
<!-- Node3 -->
<g id="node3" class="node">
<title>Node3</title>
<g id="a_node3"><a xlink:title=" ">
<polygon fill="white" stroke="#bfbfbf" points="78.5,-112.5 78.5,-131.5 241.5,-131.5 241.5,-112.5 78.5,-112.5"/>
<text text-anchor="middle" x="160" y="-119.5" font-family="Helvetica,sans-Serif" font-size="10.00">glm/gtc/matrix_transform.hpp</text>
</a>
</g>
</g>
<!-- Node1&#45;&gt;Node3 -->
<g id="edge2" class="edge">
<title>Node1&#45;&gt;Node3</title>
<path fill="none" stroke="midnightblue" d="M405.73,-168.44C354.26,-158.92 271.11,-143.55 216,-133.36"/>
<polygon fill="midnightblue" stroke="midnightblue" points="216.52,-129.89 206.05,-131.52 215.25,-136.78 216.52,-129.89"/>
</g>
<!-- Node4 -->
<g id="node4" class="node">
<title>Node4</title>
<g id="a_node4"><a xlink:title=" ">
<polygon fill="white" stroke="#bfbfbf" points="259.5,-112.5 259.5,-131.5 376.5,-131.5 376.5,-112.5 259.5,-112.5"/>
<text text-anchor="middle" x="318" y="-119.5" font-family="Helvetica,sans-Serif" font-size="10.00">glm/gtc/type_ptr.hpp</text>
</a>
</g>
</g>
<!-- Node1&#45;&gt;Node4 -->
<g id="edge3" class="edge">
<title>Node1&#45;&gt;Node4</title>
<path fill="none" stroke="midnightblue" d="M430.77,-168.44C408.62,-159.52 373.68,-145.44 348.56,-135.32"/>
<polygon fill="midnightblue" stroke="midnightblue" points="349.72,-132.01 339.13,-131.52 347.1,-138.5 349.72,-132.01"/>
</g>
<!-- Node5 -->
<g id="node5" class="node">
<title>Node5</title>
<g id="a_node5"><a xlink:title=" ">
<polygon fill="white" stroke="#bfbfbf" points="575,-56.5 575,-75.5 625,-75.5 625,-56.5 575,-56.5"/>
<text text-anchor="middle" x="600" y="-63.5" font-family="Helvetica,sans-Serif" font-size="10.00">gauri.h</text>
</a>
</g>
</g>
<!-- Node1&#45;&gt;Node5 -->
<g id="edge4" class="edge">
<title>Node1&#45;&gt;Node5</title>
<path fill="none" stroke="midnightblue" d="M442.9,-168.27C430.22,-155.06 410.28,-129.66 424,-112 441.09,-89.99 518.47,-76.92 564.74,-70.94"/>
<polygon fill="midnightblue" stroke="midnightblue" points="565.46,-74.38 574.95,-69.67 564.59,-67.43 565.46,-74.38"/>
</g>
<!-- Node6 -->
<g id="node6" class="node">
<title>Node6</title>
<g id="a_node6"><a xlink:title=" ">
<polygon fill="white" stroke="#bfbfbf" points="433.5,-112.5 433.5,-131.5 566.5,-131.5 566.5,-112.5 433.5,-112.5"/>
<text text-anchor="middle" x="500" y="-119.5" font-family="Helvetica,sans-Serif" font-size="10.00">gauri/core/entry_point.h</text>
</a>
</g>
</g>
<!-- Node1&#45;&gt;Node6 -->
<g id="edge5" class="edge">
<title>Node1&#45;&gt;Node6</title>
<path fill="none" stroke="midnightblue" d="M459.93,-168.08C466.85,-160.3 477.07,-148.8 485.45,-139.37"/>
<polygon fill="midnightblue" stroke="midnightblue" points="488.19,-141.55 492.22,-131.75 482.96,-136.9 488.19,-141.55"/>
</g>
<!-- Node7 -->
<g id="node7" class="node">
<title>Node7</title>
<g id="a_node7"><a xlink:title=" ">
<polygon fill="white" stroke="#bfbfbf" points="584.5,-112.5 584.5,-131.5 637.5,-131.5 637.5,-112.5 584.5,-112.5"/>
<text text-anchor="middle" x="611" y="-119.5" font-family="Helvetica,sans-Serif" font-size="10.00">imgui.h</text>
</a>
</g>
</g>
<!-- Node1&#45;&gt;Node7 -->
<g id="edge6" class="edge">
<title>Node1&#45;&gt;Node7</title>
<path fill="none" stroke="midnightblue" d="M477.19,-168.44C503.94,-159.36 546.4,-144.94 576.31,-134.78"/>
<polygon fill="midnightblue" stroke="midnightblue" points="577.58,-138.05 585.92,-131.52 575.33,-131.42 577.58,-138.05"/>
</g>
<!-- Node8 -->
<g id="node8" class="node">
<title>Node8</title>
<g id="a_node8"><a xlink:title=" ">
<polygon fill="white" stroke="#bfbfbf" points="655.5,-112.5 655.5,-131.5 832.5,-131.5 832.5,-112.5 655.5,-112.5"/>
<text text-anchor="middle" x="744" y="-119.5" font-family="Helvetica,sans-Serif" font-size="10.00">platform/opengl/opengl_shader.h</text>
</a>
</g>
</g>
<!-- Node1&#45;&gt;Node8 -->
<g id="edge7" class="edge">
<title>Node1&#45;&gt;Node8</title>
<path fill="none" stroke="midnightblue" d="M498.27,-168.44C549.74,-158.92 632.89,-143.55 688,-133.36"/>
<polygon fill="midnightblue" stroke="midnightblue" points="688.75,-136.78 697.95,-131.52 687.48,-129.89 688.75,-136.78"/>
</g>
<!-- Node9 -->
<g id="node9" class="node">
<title>Node9</title>
<g id="a_node9"><a xlink:href="editor__layer_8h.html" target="_top" xlink:title=" ">
<polygon fill="white" stroke="black" points="850.5,-112.5 850.5,-131.5 995.5,-131.5 995.5,-112.5 850.5,-112.5"/>
<text text-anchor="middle" x="923" y="-119.5" font-family="Helvetica,sans-Serif" font-size="10.00">gauri_editor/editor_layer.h</text>
</a>
</g>
</g>
<!-- Node1&#45;&gt;Node9 -->
<g id="edge8" class="edge">
<title>Node1&#45;&gt;Node9</title>
<path fill="none" stroke="midnightblue" d="M526.37,-168.47C611.74,-158.69 751.37,-142.68 840.15,-132.5"/>
<polygon fill="midnightblue" stroke="midnightblue" points="840.64,-135.97 850.18,-131.35 839.85,-129.01 840.64,-135.97"/>
</g>
<!-- Node9&#45;&gt;Node5 -->
<g id="edge9" class="edge">
<title>Node9&#45;&gt;Node5</title>
<path fill="none" stroke="midnightblue" d="M871.82,-112.44C805.67,-101.38 692.23,-82.42 635.08,-72.86"/>
<polygon fill="midnightblue" stroke="midnightblue" points="635.53,-69.39 625.09,-71.19 634.37,-76.3 635.53,-69.39"/>
</g>
<!-- Node10 -->
<g id="node10" class="node">
<title>Node10</title>
<g id="a_node10"><a xlink:title=" ">
<polygon fill="white" stroke="#bfbfbf" points="729,-56.5 729,-75.5 897,-75.5 897,-56.5 729,-56.5"/>
<text text-anchor="middle" x="813" y="-63.5" font-family="Helvetica,sans-Serif" font-size="10.00">gauri/renderer/editor_camera.h</text>
</a>
</g>
</g>
<!-- Node9&#45;&gt;Node10 -->
<g id="edge10" class="edge">
<title>Node9&#45;&gt;Node10</title>
<path fill="none" stroke="midnightblue" d="M905.33,-112.32C887.61,-103.62 860.1,-90.12 839.71,-80.11"/>
<polygon fill="midnightblue" stroke="midnightblue" points="841.15,-76.92 830.63,-75.65 838.06,-83.2 841.15,-76.92"/>
</g>
<!-- Node11 -->
<g id="node11" class="node">
<title>Node11</title>
<g id="a_node11"><a xlink:href="scene__hierarchy__panel_8h.html" target="_top" xlink:title=" ">
<polygon fill="white" stroke="black" points="915,-56.5 915,-75.5 1149,-75.5 1149,-56.5 915,-56.5"/>
<text text-anchor="middle" x="1032" y="-63.5" font-family="Helvetica,sans-Serif" font-size="10.00">gauri_editor/panels/scene_hierarchy_panel.h</text>
</a>
</g>
</g>
<!-- Node9&#45;&gt;Node11 -->
<g id="edge11" class="edge">
<title>Node9&#45;&gt;Node11</title>
<path fill="none" stroke="midnightblue" d="M940.51,-112.32C958.07,-103.62 985.33,-90.12 1005.53,-80.11"/>
<polygon fill="midnightblue" stroke="midnightblue" points="1007.12,-83.23 1014.53,-75.65 1004.02,-76.96 1007.12,-83.23"/>
</g>
<!-- Node12 -->
<g id="node12" class="node">
<title>Node12</title>
<g id="a_node12"><a xlink:title=" ">
<polygon fill="white" stroke="#bfbfbf" points="856.5,-0.5 856.5,-19.5 957.5,-19.5 957.5,-0.5 856.5,-0.5"/>
<text text-anchor="middle" x="907" y="-7.5" font-family="Helvetica,sans-Serif" font-size="10.00">gauri/core/base.h</text>
</a>
</g>
</g>
<!-- Node11&#45;&gt;Node12 -->
<g id="edge12" class="edge">
<title>Node11&#45;&gt;Node12</title>
<path fill="none" stroke="midnightblue" d="M1012.19,-56.44C991.71,-47.6 959.52,-33.69 936.14,-23.59"/>
<polygon fill="midnightblue" stroke="midnightblue" points="937.28,-20.27 926.71,-19.52 934.51,-26.7 937.28,-20.27"/>
</g>
<!-- Node13 -->
<g id="node13" class="node">
<title>Node13</title>
<g id="a_node13"><a xlink:title=" ">
<polygon fill="white" stroke="#bfbfbf" points="976,-0.5 976,-19.5 1088,-19.5 1088,-0.5 976,-0.5"/>
<text text-anchor="middle" x="1032" y="-7.5" font-family="Helvetica,sans-Serif" font-size="10.00">gauri/scene/entity.h</text>
</a>
</g>
</g>
<!-- Node11&#45;&gt;Node13 -->
<g id="edge13" class="edge">
<title>Node11&#45;&gt;Node13</title>
<path fill="none" stroke="midnightblue" d="M1032,-56.08C1032,-49.01 1032,-38.86 1032,-29.99"/>
<polygon fill="midnightblue" stroke="midnightblue" points="1035.5,-29.75 1032,-19.75 1028.5,-29.75 1035.5,-29.75"/>
</g>
<!-- Node14 -->
<g id="node14" class="node">
<title>Node14</title>
<g id="a_node14"><a xlink:title=" ">
<polygon fill="white" stroke="#bfbfbf" points="1106.5,-0.5 1106.5,-19.5 1219.5,-19.5 1219.5,-0.5 1106.5,-0.5"/>
<text text-anchor="middle" x="1163" y="-7.5" font-family="Helvetica,sans-Serif" font-size="10.00">gauri/scene/scene.h</text>
</a>
</g>
</g>
<!-- Node11&#45;&gt;Node14 -->
<g id="edge14" class="edge">
<title>Node11&#45;&gt;Node14</title>
<path fill="none" stroke="midnightblue" d="M1052.76,-56.44C1074.32,-47.56 1108.26,-33.56 1132.79,-23.45"/>
<polygon fill="midnightblue" stroke="midnightblue" points="1134.43,-26.56 1142.34,-19.52 1131.76,-20.09 1134.43,-26.56"/>
</g>
</g>
</svg>
