<?xml version="1.0" encoding="UTF-8" standalone="no"?>
<!DOCTYPE svg PUBLIC "-//W3C//DTD SVG 1.1//EN"
 "http://www.w3.org/Graphics/SVG/1.1/DTD/svg11.dtd">
<!-- Generated by graphviz version 2.43.0 (0)
 -->
<!-- Title: /home/runner/work/game&#45;engine/game&#45;engine/game&#45;engine/sandbox/src/sandbox.cpp Pages: 1 -->
<svg width="942pt" height="140pt"
 viewBox="0.00 0.00 942.00 140.00" xmlns="http://www.w3.org/2000/svg" xmlns:xlink="http://www.w3.org/1999/xlink">
<g id="graph0" class="graph" transform="scale(1 1) rotate(0) translate(4 136)">
<title>/home/runner/work/game&#45;engine/game&#45;engine/game&#45;engine/sandbox/src/sandbox.cpp</title>
<polygon fill="white" stroke="transparent" points="-4,4 -4,-136 938,-136 938,4 -4,4"/>
<!-- Node1 -->
<g id="node1" class="node">
<title>Node1</title>
<g id="a_node1"><a xlink:title=" ">
<polygon fill="#bfbfbf" stroke="black" points="233.5,-112.5 233.5,-131.5 670.5,-131.5 670.5,-112.5 233.5,-112.5"/>
<text text-anchor="middle" x="452" y="-119.5" font-family="Helvetica,sans-Serif" font-size="10.00">/home/runner/work/game&#45;engine/game&#45;engine/game&#45;engine/sandbox/src/sandbox.cpp</text>
</a>
</g>
</g>
<!-- Node2 -->
<g id="node2" class="node">
<title>Node2</title>
<g id="a_node2"><a xlink:title=" ">
<polygon fill="white" stroke="#bfbfbf" points="0,-56.5 0,-75.5 60,-75.5 60,-56.5 0,-56.5"/>
<text text-anchor="middle" x="30" y="-63.5" font-family="Helvetica,sans-Serif" font-size="10.00">iostream</text>
</a>
</g>
</g>
<!-- Node1&#45;&gt;Node2 -->
<g id="edge1" class="edge">
<title>Node1&#45;&gt;Node2</title>
<path fill="none" stroke="midnightblue" d="M353.97,-112.47C278.76,-105.24 172.21,-93.48 70.04,-76.01"/>
<polygon fill="midnightblue" stroke="midnightblue" points="70.62,-72.56 60.17,-74.31 69.42,-79.46 70.62,-72.56"/>
</g>
<!-- Node3 -->
<g id="node3" class="node">
<title>Node3</title>
<g id="a_node3"><a xlink:title=" ">
<polygon fill="white" stroke="#bfbfbf" points="78.5,-56.5 78.5,-75.5 241.5,-75.5 241.5,-56.5 78.5,-56.5"/>
<text text-anchor="middle" x="160" y="-63.5" font-family="Helvetica,sans-Serif" font-size="10.00">glm/gtc/matrix_transform.hpp</text>
</a>
</g>
</g>
<!-- Node1&#45;&gt;Node3 -->
<g id="edge2" class="edge">
<title>Node1&#45;&gt;Node3</title>
<path fill="none" stroke="midnightblue" d="M405.73,-112.44C354.26,-102.92 271.11,-87.55 216,-77.36"/>
<polygon fill="midnightblue" stroke="midnightblue" points="216.52,-73.89 206.05,-75.52 215.25,-80.78 216.52,-73.89"/>
</g>
<!-- Node4 -->
<g id="node4" class="node">
<title>Node4</title>
<g id="a_node4"><a xlink:title=" ">
<polygon fill="white" stroke="#bfbfbf" points="259.5,-56.5 259.5,-75.5 376.5,-75.5 376.5,-56.5 259.5,-56.5"/>
<text text-anchor="middle" x="318" y="-63.5" font-family="Helvetica,sans-Serif" font-size="10.00">glm/gtc/type_ptr.hpp</text>
</a>
</g>
</g>
<!-- Node1&#45;&gt;Node4 -->
<g id="edge3" class="edge">
<title>Node1&#45;&gt;Node4</title>
<path fill="none" stroke="midnightblue" d="M430.77,-112.44C408.62,-103.52 373.68,-89.44 348.56,-79.32"/>
<polygon fill="midnightblue" stroke="midnightblue" points="349.72,-76.01 339.13,-75.52 347.1,-82.5 349.72,-76.01"/>
</g>
<!-- Node5 -->
<g id="node5" class="node">
<title>Node5</title>
<g id="a_node5"><a xlink:title=" ">
<polygon fill="white" stroke="#bfbfbf" points="623,-0.5 623,-19.5 673,-19.5 673,-0.5 623,-0.5"/>
<text text-anchor="middle" x="648" y="-7.5" font-family="Helvetica,sans-Serif" font-size="10.00">gauri.h</text>
</a>
</g>
</g>
<!-- Node1&#45;&gt;Node5 -->
<g id="edge4" class="edge">
<title>Node1&#45;&gt;Node5</title>
<path fill="none" stroke="midnightblue" d="M443.01,-112.16C430.5,-98.8 410.92,-73.21 425,-56 448.26,-27.57 555.46,-16.7 612.33,-12.88"/>
<polygon fill="midnightblue" stroke="midnightblue" points="612.9,-16.35 622.66,-12.22 612.46,-9.36 612.9,-16.35"/>
</g>
<!-- Node6 -->
<g id="node6" class="node">
<title>Node6</title>
<g id="a_node6"><a xlink:title=" ">
<polygon fill="white" stroke="#bfbfbf" points="433.5,-56.5 433.5,-75.5 566.5,-75.5 566.5,-56.5 433.5,-56.5"/>
<text text-anchor="middle" x="500" y="-63.5" font-family="Helvetica,sans-Serif" font-size="10.00">gauri/core/entry_point.h</text>
</a>
</g>
</g>
<!-- Node1&#45;&gt;Node6 -->
<g id="edge5" class="edge">
<title>Node1&#45;&gt;Node6</title>
<path fill="none" stroke="midnightblue" d="M459.93,-112.08C466.85,-104.3 477.07,-92.8 485.45,-83.37"/>
<polygon fill="midnightblue" stroke="midnightblue" points="488.19,-85.55 492.22,-75.75 482.96,-80.9 488.19,-85.55"/>
</g>
<!-- Node7 -->
<g id="node7" class="node">
<title>Node7</title>
<g id="a_node7"><a xlink:title=" ">
<polygon fill="white" stroke="#bfbfbf" points="584.5,-56.5 584.5,-75.5 637.5,-75.5 637.5,-56.5 584.5,-56.5"/>
<text text-anchor="middle" x="611" y="-63.5" font-family="Helvetica,sans-Serif" font-size="10.00">imgui.h</text>
</a>
</g>
</g>
<!-- Node1&#45;&gt;Node7 -->
<g id="edge6" class="edge">
<title>Node1&#45;&gt;Node7</title>
<path fill="none" stroke="midnightblue" d="M477.19,-112.44C503.94,-103.36 546.4,-88.94 576.31,-78.78"/>
<polygon fill="midnightblue" stroke="midnightblue" points="577.58,-82.05 585.92,-75.52 575.33,-75.42 577.58,-82.05"/>
</g>
<!-- Node8 -->
<g id="node8" class="node">
<title>Node8</title>
<g id="a_node8"><a xlink:title=" ">
<polygon fill="white" stroke="#bfbfbf" points="655.5,-56.5 655.5,-75.5 832.5,-75.5 832.5,-56.5 655.5,-56.5"/>
<text text-anchor="middle" x="744" y="-63.5" font-family="Helvetica,sans-Serif" font-size="10.00">platform/opengl/opengl_shader.h</text>
</a>
</g>
</g>
<!-- Node1&#45;&gt;Node8 -->
<g id="edge7" class="edge">
<title>Node1&#45;&gt;Node8</title>
<path fill="none" stroke="midnightblue" d="M498.27,-112.44C549.74,-102.92 632.89,-87.55 688,-77.36"/>
<polygon fill="midnightblue" stroke="midnightblue" points="688.75,-80.78 697.95,-75.52 687.48,-73.89 688.75,-80.78"/>
</g>
<!-- Node9 -->
<g id="node9" class="node">
<title>Node9</title>
<g id="a_node9"><a xlink:href="sandbox__2d_8h.html" target="_top" xlink:title=" ">
<polygon fill="white" stroke="black" points="850,-56.5 850,-75.5 934,-75.5 934,-56.5 850,-56.5"/>
<text text-anchor="middle" x="892" y="-63.5" font-family="Helvetica,sans-Serif" font-size="10.00">sandbox_2d.h</text>
</a>
</g>
</g>
<!-- Node1&#45;&gt;Node9 -->
<g id="edge8" class="edge">
<title>Node1&#45;&gt;Node9</title>
<path fill="none" stroke="midnightblue" d="M539.72,-112.48C616.5,-104.65 731.29,-92.06 839.62,-76.29"/>
<polygon fill="midnightblue" stroke="midnightblue" points="840.36,-79.71 849.75,-74.8 839.35,-72.79 840.36,-79.71"/>
</g>
<!-- Node9&#45;&gt;Node5 -->
<g id="edge9" class="edge">
<title>Node9&#45;&gt;Node5</title>
<path fill="none" stroke="midnightblue" d="M853.34,-56.44C806.46,-46.07 728.15,-28.74 682.99,-18.74"/>
<polygon fill="midnightblue" stroke="midnightblue" points="683.59,-15.29 673.07,-16.55 682.08,-22.13 683.59,-15.29"/>
</g>
</g>
</svg>
