<?xml version="1.0" encoding="UTF-8" standalone="no"?>
<!DOCTYPE svg PUBLIC "-//W3C//DTD SVG 1.1//EN"
 "http://www.w3.org/Graphics/SVG/1.1/DTD/svg11.dtd">
<!-- Generated by graphviz version 2.43.0 (0)
 -->
<!-- Title: /home/runner/work/game&#45;engine/game&#45;engine/game&#45;engine/sandbox/src/sandbox_2d.h Pages: 1 -->
<svg width="918pt" height="84pt"
 viewBox="0.00 0.00 918.00 84.00" xmlns="http://www.w3.org/2000/svg" xmlns:xlink="http://www.w3.org/1999/xlink">
<g id="graph0" class="graph" transform="scale(1 1) rotate(0) translate(4 80)">
<title>/home/runner/work/game&#45;engine/game&#45;engine/game&#45;engine/sandbox/src/sandbox_2d.h</title>
<polygon fill="white" stroke="transparent" points="-4,4 -4,-80 914,-80 914,4 -4,4"/>
<!-- Node1 -->
<g id="node1" class="node">
<title>Node1</title>
<g id="a_node1"><a xlink:title=" ">
<polygon fill="#bfbfbf" stroke="black" points="229,-56.5 229,-75.5 672,-75.5 672,-56.5 229,-56.5"/>
<text text-anchor="middle" x="450.5" y="-63.5" font-family="Helvetica,sans-Serif" font-size="10.00">/home/runner/work/game&#45;engine/game&#45;engine/game&#45;engine/sandbox/src/sandbox_2d.h</text>
</a>
</g>
</g>
<!-- Node2 -->
<g id="node2" class="node">
<title>Node2</title>
<g id="a_node2"><a xlink:href="sandbox_8cpp.html" target="_top" xlink:title=" ">
<polygon fill="white" stroke="black" points="0,-0.5 0,-19.5 437,-19.5 437,-0.5 0,-0.5"/>
<text text-anchor="middle" x="218.5" y="-7.5" font-family="Helvetica,sans-Serif" font-size="10.00">/home/runner/work/game&#45;engine/game&#45;engine/game&#45;engine/sandbox/src/sandbox.cpp</text>
</a>
</g>
</g>
<!-- Node1&#45;&gt;Node2 -->
<g id="edge1" class="edge">
<title>Node1&#45;&gt;Node2</title>
<path fill="none" stroke="midnightblue" d="M403.9,-54.15C360.06,-43.95 295.32,-28.88 255.09,-19.52"/>
<polygon fill="midnightblue" stroke="midnightblue" points="403.21,-57.59 413.74,-56.44 404.79,-50.77 403.21,-57.59"/>
</g>
<!-- Node3 -->
<g id="node3" class="node">
<title>Node3</title>
<g id="a_node3"><a xlink:href="sandbox__2d_8cpp.html" target="_top" xlink:title=" ">
<polygon fill="white" stroke="black" points="455,-0.5 455,-19.5 910,-19.5 910,-0.5 455,-0.5"/>
<text text-anchor="middle" x="682.5" y="-7.5" font-family="Helvetica,sans-Serif" font-size="10.00">/home/runner/work/game&#45;engine/game&#45;engine/game&#45;engine/sandbox/src/sandbox_2d.cpp</text>
</a>
</g>
</g>
<!-- Node1&#45;&gt;Node3 -->
<g id="edge2" class="edge">
<title>Node1&#45;&gt;Node3</title>
<path fill="none" stroke="midnightblue" d="M497.1,-54.15C540.94,-43.95 605.68,-28.88 645.91,-19.52"/>
<polygon fill="midnightblue" stroke="midnightblue" points="496.21,-50.77 487.26,-56.44 497.79,-57.59 496.21,-50.77"/>
</g>
</g>
</svg>
