<?xml version="1.0" encoding="UTF-8" standalone="no"?>
<!DOCTYPE svg PUBLIC "-//W3C//DTD SVG 1.1//EN"
 "http://www.w3.org/Graphics/SVG/1.1/DTD/svg11.dtd">
<!-- Generated by graphviz version 2.43.0 (0)
 -->
<!-- Title: /home/runner/work/game&#45;engine/game&#45;engine/game&#45;engine/gauri_editor/src/gauri_editor/panels/scene_hierarchy_panel.cpp Pages: 1 -->
<svg width="876pt" height="140pt"
 viewBox="0.00 0.00 875.50 140.00" xmlns="http://www.w3.org/2000/svg" xmlns:xlink="http://www.w3.org/1999/xlink">
<g id="graph0" class="graph" transform="scale(1 1) rotate(0) translate(4 136)">
<title>/home/runner/work/game&#45;engine/game&#45;engine/game&#45;engine/gauri_editor/src/gauri_editor/panels/scene_hierarchy_panel.cpp</title>
<polygon fill="white" stroke="transparent" points="-4,4 -4,-136 871.5,-136 871.5,4 -4,4"/>
<!-- Node1 -->
<g id="node1" class="node">
<title>Node1</title>
<g id="a_node1"><a xlink:title=" ">
<polygon fill="#bfbfbf" stroke="black" points="205.5,-112.5 205.5,-131.5 827.5,-131.5 827.5,-112.5 205.5,-112.5"/>
<text text-anchor="middle" x="516.5" y="-119.5" font-family="Helvetica,sans-Serif" font-size="10.00">/home/runner/work/game&#45;engine/game&#45;engine/game&#45;engine/gauri_editor/src/gauri_editor/panels/scene_hierarchy_panel.cpp</text>
</a>
</g>
</g>
<!-- Node2 -->
<g id="node2" class="node">
<title>Node2</title>
<g id="a_node2"><a xlink:href="scene__hierarchy__panel_8h.html" target="_top" xlink:title=" ">
<polygon fill="white" stroke="black" points="58.5,-56.5 58.5,-75.5 292.5,-75.5 292.5,-56.5 58.5,-56.5"/>
<text text-anchor="middle" x="175.5" y="-63.5" font-family="Helvetica,sans-Serif" font-size="10.00">gauri_editor/panels/scene_hierarchy_panel.h</text>
</a>
</g>
</g>
<!-- Node1&#45;&gt;Node2 -->
<g id="edge1" class="edge">
<title>Node1&#45;&gt;Node2</title>
<path fill="none" stroke="midnightblue" d="M462.47,-112.44C401.86,-102.85 303.64,-87.29 239.3,-77.1"/>
<polygon fill="midnightblue" stroke="midnightblue" points="239.7,-73.62 229.28,-75.52 238.61,-80.54 239.7,-73.62"/>
</g>
<!-- Node6 -->
<g id="node6" class="node">
<title>Node6</title>
<g id="a_node6"><a xlink:title=" ">
<polygon fill="white" stroke="#bfbfbf" points="310.5,-56.5 310.5,-75.5 388.5,-75.5 388.5,-56.5 310.5,-56.5"/>
<text text-anchor="middle" x="349.5" y="-63.5" font-family="Helvetica,sans-Serif" font-size="10.00">glm/glm.hpp</text>
</a>
</g>
</g>
<!-- Node1&#45;&gt;Node6 -->
<g id="edge5" class="edge">
<title>Node1&#45;&gt;Node6</title>
<path fill="none" stroke="midnightblue" d="M490.04,-112.44C461.82,-103.32 416.96,-88.81 385.53,-78.65"/>
<polygon fill="midnightblue" stroke="midnightblue" points="386.43,-75.26 375.84,-75.52 384.28,-81.92 386.43,-75.26"/>
</g>
<!-- Node7 -->
<g id="node7" class="node">
<title>Node7</title>
<g id="a_node7"><a xlink:title=" ">
<polygon fill="white" stroke="#bfbfbf" points="407,-56.5 407,-75.5 524,-75.5 524,-56.5 407,-56.5"/>
<text text-anchor="middle" x="465.5" y="-63.5" font-family="Helvetica,sans-Serif" font-size="10.00">glm/gtc/type_ptr.hpp</text>
</a>
</g>
</g>
<!-- Node1&#45;&gt;Node7 -->
<g id="edge6" class="edge">
<title>Node1&#45;&gt;Node7</title>
<path fill="none" stroke="midnightblue" d="M508.08,-112.08C500.65,-104.22 489.65,-92.57 480.69,-83.08"/>
<polygon fill="midnightblue" stroke="midnightblue" points="483.18,-80.62 473.76,-75.75 478.09,-85.42 483.18,-80.62"/>
</g>
<!-- Node8 -->
<g id="node8" class="node">
<title>Node8</title>
<g id="a_node8"><a xlink:title=" ">
<polygon fill="white" stroke="#bfbfbf" points="542,-56.5 542,-75.5 595,-75.5 595,-56.5 542,-56.5"/>
<text text-anchor="middle" x="568.5" y="-63.5" font-family="Helvetica,sans-Serif" font-size="10.00">imgui.h</text>
</a>
</g>
</g>
<!-- Node1&#45;&gt;Node8 -->
<g id="edge7" class="edge">
<title>Node1&#45;&gt;Node8</title>
<path fill="none" stroke="midnightblue" d="M525.09,-112.08C532.66,-104.22 543.88,-92.57 553.01,-83.08"/>
<polygon fill="midnightblue" stroke="midnightblue" points="555.66,-85.38 560.07,-75.75 550.62,-80.53 555.66,-85.38"/>
</g>
<!-- Node9 -->
<g id="node9" class="node">
<title>Node9</title>
<g id="a_node9"><a xlink:title=" ">
<polygon fill="white" stroke="#bfbfbf" points="613.5,-56.5 613.5,-75.5 709.5,-75.5 709.5,-56.5 613.5,-56.5"/>
<text text-anchor="middle" x="661.5" y="-63.5" font-family="Helvetica,sans-Serif" font-size="10.00">imgui_internal.h</text>
</a>
</g>
</g>
<!-- Node1&#45;&gt;Node9 -->
<g id="edge8" class="edge">
<title>Node1&#45;&gt;Node9</title>
<path fill="none" stroke="midnightblue" d="M539.48,-112.44C563.66,-103.44 601.92,-89.19 629.15,-79.05"/>
<polygon fill="midnightblue" stroke="midnightblue" points="630.48,-82.29 638.63,-75.52 628.04,-75.73 630.48,-82.29"/>
</g>
<!-- Node10 -->
<g id="node10" class="node">
<title>Node10</title>
<g id="a_node10"><a xlink:title=" ">
<polygon fill="white" stroke="#bfbfbf" points="727.5,-56.5 727.5,-75.5 867.5,-75.5 867.5,-56.5 727.5,-56.5"/>
<text text-anchor="middle" x="797.5" y="-63.5" font-family="Helvetica,sans-Serif" font-size="10.00">gauri/scene/component.h</text>
</a>
</g>
</g>
<!-- Node1&#45;&gt;Node10 -->
<g id="edge9" class="edge">
<title>Node1&#45;&gt;Node10</title>
<path fill="none" stroke="midnightblue" d="M561.03,-112.44C610.46,-102.94 690.25,-87.61 743.28,-77.42"/>
<polygon fill="midnightblue" stroke="midnightblue" points="744.02,-80.84 753.18,-75.52 742.7,-73.97 744.02,-80.84"/>
</g>
<!-- Node3 -->
<g id="node3" class="node">
<title>Node3</title>
<g id="a_node3"><a xlink:title=" ">
<polygon fill="white" stroke="#bfbfbf" points="0,-0.5 0,-19.5 101,-19.5 101,-0.5 0,-0.5"/>
<text text-anchor="middle" x="50.5" y="-7.5" font-family="Helvetica,sans-Serif" font-size="10.00">gauri/core/base.h</text>
</a>
</g>
</g>
<!-- Node2&#45;&gt;Node3 -->
<g id="edge2" class="edge">
<title>Node2&#45;&gt;Node3</title>
<path fill="none" stroke="midnightblue" d="M155.69,-56.44C135.21,-47.6 103.02,-33.69 79.64,-23.59"/>
<polygon fill="midnightblue" stroke="midnightblue" points="80.78,-20.27 70.21,-19.52 78.01,-26.7 80.78,-20.27"/>
</g>
<!-- Node4 -->
<g id="node4" class="node">
<title>Node4</title>
<g id="a_node4"><a xlink:title=" ">
<polygon fill="white" stroke="#bfbfbf" points="119.5,-0.5 119.5,-19.5 231.5,-19.5 231.5,-0.5 119.5,-0.5"/>
<text text-anchor="middle" x="175.5" y="-7.5" font-family="Helvetica,sans-Serif" font-size="10.00">gauri/scene/entity.h</text>
</a>
</g>
</g>
<!-- Node2&#45;&gt;Node4 -->
<g id="edge3" class="edge">
<title>Node2&#45;&gt;Node4</title>
<path fill="none" stroke="midnightblue" d="M175.5,-56.08C175.5,-49.01 175.5,-38.86 175.5,-29.99"/>
<polygon fill="midnightblue" stroke="midnightblue" points="179,-29.75 175.5,-19.75 172,-29.75 179,-29.75"/>
</g>
<!-- Node5 -->
<g id="node5" class="node">
<title>Node5</title>
<g id="a_node5"><a xlink:title=" ">
<polygon fill="white" stroke="#bfbfbf" points="250,-0.5 250,-19.5 363,-19.5 363,-0.5 250,-0.5"/>
<text text-anchor="middle" x="306.5" y="-7.5" font-family="Helvetica,sans-Serif" font-size="10.00">gauri/scene/scene.h</text>
</a>
</g>
</g>
<!-- Node2&#45;&gt;Node5 -->
<g id="edge4" class="edge">
<title>Node2&#45;&gt;Node5</title>
<path fill="none" stroke="midnightblue" d="M196.26,-56.44C217.82,-47.56 251.76,-33.56 276.29,-23.45"/>
<polygon fill="midnightblue" stroke="midnightblue" points="277.93,-26.56 285.84,-19.52 275.26,-20.09 277.93,-26.56"/>
</g>
</g>
</svg>
