<?xml version="1.0" encoding="UTF-8" standalone="no"?>
<!DOCTYPE svg PUBLIC "-//W3C//DTD SVG 1.1//EN"
 "http://www.w3.org/Graphics/SVG/1.1/DTD/svg11.dtd">
<!-- Generated by graphviz version 2.43.0 (0)
 -->
<!-- Title: Sandbox2D::ProfileResult Pages: 1 -->
<svg width="154pt" height="171pt"
 viewBox="0.00 0.00 153.50 171.00" xmlns="http://www.w3.org/2000/svg" xmlns:xlink="http://www.w3.org/1999/xlink">
<g id="graph0" class="graph" transform="scale(1 1) rotate(0) translate(4 167)">
<title>Sandbox2D::ProfileResult</title>
<polygon fill="white" stroke="transparent" points="-4,4 -4,-167 149.5,-167 149.5,4 -4,4"/>
<!-- Node1 -->
<g id="node1" class="node">
<title>Node1</title>
<g id="a_node1"><a xlink:title=" ">
<polygon fill="#bfbfbf" stroke="black" points="0,-0.5 0,-57.5 140,-57.5 140,-0.5 0,-0.5"/>
<text text-anchor="middle" x="70" y="-45.5" font-family="Helvetica,sans-Serif" font-size="10.00">Sandbox2D::ProfileResult</text>
<polyline fill="none" stroke="black" points="0,-38.5 140,-38.5 "/>
<text text-anchor="middle" x="70" y="-26.5" font-family="Helvetica,sans-Serif" font-size="10.00"> </text>
<polyline fill="none" stroke="black" points="0,-19.5 140,-19.5 "/>
<text text-anchor="middle" x="70" y="-7.5" font-family="Helvetica,sans-Serif" font-size="10.00"> </text>
</a>
</g>
</g>
<!-- Node2 -->
<g id="node2" class="node">
<title>Node2</title>
<g id="a_node2"><a xlink:title=" ">
<polygon fill="white" stroke="#bfbfbf" points="14,-105.5 14,-162.5 52,-162.5 52,-105.5 14,-105.5"/>
<text text-anchor="middle" x="33" y="-150.5" font-family="Helvetica,sans-Serif" font-size="10.00">float</text>
<polyline fill="none" stroke="#bfbfbf" points="14,-143.5 52,-143.5 "/>
<text text-anchor="middle" x="33" y="-131.5" font-family="Helvetica,sans-Serif" font-size="10.00"> </text>
<polyline fill="none" stroke="#bfbfbf" points="14,-124.5 52,-124.5 "/>
<text text-anchor="middle" x="33" y="-112.5" font-family="Helvetica,sans-Serif" font-size="10.00"> </text>
</a>
</g>
</g>
<!-- Node2&#45;&gt;Node1 -->
<g id="edge1" class="edge">
<title>Node2&#45;&gt;Node1</title>
<path fill="none" stroke="#404040" d="M39.8,-105.47C42.38,-96.03 45.54,-85.46 49,-76 49.81,-73.77 50.69,-71.51 51.61,-69.23"/>
<polygon fill="none" stroke="#404040" points="51.72,-68.97 50.39,-61.89 56.42,-57.93 57.75,-65.02 51.72,-68.97"/>
<text text-anchor="middle" x="67.5" y="-79" font-family="Helvetica,sans-Serif" font-size="10.00"> +Time</text>
</g>
<!-- Node3 -->
<g id="node3" class="node">
<title>Node3</title>
<g id="a_node3"><a xlink:title=" ">
<polygon fill="white" stroke="#bfbfbf" points="70.5,-105.5 70.5,-162.5 145.5,-162.5 145.5,-105.5 70.5,-105.5"/>
<text text-anchor="middle" x="108" y="-150.5" font-family="Helvetica,sans-Serif" font-size="10.00">const char *</text>
<polyline fill="none" stroke="#bfbfbf" points="70.5,-143.5 145.5,-143.5 "/>
<text text-anchor="middle" x="108" y="-131.5" font-family="Helvetica,sans-Serif" font-size="10.00"> </text>
<polyline fill="none" stroke="#bfbfbf" points="70.5,-124.5 145.5,-124.5 "/>
<text text-anchor="middle" x="108" y="-112.5" font-family="Helvetica,sans-Serif" font-size="10.00"> </text>
</a>
</g>
</g>
<!-- Node3&#45;&gt;Node1 -->
<g id="edge2" class="edge">
<title>Node3&#45;&gt;Node1</title>
<path fill="none" stroke="#404040" d="M97.82,-105.4C93.73,-94.31 88.94,-81.33 84.5,-69.3"/>
<polygon fill="none" stroke="#404040" points="84.37,-68.94 78.54,-64.69 80.21,-57.68 86.04,-61.92 84.37,-68.94"/>
<text text-anchor="middle" x="110.5" y="-79" font-family="Helvetica,sans-Serif" font-size="10.00"> +Name</text>
</g>
</g>
</svg>
